<?xml version="1.0" encoding="utf-8"?>
<!-- Generator: Adobe Illustrator 22.0.1, SVG Export Plug-In . SVG Version: 6.00 Build 0)  -->
<svg version="1.1" xmlns="http://www.w3.org/2000/svg" xmlns:xlink="http://www.w3.org/1999/xlink" x="0px" y="0px"
	 viewBox="0 0 2370.5 664.7" style="enable-background:new 0 0 2370.5 664.7;" xml:space="preserve">
<style type="text/css">
	.st0{display:none;}
	.st1{display:inline;fill:#FBB03B;stroke:#FFFFFF;stroke-width:10;stroke-miterlimit:10;}
	.st2{display:inline;}
	.st3{fill:#FFFFFF;}
	.st4{fill:#775B3C;}
	.st5{fill:#59753C;}
	.st6{fill:#1C88A5;}
	.st7{opacity:0.41;clip-path:url(#SVGID_2_);}
	.st8{fill:none;stroke:#52AE33;stroke-width:40;stroke-miterlimit:10;}
	.st9{fill:none;stroke:#03CBB1;stroke-width:40;stroke-miterlimit:10;}
	.st10{fill:none;stroke:#ECE425;stroke-width:40;stroke-miterlimit:10;}
	.st11{fill:none;stroke:#F18513;stroke-width:40;stroke-miterlimit:10;}
	.st12{fill:none;stroke:#F30B14;stroke-width:40;stroke-miterlimit:10;}
</style>
<g id="Camada_1" class="st0">
	<ellipse class="st1" cx="387.3" cy="370.8" rx="245.7" ry="100.9"/>
	<g class="st2">
		<path class="st3" d="M322.1,375.9c0.7,0.2,1.3,0.5,2,0.8c0.7,0.3,1.4,0.6,2.2,0.9c0.7,0.3,1.5,0.5,2.3,0.7
			c0.8,0.2,1.7,0.3,2.6,0.3c1.1,0,2.2-0.1,3.3-0.4c1.1-0.3,2.2-0.6,3.2-1.1c1-0.5,2.1-1.1,3-1.8c1-0.7,1.8-1.5,2.6-2.5
			c0.9-1,1.6-1.9,2.2-2.7c0.6-0.8,1.1-1.5,1.4-2.2c0.4-0.6,0.6-1.2,0.8-1.6c0.2-0.5,0.2-0.9,0.2-1.2c0-0.5-0.2-0.9-0.5-1.3
			c-0.3-0.4-0.8-0.7-1.3-0.9c-0.6-0.2-1.2-0.4-1.9-0.5c-0.7-0.1-1.4-0.2-2.2-0.2c-0.5,0-1,0-1.6,0c-0.6,0-1.2,0.1-1.8,0.1
			c-0.6,0-1.2,0.1-1.8,0.1c-0.6,0-1.1,0-1.5,0c-0.6,0-1.3-0.1-2-0.2c-0.7-0.1-1.4-0.4-2-0.7c-0.7-0.3-1.3-0.8-1.8-1.4
			c-0.6-0.6-1-1.3-1.4-2.1c-0.1-0.3-0.2-0.6-0.3-1c-0.1-0.4-0.1-0.8-0.1-1.2c0-0.5,0-0.9,0.1-1.3c0.1-0.4,0.2-0.8,0.2-1.2
			c0.3-1,0.7-2,1.4-3c0.6-1,1.4-2,2.3-3c0.9-1,1.9-1.9,2.9-2.8c1-0.9,2.1-1.7,3.2-2.5c1.1-0.8,2.2-1.5,3.3-2.1s2.1-1.2,3-1.6
			c1.3-0.6,2.6-1.1,3.9-1.4c1.3-0.3,2.7-0.4,4-0.4c0.8,0,1.5,0.1,2.2,0.3s1.3,0.5,1.9,0.9c0.5,0.4,1,0.9,1.3,1.5
			c0.3,0.6,0.5,1.2,0.5,2c0,0.4,0,0.8-0.1,1.1s-0.2,0.5-0.4,0.7c-0.2,0.2-0.3,0.3-0.5,0.4c-0.2,0.1-0.4,0.1-0.6,0.1
			c-0.5,0-1-0.1-1.5-0.2c-0.4-0.1-0.9-0.2-1.3-0.4c-0.4-0.1-0.8-0.3-1.2-0.4c-0.4-0.1-0.9-0.2-1.4-0.2c-1.4,0-2.9,0.3-4.4,0.9
			c-1.5,0.6-3,1.3-4.4,2.2c-1.4,0.9-2.8,1.9-4,3c-1.3,1.1-2.4,2.2-3.4,3.2c-0.5,0.5-0.9,1.1-1.2,1.6c-0.2,0.5-0.4,1.1-0.4,1.6
			c0,0.7,0.3,1.3,0.9,1.7c0.6,0.4,1.4,0.6,2.3,0.6c0.5,0,1.1,0,1.8,0c0.7,0,1.3,0,2-0.1s1.4-0.1,2-0.1c0.7,0,1.2,0,1.7,0
			c1.2,0,2.4,0.2,3.5,0.5s2.1,0.8,3,1.5c0.9,0.7,1.6,1.5,2.1,2.5s0.8,2.1,0.8,3.4c0,0.8-0.1,1.6-0.4,2.4c-0.2,0.8-0.6,1.6-1,2.4
			c-0.4,0.8-0.9,1.6-1.4,2.4c-0.5,0.8-1.1,1.6-1.7,2.3c-1.1,1.4-2.2,2.7-3.5,3.9c-1.3,1.2-2.7,2.3-4.2,3.2c-1.5,0.9-3,1.6-4.7,2.1
			c-1.6,0.5-3.3,0.8-5,0.8c-0.7,0-1.5-0.1-2.3-0.2c-0.8-0.1-1.6-0.3-2.3-0.6c-0.8-0.3-1.5-0.6-2.2-1s-1.3-0.9-1.8-1.4
			c-0.5-0.5-0.9-1.1-1.2-1.7c-0.3-0.6-0.5-1.3-0.5-2c0-0.4,0.1-0.7,0.2-1C321.4,376,321.7,375.9,322.1,375.9z"/>
		<path class="st3" d="M358.7,380.7c0.6-2.3,1.2-4.4,1.7-6.4c0.5-2,1.1-3.9,1.6-5.7c0.5-1.8,1-3.6,1.5-5.3c0.5-1.7,1-3.4,1.4-5.2
			c0.2-0.7,0.3-1.3,0.3-2s0.1-1.3,0.3-2c0.1-0.2,0.2-0.4,0.4-0.6s0.4-0.3,0.7-0.5c0.3-0.1,0.5-0.2,0.8-0.3c0.3-0.1,0.6-0.1,0.8-0.1
			c0.5,0,1,0.1,1.4,0.2c0.4,0.1,0.7,0.3,0.9,0.5c0.2,0.2,0.4,0.5,0.5,0.8c0.1,0.3,0.1,0.6,0.1,1c0,0.7-0.1,1.3-0.3,2
			c-0.2,0.7-0.5,1.4-0.8,2.2c0.9-0.7,1.9-1.4,2.8-2.1c1-0.6,2-1.2,3-1.7c1-0.5,2.1-0.9,3.2-1.2c1.1-0.3,2.2-0.4,3.3-0.4
			c0.5,0,1.1,0.1,1.6,0.2c0.5,0.2,1,0.4,1.4,0.8c0.4,0.4,0.8,0.8,1.1,1.4c0.3,0.6,0.4,1.3,0.5,2.1c0.8-0.6,1.7-1.1,2.6-1.7
			c0.9-0.6,1.8-1.1,2.7-1.6c0.9-0.5,1.9-0.8,2.8-1.1c0.9-0.3,1.8-0.4,2.7-0.4c1.3,0,2.4,0.2,3.2,0.5s1.5,0.8,2,1.4
			c0.5,0.6,0.9,1.2,1.1,2c0.2,0.8,0.3,1.6,0.3,2.4c0,0.9-0.1,1.9-0.3,2.9c-0.2,1-0.4,1.9-0.6,2.8c-0.6,2.3-1.2,4.4-1.9,6.4
			s-1.5,4.1-2.3,6.2c-0.2,0.5-0.4,1-0.6,1.6c-0.2,0.5-0.5,1.1-0.7,1.5c-0.3,0.5-0.6,0.8-1,1.1c-0.4,0.3-0.8,0.5-1.3,0.5
			c-1.2,0-1.9-0.2-2.4-0.6c-0.4-0.4-0.6-0.9-0.6-1.7c0-0.2,0-0.4,0-0.7s0.1-0.5,0.1-0.7c0.1-0.3,0.3-0.7,0.5-1.3
			c0.3-0.6,0.6-1.2,0.9-1.8c0.3-0.6,0.6-1.3,1-2s0.5-1.2,0.7-1.7c0.3-0.8,0.6-1.8,0.9-2.9c0.3-1.1,0.7-2.2,1-3.3
			c0.3-1.1,0.6-2.2,0.8-3.2s0.3-1.8,0.3-2.5c0-0.3,0-0.6-0.1-0.9c-0.1-0.3-0.2-0.5-0.3-0.8c-0.1-0.2-0.4-0.4-0.6-0.5
			c-0.3-0.1-0.6-0.2-1-0.2c-0.6,0-1.3,0.2-2.1,0.5c-0.8,0.3-1.7,0.8-2.5,1.3c-0.9,0.5-1.7,1.1-2.5,1.8s-1.5,1.3-2.1,2
			c-0.4,0.5-0.8,0.9-1.2,1.1c-0.4,0.3-0.7,0.5-1.1,0.7c0,0.1-0.1,0.3-0.3,0.8s-0.3,1-0.6,1.6c-0.2,0.6-0.4,1.3-0.7,2
			c-0.2,0.7-0.5,1.4-0.7,2s-0.4,1.1-0.5,1.6s-0.2,0.7-0.2,0.7c-0.1,0.5-0.3,1.1-0.4,1.7c-0.1,0.6-0.2,1.1-0.3,1.7
			c-0.1,0.5-0.2,1.1-0.2,1.7c-0.1,0.6-0.2,1.2-0.4,1.7c-0.2,0.5-0.5,0.9-0.9,1.3c-0.4,0.3-1,0.5-1.8,0.5c-0.4,0-0.7-0.1-1.1-0.3
			c-0.3-0.2-0.6-0.4-0.8-0.7c-0.2-0.3-0.4-0.6-0.6-1c-0.1-0.4-0.2-0.8-0.2-1.2c0.4-1.8,0.9-3.3,1.3-4.8c0.4-1.4,0.9-2.8,1.3-4.1
			s0.8-2.6,1.2-3.9c0.4-1.3,0.8-2.7,1.2-4.3c0.1-0.4,0.2-0.7,0.2-1.1c0.1-0.4,0.1-0.7,0.1-1c0-0.5-0.1-0.9-0.3-1.2
			c-0.2-0.3-0.5-0.5-1-0.5c-0.8,0-1.6,0.2-2.4,0.5c-0.8,0.3-1.6,0.8-2.6,1.5c-0.9,0.7-1.9,1.6-3.1,2.6c-1.1,1.1-2.4,2.3-3.9,3.8
			c-0.2,0.3-0.4,0.8-0.6,1.6c-0.3,0.8-0.5,1.7-0.8,2.6c-0.3,0.9-0.5,1.7-0.7,2.5c-0.2,0.8-0.4,1.3-0.4,1.5c-0.2,0.8-0.4,1.5-0.4,2.1
			c-0.1,0.6-0.1,1.1-0.2,1.5c0,0.2-0.1,0.6-0.2,1.2c-0.1,0.5-0.2,1.1-0.4,1.6c-0.2,0.5-0.5,1-0.9,1.5c-0.4,0.4-0.9,0.6-1.5,0.6
			c-0.9,0-1.6-0.2-2.2-0.7c-0.6-0.5-0.9-1.1-0.9-1.8c0-0.1,0-0.3,0-0.4C358.6,381,358.6,380.9,358.7,380.7z"/>
		<path class="st3" d="M424.5,381.4c0-0.6,0.1-1.2,0.2-2c0.1-0.8,0.2-1.8,0.2-3c-0.6,0.5-1.4,1-2.1,1.7c-0.8,0.6-1.6,1.3-2.4,1.9
			c-0.8,0.6-1.7,1.1-2.5,1.5c-0.8,0.4-1.6,0.6-2.3,0.6c-0.6,0-1.1-0.1-1.7-0.3s-1-0.4-1.4-0.7c-1-0.8-1.8-1.6-2.2-2.5
			c-0.5-0.8-0.7-1.8-0.7-2.9c0-0.5,0-1,0.1-1.5c0.1-0.5,0.2-1.1,0.4-1.8c0.7-3.1,2-6,3.8-8.6c1.8-2.6,4.1-4.9,6.7-6.7
			c1-0.7,2.1-1.2,3.1-1.4c1-0.2,2.1-0.3,3.1-0.3c0.5,0,1,0,1.5,0.1c0.6,0.1,1.1,0.1,1.5,0.2c0.5-0.1,0.8-0.2,1.1-0.2
			c0.3,0,0.6-0.1,0.9-0.1c0.6,0,1.1,0.1,1.5,0.2c0.4,0.2,0.7,0.4,0.9,0.6c0.2,0.3,0.4,0.6,0.5,0.9c0.1,0.3,0.2,0.7,0.2,1.1
			c0,0.5-0.1,1-0.2,1.5c-0.2,0.5-0.3,0.9-0.5,1.4l-3.9,15.5c-0.1,0.8-0.1,1.6-0.2,2.3c-0.1,0.7-0.2,1.4-0.4,2
			c-0.1,0.2-0.1,0.4-0.2,0.7c-0.1,0.3-0.2,0.5-0.4,0.8c-0.2,0.2-0.4,0.5-0.7,0.6c-0.3,0.2-0.7,0.3-1.1,0.3c-0.6,0-1.1,0-1.5-0.1
			c-0.4-0.1-0.6-0.2-0.8-0.3c-0.2-0.1-0.3-0.3-0.4-0.5C424.6,381.9,424.5,381.7,424.5,381.4z M414.8,372.5c-0.1,0.3-0.2,0.7-0.3,1.2
			c-0.1,0.5-0.1,1-0.1,1.5c0,0.5,0.1,1,0.2,1.4c0.2,0.4,0.5,0.6,1,0.6c0.8,0,1.6-0.2,2.3-0.5s1.4-0.8,2-1.3c0.8-0.7,1.7-1.5,2.6-2.3
			c0.9-0.9,1.7-1.7,2.5-2.7c0.8-0.9,1.5-1.9,2.1-2.9c0.6-1,1-2,1.3-3c0.2-0.6,0.3-1.2,0.4-2c0.1-0.7,0.2-1.4,0.2-2
			c0-0.3-0.1-0.5-0.2-0.7c-0.1-0.2-0.3-0.4-0.7-0.4c-1,0-1.9,0.2-2.9,0.6c-1,0.4-1.9,0.9-2.8,1.5s-1.8,1.4-2.6,2.2
			c-0.8,0.9-1.6,1.8-2.2,2.7c-0.7,1-1.2,2-1.7,3C415.4,370.6,415.1,371.6,414.8,372.5z"/>
		<path class="st3" d="M448.4,342.4c0.1-0.8,0.3-1.5,0.5-2.2c0.2-0.7,0.5-1.2,0.9-1.7s0.8-0.7,1.4-0.7c0.3,0,0.7,0.1,1,0.2
			c0.4,0.1,0.7,0.3,1.1,0.5c0.3,0.2,0.6,0.5,0.9,0.7c0.2,0.3,0.4,0.6,0.4,1c0,0.2,0,0.3-0.1,0.5s-0.1,0.4-0.1,0.6l-7.3,29.4
			c-0.3,1.2-0.5,2.3-0.7,3.4c-0.2,1.1-0.3,1.9-0.4,2.6v0.7c0,0.6,0,1.2-0.1,1.9c-0.1,0.7-0.2,1.3-0.4,1.9c-0.2,0.6-0.5,1.1-0.9,1.5
			s-0.9,0.6-1.5,0.6c-0.5,0-1-0.1-1.4-0.3s-0.7-0.5-1-0.9c-0.3-0.4-0.4-0.7-0.6-1.1c-0.1-0.4-0.2-0.8-0.2-1.1c0-0.3,0-0.7,0.1-1.2
			c0.1-0.5,0.1-0.9,0.2-1.4c0.1-0.5,0.2-1,0.3-1.5c0.1-0.5,0.2-0.9,0.3-1.3l7.6-30.1C448.2,343.9,448.3,343.2,448.4,342.4z"/>
		<path class="st3" d="M463.5,342.4c0.1-0.8,0.3-1.5,0.5-2.2c0.2-0.7,0.5-1.2,0.9-1.7s0.8-0.7,1.4-0.7c0.3,0,0.7,0.1,1,0.2
			c0.4,0.1,0.7,0.3,1.1,0.5c0.3,0.2,0.6,0.5,0.9,0.7c0.2,0.3,0.4,0.6,0.4,1c0,0.2,0,0.3-0.1,0.5s-0.1,0.4-0.1,0.6l-7.3,29.4
			c-0.3,1.2-0.5,2.3-0.7,3.4c-0.2,1.1-0.3,1.9-0.4,2.6v0.7c0,0.6,0,1.2-0.1,1.9c-0.1,0.7-0.2,1.3-0.4,1.9c-0.2,0.6-0.5,1.1-0.9,1.5
			s-0.9,0.6-1.5,0.6c-0.5,0-1-0.1-1.4-0.3s-0.7-0.5-1-0.9c-0.3-0.4-0.4-0.7-0.6-1.1c-0.1-0.4-0.2-0.8-0.2-1.1c0-0.3,0-0.7,0.1-1.2
			c0.1-0.5,0.1-0.9,0.2-1.4c0.1-0.5,0.2-1,0.3-1.5c0.1-0.5,0.2-0.9,0.3-1.3l7.6-30.1C463.4,343.9,463.4,343.2,463.5,342.4z"/>
		<path class="st3" d="M469.3,371.3c0-0.8,0.2-1.6,0.7-2.1c0.5-0.6,1-1,1.8-1.2c0.2-0.4,0.5-1,1-1.7c0.5-0.7,1-1.5,1.7-2.4
			c0.7-0.9,1.4-1.7,2.3-2.6c0.9-0.9,1.8-1.7,2.8-2.4s2.1-1.3,3.3-1.7s2.4-0.7,3.8-0.7c1.1,0,2.1,0.1,3,0.4s1.5,0.7,2.1,1.1
			s1,1.1,1.2,1.7c0.3,0.7,0.4,1.4,0.4,2.2c0,0.7-0.1,1.3-0.3,1.9c-0.3,1.1-0.8,2.1-1.5,2.9c-0.7,0.8-1.6,1.5-2.6,2.2
			c-1,0.6-2.1,1.1-3.3,1.5s-2.4,0.8-3.6,1c-1.2,0.3-2.3,0.5-3.4,0.6c-1.1,0.1-2,0.3-2.8,0.3c-0.2,0.4-0.3,0.8-0.5,1.3
			c-0.1,0.5-0.2,1.1-0.2,1.6c0,1.1,0.5,2,1.4,2.6c0.9,0.6,2.1,0.9,3.7,0.9c0.9,0,1.8-0.1,2.6-0.3s1.6-0.5,2.4-0.8
			c0.8-0.3,1.5-0.7,2.1-1.1c0.7-0.4,1.3-0.8,1.8-1.1c0.7-0.5,1.4-0.9,2-1.2c0.6-0.3,1.2-0.5,1.7-0.5s0.8,0.1,0.9,0.4
			c0.1,0.2,0.2,0.5,0.2,0.8c0,0.2,0,0.3,0,0.5c0,0.1,0,0.3,0,0.4c-0.1,0.5-0.3,1-0.6,1.5c-0.3,0.5-0.7,0.9-1.1,1.3
			c-2,1.6-4.1,2.8-6.3,3.4c-2.1,0.7-4.4,1-6.9,1c-0.5,0-1,0-1.7-0.1s-1.3-0.2-2-0.4c-0.7-0.2-1.4-0.4-2-0.8
			c-0.7-0.3-1.3-0.8-1.8-1.3c-0.5-0.5-0.9-1.2-1.3-2c-0.3-0.8-0.5-1.8-0.5-2.9c0-0.9,0.1-1.9,0.4-3.1c-0.3,0-0.5-0.2-0.7-0.4
			C469.4,372.1,469.3,371.8,469.3,371.3z M487.7,363.2c0-0.1,0.1-0.2,0.1-0.3s0-0.2,0-0.3c0-0.5-0.2-0.9-0.6-1.2s-0.9-0.4-1.4-0.4
			c-0.9,0-1.7,0.2-2.5,0.7c-0.8,0.5-1.6,1-2.3,1.7c-0.7,0.7-1.4,1.4-2,2.2c-0.6,0.8-1,1.5-1.3,2.1c1.4-0.1,2.7-0.3,3.9-0.6
			c1.2-0.3,2.2-0.6,3.1-1c0.9-0.4,1.6-0.9,2.1-1.4C487.2,364.3,487.5,363.8,487.7,363.2z"/>
		<path class="st3" d="M500,379.6c0.3-1.4,0.5-2.9,0.9-4.5c0.3-1.6,0.7-3.3,1-5c0.4-1.7,0.7-3.3,1-5c0.3-1.6,0.6-3.1,0.9-4.5
			c0-0.2,0-0.4,0-0.5c0-0.1,0-0.3,0-0.5c0-0.6,0-1.2,0.1-1.8c0.1-0.6,0.2-1.2,0.3-1.7c0.2-0.7,0.5-1.2,0.7-1.5
			c0.3-0.3,0.7-0.4,1.3-0.4c0.6,0,1,0.1,1.4,0.3s0.6,0.5,0.8,0.9c0.2,0.4,0.3,0.8,0.4,1.3c0.1,0.5,0.1,1,0.1,1.5c0,0.3,0,0.6,0,0.9
			c0,0.3,0,0.6,0,0.8c0.5-0.6,1.1-1.1,1.7-1.7c0.6-0.6,1.3-1.1,2-1.6c0.7-0.5,1.4-0.9,2.2-1.2c0.8-0.3,1.6-0.5,2.4-0.5
			c0.3,0,0.7,0,1,0.1c0.3,0.1,0.7,0.1,1,0.2c0.4,0.1,0.8,0.2,1.2,0.4c0.4,0.2,0.8,0.4,1.2,0.7c0.6,0.5,1.2,1.1,1.6,1.8
			c0.4,0.7,0.7,1.5,0.7,2.2c0,0.3-0.1,0.6-0.2,1c-0.1,0.3-0.3,0.7-0.5,0.9c-0.2,0.3-0.4,0.5-0.7,0.7c-0.3,0.2-0.6,0.3-0.9,0.3
			s-0.7-0.1-1.2-0.3c-0.5-0.2-0.9-0.4-1.2-0.7c-0.1-0.1-0.3-0.3-0.4-0.5c-0.1-0.2-0.3-0.4-0.4-0.6c-0.1-0.2-0.2-0.4-0.4-0.6
			s-0.2-0.3-0.2-0.4c-0.1,0-0.2,0-0.3,0s-0.2,0-0.3,0c-1,0-1.9,0.3-2.8,0.8c-0.9,0.5-1.7,1.1-2.5,1.9c-0.8,0.7-1.5,1.5-2.2,2.3
			c-0.7,0.8-1.2,1.6-1.7,2.2c-0.4,1.6-0.8,3.3-1.3,5.1c-0.5,1.8-1,3.7-1.4,5.6v0.7c0,0.6,0,1.2-0.1,1.8c0,0.6-0.2,1.1-0.4,1.6
			c-0.2,0.3-0.5,0.5-0.9,0.7c-0.4,0.2-0.9,0.3-1.4,0.3c-0.8,0-1.4-0.3-1.8-0.8c-0.4-0.5-0.6-1.2-0.6-1.9
			C499.9,380.3,499.9,380,500,379.6z"/>
		<path class="st3" d="M330.4,420h2.6v3.3c-0.4,0.2-1.3,0.4-2.8,0.5c-1.5,0.1-2.8,0.2-4.1,0.2c-5.4,0-8.1-1.7-8.1-5.1v-8.7
			c0-1.1,0.3-2,0.8-2.8c0.6-0.8,1.3-1.3,2.2-1.7s1.8-0.6,2.6-0.8c0.8-0.1,1.6-0.2,2.5-0.2c1.1,0,2.4,0.1,4,0.3
			c1.5,0.2,2.5,0.4,2.9,0.6v3.5h-2.6v-1.2c-0.8-0.3-2.1-0.4-3.9-0.4H326c-0.3,0-0.7,0-1.1,0.1c-0.4,0.1-0.9,0.2-1.5,0.3
			c-0.6,0.2-1.1,0.5-1.5,1s-0.6,1.1-0.6,1.8v7.9c0,0.7,0.2,1.2,0.6,1.7c0.4,0.4,0.9,0.7,1.5,0.9c0.6,0.2,1.1,0.3,1.5,0.3
			s0.7,0.1,1.1,0.1h1c1.6,0,2.7-0.2,3.4-0.5V420z"/>
		<path class="st3" d="M346.5,412.7c-0.6,0-1.6,0.1-2.8,0.3s-2,0.4-2.3,0.7v8h2.2v2.3h-7v-2.3h1.4v-9.2h-1.4v-2.3h4.8v1.1
			c1.3-0.9,3-1.3,5.1-1.3V412.7z"/>
		<path class="st3" d="M357.5,421.5c0.9-0.1,1.6-0.4,2.1-0.6l0.8,2.3c-1,0.7-2.6,1-5,1c-4.4,0-6.6-1.4-6.6-4.1v-5.5
			c0-3,2-4.6,5.9-4.6c3.9,0,5.8,1.5,5.8,4.6v3.8h-8.4v1.3c0,0.5,0.2,1,0.7,1.3c0.4,0.3,0.9,0.5,1.3,0.6s0.8,0.1,1.2,0.1
			C355.8,421.7,356.6,421.6,357.5,421.5z M357.1,415.7v-1.1c0-1.3-0.8-1.9-2.4-1.9c-1.7,0-2.6,0.6-2.6,1.9v1.1H357.1z"/>
		<path class="st3" d="M372.7,413c-0.5-0.2-1.2-0.3-2-0.3h-0.5c-1.9,0-2.9,0.6-2.9,1.9v5.2c0,1.2,1,1.9,2.9,1.9h0.4
			c1,0,1.7-0.1,2.1-0.3V420h2.6v3.3c-1.9,0.5-3.6,0.8-5.2,0.8c-0.8,0-1.5,0-2.2-0.1c-0.6-0.1-1.3-0.2-1.9-0.5s-1.2-0.7-1.6-1.2
			s-0.6-1.3-0.6-2.1v-5.6c0-0.9,0.2-1.7,0.6-2.3c0.4-0.6,0.9-1.1,1.6-1.4c0.7-0.3,1.3-0.5,2-0.7s1.4-0.2,2.2-0.2
			c1.7,0,3.4,0.4,5.1,1.1v3.1h-2.6V413z"/>
		<path class="st3" d="M388.6,414.4c0,0,0-0.1,0-0.2c0-0.1-0.1-0.2-0.2-0.4c-0.1-0.2-0.2-0.4-0.4-0.5c-0.2-0.1-0.4-0.3-0.8-0.4
			c-0.4-0.1-0.8-0.2-1.3-0.2s-1,0.1-1.7,0.3c-0.7,0.2-1.1,0.4-1.4,0.7v8h1.4v2.3H378v-2.3h1.5v-13.9H378V405h4.8v6.2
			c0.7-0.5,1.4-0.8,1.9-1c0.5-0.2,1.2-0.3,2.2-0.3c1.7,0,3,0.4,3.8,1.1s1.2,1.8,1.2,3.3v7.3h1.5v2.3h-6.3v-2.3h1.5V414.4z"/>
		<path class="st3" d="M404.5,421.5c0.9-0.1,1.6-0.4,2.1-0.6l0.8,2.3c-1,0.7-2.6,1-5,1c-4.4,0-6.6-1.4-6.6-4.1v-5.5
			c0-3,2-4.6,5.9-4.6c3.9,0,5.8,1.5,5.8,4.6v3.8h-8.4v1.3c0,0.5,0.2,1,0.7,1.3s0.9,0.5,1.3,0.6c0.4,0.1,0.8,0.1,1.2,0.1
			C402.9,421.7,403.6,421.6,404.5,421.5z M404.2,415.7v-1.1c0-1.3-0.8-1.9-2.4-1.9c-1.7,0-2.6,0.6-2.6,1.9v1.1H404.2z"/>
		<path class="st3" d="M426.8,421.5c0.9-0.1,1.6-0.4,2.1-0.6l0.8,2.3c-1,0.7-2.6,1-5,1c-4.4,0-6.6-1.4-6.6-4.1v-5.5
			c0-3,2-4.6,5.9-4.6c3.9,0,5.8,1.5,5.8,4.6v3.8h-8.4v1.3c0,0.5,0.2,1,0.7,1.3s0.9,0.5,1.3,0.6c0.4,0.1,0.8,0.1,1.2,0.1
			C425.2,421.7,425.9,421.6,426.8,421.5z M426.5,415.7v-1.1c0-1.3-0.8-1.9-2.4-1.9c-1.7,0-2.6,0.6-2.6,1.9v1.1H426.5z"/>
		<path class="st3" d="M453.7,416.3h-8.2v5.2h7.6v-1.7h2.6v4.1h-15.1v-2.4h1.6v-14.2h-1.6V405h15.1v4.1h-2.6v-1.2h-7.6v5.5h8.2
			V416.3z"/>
		<path class="st3" d="M462.9,415.6c0.8,0.4,1.8,0.6,2.8,0.9c1,0.2,2,0.6,2.8,1.2c0.8,0.6,1.3,1.3,1.3,2.2v0.5c0,0.9-0.3,1.7-1,2.3
			s-1.4,0.9-2.2,1.1c-0.8,0.2-1.7,0.3-2.8,0.3c-1.1,0-2.1-0.1-3.1-0.4c-1-0.2-1.8-0.5-2.4-0.8v-3.4h2.6v1.5c0.9,0.4,1.8,0.6,2.7,0.6
			c1.9,0,2.8-0.4,2.8-1.2v-0.3c0-0.4-0.4-0.8-1.3-1.1c-0.8-0.3-1.8-0.6-2.8-0.8c-1-0.2-2-0.7-2.8-1.3c-0.8-0.6-1.3-1.5-1.3-2.4V414
			c0-0.9,0.2-1.6,0.5-2.2s0.9-1,1.5-1.2c0.7-0.3,1.3-0.4,1.9-0.5c0.6-0.1,1.3-0.1,2.1-0.1c0.6,0,1.4,0.1,2.2,0.2s1.4,0.2,1.9,0.4
			l0.7,0.2v3.4h-2.6V413c-0.5-0.2-1.1-0.2-1.8-0.2h-0.1c-1.2,0-2,0.1-2.4,0.3c-0.4,0.2-0.6,0.5-0.6,1v0.4
			C461.6,414.9,462,415.3,462.9,415.6z"/>
		<path class="st3" d="M481.6,413c-0.5-0.2-1.2-0.3-2-0.3h-0.5c-1.9,0-2.9,0.6-2.9,1.9v5.2c0,1.2,1,1.9,2.9,1.9h0.4
			c1,0,1.7-0.1,2.1-0.3V420h2.6v3.3c-1.9,0.5-3.6,0.8-5.2,0.8c-0.8,0-1.5,0-2.2-0.1s-1.3-0.2-1.9-0.5s-1.2-0.7-1.6-1.2
			c-0.4-0.6-0.5-1.3-0.5-2.1v-5.6c0-0.9,0.2-1.7,0.6-2.3c0.4-0.6,0.9-1.1,1.6-1.4s1.3-0.5,2-0.7c0.7-0.1,1.4-0.2,2.2-0.2
			c1.7,0,3.4,0.4,5.1,1.1v3.1h-2.6V413z"/>
		<path class="st3" d="M499.7,414.5v5.5c0,2.8-2,4.1-6,4.1c-4,0-6-1.4-6-4.1v-5.5c0-3,2-4.6,6-4.6
			C497.7,409.9,499.7,411.5,499.7,414.5z M496.3,419.6v-5c0-1.3-0.9-1.9-2.7-1.9c-1.8,0-2.6,0.6-2.6,1.9v5c0,1.4,0.9,2,2.6,2
			C495.5,421.7,496.3,421,496.3,419.6z"/>
		<path class="st3" d="M503.1,421.7h1.4v-14.4h-1.4V405h4.8v16.6h1.4v2.3h-6.2V421.7z"/>
		<path class="st3" d="M512.8,421.7h1.4v-9.2h-1.4v-2.3h4.8v11.5h1.4v2.3h-6.2V421.7z M514.5,405.9c0.3-0.3,0.8-0.5,1.3-0.5
			s0.9,0.2,1.3,0.5s0.5,0.8,0.5,1.3s-0.2,0.9-0.5,1.3c-0.3,0.3-0.8,0.5-1.3,0.5s-0.9-0.2-1.3-0.5c-0.3-0.3-0.5-0.8-0.5-1.3
			S514.2,406.2,514.5,405.9z"/>
		<path class="st3" d="M532.6,414.4c0,0,0-0.1,0-0.2c0-0.1-0.1-0.2-0.2-0.4c-0.1-0.2-0.2-0.4-0.4-0.5c-0.2-0.1-0.4-0.3-0.8-0.4
			c-0.4-0.1-0.8-0.2-1.3-0.2s-1,0.1-1.7,0.3s-1.1,0.4-1.4,0.7v8h1.5v2.3h-6.3v-2.3h1.4v-9.2h-1.4v-2.3h4.8v1.1
			c0.7-0.5,1.4-0.8,1.9-1c0.5-0.2,1.3-0.3,2.2-0.3c1.7,0,3,0.4,3.8,1.1s1.2,1.8,1.2,3.3v7.3h1.5v2.3h-6.3v-2.3h1.4V414.4z"/>
		<path class="st3" d="M551,414.4c0,0,0-0.1,0-0.2c0-0.1-0.1-0.2-0.2-0.4c-0.1-0.2-0.2-0.4-0.4-0.5c-0.2-0.1-0.4-0.3-0.8-0.4
			c-0.4-0.1-0.8-0.2-1.3-0.2c-0.5,0-1,0.1-1.7,0.3s-1.1,0.4-1.4,0.7v8h1.4v2.3h-6.3v-2.3h1.5v-13.9h-1.5V405h4.8v6.2
			c0.7-0.5,1.4-0.8,1.9-1c0.5-0.2,1.2-0.3,2.2-0.3c1.7,0,3,0.4,3.8,1.1c0.8,0.7,1.2,1.8,1.2,3.3v7.3h1.5v2.3h-6.3v-2.3h1.5V414.4z"
			/>
		<path class="st3" d="M571.7,421.7v2.3h-4.3v-1.1c-1,0.9-2.6,1.3-4.7,1.3c-1.3,0-2.3-0.3-3-0.8c-0.7-0.5-1.1-1.4-1.1-2.6v-0.9
			c0-0.4,0.1-0.8,0.2-1.1s0.3-0.6,0.6-0.9c0.3-0.3,0.6-0.5,0.8-0.7s0.6-0.4,1.2-0.5c0.5-0.1,0.9-0.3,1.3-0.4
			c0.3-0.1,0.8-0.2,1.5-0.3c0.7-0.1,1.2-0.2,1.5-0.2c0.3,0,0.9-0.1,1.6-0.2v-1c0-1.2-0.9-1.9-2.8-1.9h-0.3c-1.3,0-2.1,0.1-2.5,0.3v1
			h-2.6v-3.3c1.8-0.6,3.6-0.9,5.3-0.9c0.8,0,1.5,0.1,2.2,0.2c0.6,0.1,1.3,0.3,1.9,0.6c0.7,0.3,1.2,0.8,1.5,1.5
			c0.4,0.7,0.5,1.5,0.5,2.6v6.9H571.7z M567.3,418.3c-3.6,0-5.3,0.6-5.3,1.7v0.5c0,0.8,0.5,1.2,1.6,1.2c1.6,0,2.9-0.5,3.7-1.5V418.3
			z"/>
	</g>
	<g class="st2">
		<path class="st4" d="M255.9,418.2h27.1c0,0-13.7-25.5-6-88.5c0.4-3-12.1,0-12.1,0L255.9,418.2z"/>
		<ellipse class="st5" cx="269.5" cy="319.3" rx="31.3" ry="16"/>
		<ellipse class="st5" cx="295.9" cy="323" rx="31.3" ry="16"/>
		<ellipse class="st5" cx="284.6" cy="304.2" rx="31.3" ry="16"/>
	</g>
</g>
<g id="Camada_2">
	<ellipse class="st6" cx="1185.1" cy="335.6" rx="1184.6" ry="320.4"/>
	<g>
		<defs>
			<ellipse id="SVGID_1_" cx="1185.1" cy="335.6" rx="1184.6" ry="320.4"/>
		</defs>
		<clipPath id="SVGID_2_">
			<use xlink:href="#SVGID_1_"  style="overflow:visible;"/>
		</clipPath>
		<g class="st7">
			<path class="st8" d="M2333,547.9c0,0-342-191.5-515.8-253.2c-131.9-46.9-374.4-97.5-627.9-99.1c-253.5,1.6-496.1,52.2-627.9,99.1
				C387.4,356.4,45.4,547.9,45.4,547.9"/>
			<path class="st9" d="M2333,586.9c0,0-342-191.5-515.8-253.2c-131.9-46.9-374.4-97.5-627.9-99.1c-253.5,1.6-496.1,52.2-627.9,99.1
				C387.4,395.5,45.4,586.9,45.4,586.9"/>
			<path class="st10" d="M2333,505.1c0,0-340.5-194.8-515.8-253.2c-133.1-44.4-374.4-93.3-627.9-94.9
				c-253.5,1.6-490.5,48.6-627.9,94.9c-175.1,59-515.8,253.2-515.8,253.2"/>
			<path class="st11" d="M2333,465.9c0,0-340.5-194.8-515.8-253.2c-133.1-44.4-374.4-93.3-627.9-94.9
				c-253.5,1.6-490.5,48.6-627.9,94.9c-175.1,59-515.8,253.2-515.8,253.2"/>
			<path class="st12" d="M2333,431.5c0,0-340.5-194.8-515.8-253.2c-133.1-44.4-374.4-93.3-627.9-94.9
				c-253.5,1.6-490.5,48.6-627.9,94.9c-175.1,59-515.8,253.2-515.8,253.2"/>
		</g>
	</g>
</g>
</svg>
