<?xml version="1.0" encoding="utf-8"?>
<!-- Generator: Adobe Illustrator 22.0.1, SVG Export Plug-In . SVG Version: 6.00 Build 0)  -->
<svg version="1.1" xmlns="http://www.w3.org/2000/svg" xmlns:xlink="http://www.w3.org/1999/xlink" x="0px" y="0px"
	 viewBox="0 0 507.7 216.7" style="enable-background:new 0 0 507.7 216.7;" xml:space="preserve">
<style type="text/css">
	.st0{fill:#FBB03B;stroke:#FFFFFF;stroke-width:10;stroke-miterlimit:10;}
	.st1{fill:#FFFFFF;}
	.st2{fill:#775B3C;}
	.st3{fill:#59753C;}
	.st4{display:none;}
	.st5{display:inline;fill:#1C88A5;}
	.st6{display:inline;opacity:0.41;}
	.st7{fill:none;stroke:#52AE33;stroke-width:40;stroke-miterlimit:10;}
	.st8{fill:none;stroke:#03CBB1;stroke-width:40;stroke-miterlimit:10;}
	.st9{fill:none;stroke:#ECE425;stroke-width:40;stroke-miterlimit:10;}
	.st10{fill:none;stroke:#F18513;stroke-width:40;stroke-miterlimit:10;}
	.st11{fill:none;stroke:#F30B14;stroke-width:40;stroke-miterlimit:10;}
</style>
<g id="Camada_1">
	<ellipse class="st0" cx="253.5" cy="108.8" rx="245.7" ry="100.9"/>
	<g>
		<path class="st1" d="M188.4,113.9c0.7,0.2,1.3,0.5,2,0.8c0.7,0.3,1.4,0.6,2.2,0.9c0.7,0.3,1.5,0.5,2.3,0.7
			c0.8,0.2,1.7,0.3,2.6,0.3c1.1,0,2.2-0.1,3.3-0.4c1.1-0.3,2.2-0.6,3.2-1.1c1-0.5,2.1-1.1,3-1.8c1-0.7,1.8-1.5,2.6-2.5
			c0.9-1,1.6-1.9,2.2-2.7c0.6-0.8,1.1-1.5,1.4-2.2c0.4-0.6,0.6-1.2,0.8-1.6c0.2-0.5,0.2-0.9,0.2-1.2c0-0.5-0.2-0.9-0.5-1.3
			c-0.3-0.4-0.8-0.7-1.3-0.9c-0.6-0.2-1.2-0.4-1.9-0.5c-0.7-0.1-1.4-0.2-2.2-0.2c-0.5,0-1,0-1.6,0c-0.6,0-1.2,0.1-1.8,0.1
			c-0.6,0-1.2,0.1-1.8,0.1c-0.6,0-1.1,0-1.5,0c-0.6,0-1.3-0.1-2-0.2c-0.7-0.1-1.4-0.4-2-0.7c-0.7-0.3-1.3-0.8-1.8-1.4
			c-0.6-0.6-1-1.3-1.4-2.1c-0.1-0.3-0.2-0.6-0.3-1c-0.1-0.4-0.1-0.8-0.1-1.2c0-0.5,0-0.9,0.1-1.3c0.1-0.4,0.2-0.8,0.2-1.2
			c0.3-1,0.7-2,1.4-3c0.6-1,1.4-2,2.3-3c0.9-1,1.9-1.9,2.9-2.8c1-0.9,2.1-1.7,3.2-2.5c1.1-0.8,2.2-1.5,3.3-2.1s2.1-1.2,3-1.6
			c1.3-0.6,2.6-1.1,3.9-1.4c1.3-0.3,2.7-0.4,4-0.4c0.8,0,1.5,0.1,2.2,0.3s1.3,0.5,1.9,0.9c0.5,0.4,1,0.9,1.3,1.5
			c0.3,0.6,0.5,1.2,0.5,2c0,0.4,0,0.8-0.1,1.1s-0.2,0.5-0.4,0.7c-0.2,0.2-0.3,0.3-0.5,0.4c-0.2,0.1-0.4,0.1-0.6,0.1
			c-0.5,0-1-0.1-1.5-0.2c-0.4-0.1-0.9-0.2-1.3-0.4c-0.4-0.1-0.8-0.3-1.2-0.4c-0.4-0.1-0.9-0.2-1.4-0.2c-1.4,0-2.9,0.3-4.4,0.9
			c-1.5,0.6-3,1.3-4.4,2.2c-1.4,0.9-2.8,1.9-4,3c-1.3,1.1-2.4,2.2-3.4,3.2c-0.5,0.5-0.9,1.1-1.2,1.6c-0.2,0.5-0.4,1.1-0.4,1.6
			c0,0.7,0.3,1.3,0.9,1.7c0.6,0.4,1.4,0.6,2.3,0.6c0.5,0,1.1,0,1.8,0c0.7,0,1.3,0,2-0.1s1.4-0.1,2-0.1c0.7,0,1.2,0,1.7,0
			c1.2,0,2.4,0.2,3.5,0.5s2.1,0.8,3,1.5c0.9,0.7,1.6,1.5,2.1,2.5s0.8,2.1,0.8,3.4c0,0.8-0.1,1.6-0.4,2.4c-0.2,0.8-0.6,1.6-1,2.4
			c-0.4,0.8-0.9,1.6-1.4,2.4c-0.5,0.8-1.1,1.6-1.7,2.3c-1.1,1.4-2.2,2.7-3.5,3.9c-1.3,1.2-2.7,2.3-4.2,3.2c-1.5,0.9-3,1.6-4.7,2.1
			c-1.6,0.5-3.3,0.8-5,0.8c-0.7,0-1.5-0.1-2.3-0.2c-0.8-0.1-1.6-0.3-2.3-0.6c-0.8-0.3-1.5-0.6-2.2-1s-1.3-0.9-1.8-1.4
			c-0.5-0.5-0.9-1.1-1.2-1.7c-0.3-0.6-0.5-1.3-0.5-2c0-0.4,0.1-0.7,0.2-1C187.7,114,187.9,113.9,188.4,113.9z"/>
		<path class="st1" d="M224.9,118.7c0.6-2.3,1.2-4.4,1.7-6.4c0.5-2,1.1-3.9,1.6-5.7c0.5-1.8,1-3.6,1.5-5.3c0.5-1.7,1-3.4,1.4-5.2
			c0.2-0.7,0.3-1.3,0.3-2s0.1-1.3,0.3-2c0.1-0.2,0.2-0.4,0.4-0.6s0.4-0.3,0.7-0.5c0.3-0.1,0.5-0.2,0.8-0.3c0.3-0.1,0.6-0.1,0.8-0.1
			c0.5,0,1,0.1,1.4,0.2c0.4,0.1,0.7,0.3,0.9,0.5c0.2,0.2,0.4,0.5,0.5,0.8c0.1,0.3,0.1,0.6,0.1,1c0,0.7-0.1,1.3-0.3,2
			c-0.2,0.7-0.5,1.4-0.8,2.2c0.9-0.7,1.9-1.4,2.8-2.1c1-0.6,2-1.2,3-1.7c1-0.5,2.1-0.9,3.2-1.2c1.1-0.3,2.2-0.4,3.3-0.4
			c0.5,0,1.1,0.1,1.6,0.2c0.5,0.2,1,0.4,1.4,0.8c0.4,0.4,0.8,0.8,1.1,1.4c0.3,0.6,0.4,1.3,0.5,2.1c0.8-0.6,1.7-1.1,2.6-1.7
			c0.9-0.6,1.8-1.1,2.7-1.6c0.9-0.5,1.9-0.8,2.8-1.1c0.9-0.3,1.8-0.4,2.7-0.4c1.3,0,2.4,0.2,3.2,0.5s1.5,0.8,2,1.4
			c0.5,0.6,0.9,1.2,1.1,2c0.2,0.8,0.3,1.6,0.3,2.4c0,0.9-0.1,1.9-0.3,2.9c-0.2,1-0.4,1.9-0.6,2.8c-0.6,2.3-1.2,4.4-1.9,6.4
			s-1.5,4.1-2.3,6.2c-0.2,0.5-0.4,1-0.6,1.6c-0.2,0.5-0.5,1.1-0.7,1.5c-0.3,0.5-0.6,0.8-1,1.1c-0.4,0.3-0.8,0.5-1.3,0.5
			c-1.2,0-1.9-0.2-2.4-0.6c-0.4-0.4-0.6-0.9-0.6-1.7c0-0.2,0-0.4,0-0.7s0.1-0.5,0.1-0.7c0.1-0.3,0.3-0.7,0.5-1.3
			c0.3-0.6,0.6-1.2,0.9-1.8c0.3-0.6,0.6-1.3,1-2s0.5-1.2,0.7-1.7c0.3-0.8,0.6-1.8,0.9-2.9c0.3-1.1,0.7-2.2,1-3.3
			c0.3-1.1,0.6-2.2,0.8-3.2s0.3-1.8,0.3-2.5c0-0.3,0-0.6-0.1-0.9c-0.1-0.3-0.2-0.5-0.3-0.8c-0.1-0.2-0.4-0.4-0.6-0.5
			c-0.3-0.1-0.6-0.2-1-0.2c-0.6,0-1.3,0.2-2.1,0.5c-0.8,0.3-1.7,0.8-2.5,1.3c-0.9,0.5-1.7,1.1-2.5,1.8c-0.8,0.7-1.5,1.3-2.1,2
			c-0.4,0.5-0.8,0.9-1.2,1.1c-0.4,0.3-0.7,0.5-1.1,0.7c0,0.1-0.1,0.3-0.3,0.8s-0.3,1-0.6,1.6c-0.2,0.6-0.4,1.3-0.7,2
			c-0.2,0.7-0.5,1.4-0.7,2s-0.4,1.1-0.5,1.6s-0.2,0.7-0.2,0.7c-0.1,0.5-0.3,1.1-0.4,1.7c-0.1,0.6-0.2,1.1-0.3,1.7
			c-0.1,0.5-0.2,1.1-0.2,1.7c-0.1,0.6-0.2,1.2-0.4,1.7c-0.2,0.5-0.5,0.9-0.9,1.3c-0.4,0.3-1,0.5-1.8,0.5c-0.4,0-0.7-0.1-1.1-0.3
			c-0.3-0.2-0.6-0.4-0.8-0.7c-0.2-0.3-0.4-0.6-0.6-1c-0.1-0.4-0.2-0.8-0.2-1.2c0.4-1.8,0.9-3.3,1.3-4.8c0.4-1.4,0.9-2.8,1.3-4.1
			s0.8-2.6,1.2-3.9c0.4-1.3,0.8-2.7,1.2-4.3c0.1-0.4,0.2-0.7,0.2-1.1c0.1-0.4,0.1-0.7,0.1-1c0-0.5-0.1-0.9-0.3-1.2
			c-0.2-0.3-0.5-0.5-1-0.5c-0.8,0-1.6,0.2-2.4,0.5c-0.8,0.3-1.6,0.8-2.6,1.5c-0.9,0.7-1.9,1.6-3.1,2.6c-1.1,1.1-2.4,2.3-3.9,3.8
			c-0.2,0.3-0.4,0.8-0.6,1.6c-0.3,0.8-0.5,1.7-0.8,2.6c-0.3,0.9-0.5,1.7-0.7,2.5c-0.2,0.8-0.4,1.3-0.4,1.5c-0.2,0.8-0.4,1.5-0.4,2.1
			c-0.1,0.6-0.1,1.1-0.2,1.5c0,0.2-0.1,0.6-0.2,1.2c-0.1,0.5-0.2,1.1-0.4,1.6c-0.2,0.5-0.5,1-0.9,1.5c-0.4,0.4-0.9,0.6-1.5,0.6
			c-0.9,0-1.6-0.2-2.2-0.7c-0.6-0.5-0.9-1.1-0.9-1.8c0-0.1,0-0.3,0-0.4C224.8,119,224.9,118.9,224.9,118.7z"/>
		<path class="st1" d="M290.8,119.4c0-0.6,0.1-1.2,0.2-2c0.1-0.8,0.2-1.8,0.2-3c-0.6,0.5-1.4,1-2.1,1.7c-0.8,0.6-1.6,1.3-2.4,1.9
			c-0.8,0.6-1.7,1.1-2.5,1.5c-0.8,0.4-1.6,0.6-2.3,0.6c-0.6,0-1.1-0.1-1.7-0.3s-1-0.4-1.4-0.7c-1-0.8-1.8-1.6-2.2-2.5
			c-0.5-0.8-0.7-1.8-0.7-2.9c0-0.5,0-1,0.1-1.5c0.1-0.5,0.2-1.1,0.4-1.8c0.7-3.1,2-6,3.8-8.6c1.8-2.6,4.1-4.9,6.7-6.7
			c1-0.7,2.1-1.2,3.1-1.4c1-0.2,2.1-0.3,3.1-0.3c0.5,0,1,0,1.5,0.1c0.6,0.1,1.1,0.1,1.5,0.2c0.5-0.1,0.8-0.2,1.1-0.2
			c0.3,0,0.6-0.1,0.9-0.1c0.6,0,1.1,0.1,1.5,0.2c0.4,0.2,0.7,0.4,0.9,0.6c0.2,0.3,0.4,0.6,0.5,0.9c0.1,0.3,0.2,0.7,0.2,1.1
			c0,0.5-0.1,1-0.2,1.5c-0.2,0.5-0.3,0.9-0.5,1.4l-3.9,15.5c-0.1,0.8-0.1,1.6-0.2,2.3c-0.1,0.7-0.2,1.4-0.4,2
			c-0.1,0.2-0.1,0.4-0.2,0.7c-0.1,0.3-0.2,0.5-0.4,0.8c-0.2,0.2-0.4,0.5-0.7,0.6c-0.3,0.2-0.7,0.3-1.1,0.3c-0.6,0-1.1,0-1.5-0.1
			c-0.4-0.1-0.6-0.2-0.8-0.3c-0.2-0.1-0.3-0.3-0.4-0.5C290.8,119.9,290.8,119.7,290.8,119.4z M281,110.5c-0.1,0.3-0.2,0.7-0.3,1.2
			c-0.1,0.5-0.1,1-0.1,1.5c0,0.5,0.1,1,0.2,1.4c0.2,0.4,0.5,0.6,1,0.6c0.8,0,1.6-0.2,2.3-0.5s1.4-0.8,2-1.3c0.8-0.7,1.7-1.5,2.6-2.3
			c0.9-0.9,1.7-1.7,2.5-2.7c0.8-0.9,1.5-1.9,2.1-2.9c0.6-1,1-2,1.3-3c0.2-0.6,0.3-1.2,0.4-2c0.1-0.7,0.2-1.4,0.2-2
			c0-0.3-0.1-0.5-0.2-0.7c-0.1-0.2-0.3-0.4-0.7-0.4c-1,0-1.9,0.2-2.9,0.6c-1,0.4-1.9,0.9-2.8,1.5s-1.8,1.4-2.6,2.2
			c-0.8,0.9-1.6,1.8-2.2,2.7c-0.7,1-1.2,2-1.7,3C281.7,108.6,281.3,109.6,281,110.5z"/>
		<path class="st1" d="M314.6,80.4c0.1-0.8,0.3-1.5,0.5-2.2c0.2-0.7,0.5-1.2,0.9-1.7s0.8-0.7,1.4-0.7c0.3,0,0.7,0.1,1,0.2
			c0.4,0.1,0.7,0.3,1.1,0.5c0.3,0.2,0.6,0.5,0.9,0.7c0.2,0.3,0.4,0.6,0.4,1c0,0.2,0,0.3-0.1,0.5s-0.1,0.4-0.1,0.6l-7.3,29.4
			c-0.3,1.2-0.5,2.3-0.7,3.4c-0.2,1.1-0.3,1.9-0.4,2.6v0.7c0,0.6,0,1.2-0.1,1.9c-0.1,0.7-0.2,1.3-0.4,1.9c-0.2,0.6-0.5,1.1-0.9,1.5
			s-0.9,0.6-1.5,0.6c-0.5,0-1-0.1-1.4-0.3s-0.7-0.5-1-0.9c-0.3-0.4-0.4-0.7-0.6-1.1c-0.1-0.4-0.2-0.8-0.2-1.1c0-0.3,0-0.7,0.1-1.2
			c0.1-0.5,0.1-0.9,0.2-1.4c0.1-0.5,0.2-1,0.3-1.5c0.1-0.5,0.2-0.9,0.3-1.3l7.6-30.1C314.5,81.9,314.5,81.2,314.6,80.4z"/>
		<path class="st1" d="M329.8,80.4c0.1-0.8,0.3-1.5,0.5-2.2c0.2-0.7,0.5-1.2,0.9-1.7s0.8-0.7,1.4-0.7c0.3,0,0.7,0.1,1,0.2
			c0.4,0.1,0.7,0.3,1.1,0.5c0.3,0.2,0.6,0.5,0.9,0.7c0.2,0.3,0.4,0.6,0.4,1c0,0.2,0,0.3-0.1,0.5s-0.1,0.4-0.1,0.6l-7.3,29.4
			c-0.3,1.2-0.5,2.3-0.7,3.4c-0.2,1.1-0.3,1.9-0.4,2.6v0.7c0,0.6,0,1.2-0.1,1.9c-0.1,0.7-0.2,1.3-0.4,1.9c-0.2,0.6-0.5,1.1-0.9,1.5
			s-0.9,0.6-1.5,0.6c-0.5,0-1-0.1-1.4-0.3s-0.7-0.5-1-0.9c-0.3-0.4-0.4-0.7-0.6-1.1c-0.1-0.4-0.2-0.8-0.2-1.1c0-0.3,0-0.7,0.1-1.2
			c0.1-0.5,0.1-0.9,0.2-1.4c0.1-0.5,0.2-1,0.3-1.5c0.1-0.5,0.2-0.9,0.3-1.3l7.6-30.1C329.6,81.9,329.7,81.2,329.8,80.4z"/>
		<path class="st1" d="M335.6,109.3c0-0.8,0.2-1.6,0.7-2.1c0.5-0.6,1-1,1.8-1.2c0.2-0.4,0.5-1,1-1.7c0.5-0.7,1-1.5,1.7-2.4
			c0.7-0.9,1.4-1.7,2.3-2.6c0.9-0.9,1.8-1.7,2.8-2.4s2.1-1.3,3.3-1.7s2.4-0.7,3.8-0.7c1.1,0,2.1,0.1,3,0.4s1.5,0.7,2.1,1.1
			s1,1.1,1.2,1.7c0.3,0.7,0.4,1.4,0.4,2.2c0,0.7-0.1,1.3-0.3,1.9c-0.3,1.1-0.8,2.1-1.5,2.9c-0.7,0.8-1.6,1.5-2.6,2.2
			c-1,0.6-2.1,1.1-3.3,1.5s-2.4,0.8-3.6,1c-1.2,0.3-2.3,0.5-3.4,0.6c-1.1,0.1-2,0.3-2.8,0.3c-0.2,0.4-0.3,0.8-0.5,1.3
			c-0.1,0.5-0.2,1.1-0.2,1.6c0,1.1,0.5,2,1.4,2.6c0.9,0.6,2.1,0.9,3.7,0.9c0.9,0,1.8-0.1,2.6-0.3s1.6-0.5,2.4-0.8
			c0.8-0.3,1.5-0.7,2.1-1.1c0.7-0.4,1.3-0.8,1.8-1.1c0.7-0.5,1.4-0.9,2-1.2c0.6-0.3,1.2-0.5,1.7-0.5s0.8,0.1,0.9,0.4
			c0.1,0.2,0.2,0.5,0.2,0.8c0,0.2,0,0.3,0,0.5c0,0.1,0,0.3,0,0.4c-0.1,0.5-0.3,1-0.6,1.5c-0.3,0.5-0.7,0.9-1.1,1.3
			c-2,1.6-4.1,2.8-6.3,3.4c-2.1,0.7-4.4,1-6.9,1c-0.5,0-1,0-1.7-0.1s-1.3-0.2-2-0.4c-0.7-0.2-1.4-0.4-2-0.8
			c-0.7-0.3-1.3-0.8-1.8-1.3c-0.5-0.5-0.9-1.2-1.3-2c-0.3-0.8-0.5-1.8-0.5-2.9c0-0.9,0.1-1.9,0.4-3.1c-0.3,0-0.5-0.2-0.7-0.4
			C335.7,110.1,335.6,109.8,335.6,109.3z M354,101.2c0-0.1,0.1-0.2,0.1-0.3s0-0.2,0-0.3c0-0.5-0.2-0.9-0.6-1.2s-0.9-0.4-1.4-0.4
			c-0.9,0-1.7,0.2-2.5,0.7c-0.8,0.5-1.6,1-2.3,1.7c-0.7,0.7-1.4,1.4-2,2.2c-0.6,0.8-1,1.5-1.3,2.1c1.4-0.1,2.7-0.3,3.9-0.6
			c1.2-0.3,2.2-0.6,3.1-1c0.9-0.4,1.6-0.9,2.1-1.4C353.4,102.3,353.8,101.8,354,101.2z"/>
		<path class="st1" d="M366.3,117.6c0.3-1.4,0.5-2.9,0.9-4.5c0.3-1.6,0.7-3.3,1-5c0.4-1.7,0.7-3.3,1-5c0.3-1.6,0.6-3.1,0.9-4.5
			c0-0.2,0-0.4,0-0.5c0-0.1,0-0.3,0-0.5c0-0.6,0-1.2,0.1-1.8c0.1-0.6,0.2-1.2,0.3-1.7c0.2-0.7,0.5-1.2,0.7-1.5
			c0.3-0.3,0.7-0.4,1.3-0.4c0.6,0,1,0.1,1.4,0.3s0.6,0.5,0.8,0.9c0.2,0.4,0.3,0.8,0.4,1.3c0.1,0.5,0.1,1,0.1,1.5c0,0.3,0,0.6,0,0.9
			c0,0.3,0,0.6,0,0.8c0.5-0.6,1.1-1.1,1.7-1.7c0.6-0.6,1.3-1.1,2-1.6c0.7-0.5,1.4-0.9,2.2-1.2c0.8-0.3,1.6-0.5,2.4-0.5
			c0.3,0,0.7,0,1,0.1c0.3,0.1,0.7,0.1,1,0.2c0.4,0.1,0.8,0.2,1.2,0.4c0.4,0.2,0.8,0.4,1.2,0.7c0.6,0.5,1.2,1.1,1.6,1.8
			c0.4,0.7,0.7,1.5,0.7,2.2c0,0.3-0.1,0.6-0.2,1c-0.1,0.3-0.3,0.7-0.5,0.9c-0.2,0.3-0.4,0.5-0.7,0.7c-0.3,0.2-0.6,0.3-0.9,0.3
			s-0.7-0.1-1.2-0.3c-0.5-0.2-0.9-0.4-1.2-0.7c-0.1-0.1-0.3-0.3-0.4-0.5c-0.1-0.2-0.3-0.4-0.4-0.6c-0.1-0.2-0.2-0.4-0.4-0.6
			s-0.2-0.3-0.2-0.4c-0.1,0-0.2,0-0.3,0s-0.2,0-0.3,0c-1,0-1.9,0.3-2.8,0.8c-0.9,0.5-1.7,1.1-2.5,1.9c-0.8,0.7-1.5,1.5-2.2,2.3
			c-0.7,0.8-1.2,1.6-1.7,2.2c-0.4,1.6-0.8,3.3-1.3,5.1c-0.5,1.8-1,3.7-1.4,5.6v0.7c0,0.6,0,1.2-0.1,1.8c0,0.6-0.2,1.1-0.4,1.6
			c-0.2,0.3-0.5,0.5-0.9,0.7c-0.4,0.2-0.9,0.3-1.4,0.3c-0.8,0-1.4-0.3-1.8-0.8c-0.4-0.5-0.6-1.2-0.6-1.9
			C366.1,118.3,366.2,118,366.3,117.6z"/>
		<path class="st1" d="M196.6,158h2.6v3.3c-0.4,0.2-1.3,0.4-2.8,0.5c-1.5,0.1-2.8,0.2-4.1,0.2c-5.4,0-8.1-1.7-8.1-5.1v-8.7
			c0-1.1,0.3-2,0.8-2.8c0.6-0.8,1.3-1.3,2.2-1.7s1.8-0.6,2.6-0.8c0.8-0.1,1.6-0.2,2.5-0.2c1.1,0,2.4,0.1,4,0.3
			c1.5,0.2,2.5,0.4,2.9,0.6v3.5h-2.6v-1.2c-0.8-0.3-2.1-0.4-3.9-0.4h-0.5c-0.3,0-0.7,0-1.1,0.1c-0.4,0.1-0.9,0.2-1.5,0.3
			c-0.6,0.2-1.1,0.5-1.5,1s-0.6,1.1-0.6,1.8v7.9c0,0.7,0.2,1.2,0.6,1.7c0.4,0.4,0.9,0.7,1.5,0.9c0.6,0.2,1.1,0.3,1.5,0.3
			s0.7,0.1,1.1,0.1h1c1.6,0,2.7-0.2,3.4-0.5V158z"/>
		<path class="st1" d="M212.8,150.7c-0.6,0-1.6,0.1-2.8,0.3s-2,0.4-2.3,0.7v8h2.2v2.3h-7v-2.3h1.4v-9.2h-1.4v-2.3h4.8v1.1
			c1.3-0.9,3-1.3,5.1-1.3V150.7z"/>
		<path class="st1" d="M223.7,159.5c0.9-0.1,1.6-0.4,2.1-0.6l0.8,2.3c-1,0.7-2.6,1-5,1c-4.4,0-6.6-1.4-6.6-4.1v-5.5
			c0-3,2-4.6,5.9-4.6c3.9,0,5.8,1.5,5.8,4.6v3.8h-8.4v1.3c0,0.5,0.2,1,0.7,1.3c0.4,0.3,0.9,0.5,1.3,0.6s0.8,0.1,1.2,0.1
			C222.1,159.7,222.8,159.6,223.7,159.5z M223.4,153.7v-1.1c0-1.3-0.8-1.9-2.4-1.9c-1.7,0-2.6,0.6-2.6,1.9v1.1H223.4z"/>
		<path class="st1" d="M238.9,151c-0.5-0.2-1.2-0.3-2-0.3h-0.5c-1.9,0-2.9,0.6-2.9,1.9v5.2c0,1.2,1,1.9,2.9,1.9h0.4
			c1,0,1.7-0.1,2.1-0.3V158h2.6v3.3c-1.9,0.5-3.6,0.8-5.2,0.8c-0.8,0-1.5,0-2.2-0.1c-0.6-0.1-1.3-0.2-1.9-0.5s-1.2-0.7-1.6-1.2
			s-0.6-1.3-0.6-2.1v-5.6c0-0.9,0.2-1.7,0.6-2.3c0.4-0.6,0.9-1.1,1.6-1.4c0.7-0.3,1.3-0.5,2-0.7s1.4-0.2,2.2-0.2
			c1.7,0,3.4,0.4,5.1,1.1v3.1h-2.6V151z"/>
		<path class="st1" d="M254.8,152.4c0,0,0-0.1,0-0.2c0-0.1-0.1-0.2-0.2-0.4c-0.1-0.2-0.2-0.4-0.4-0.5c-0.2-0.1-0.4-0.3-0.8-0.4
			c-0.4-0.1-0.8-0.2-1.3-0.2s-1,0.1-1.7,0.3c-0.7,0.2-1.1,0.4-1.4,0.7v8h1.4v2.3h-6.3v-2.3h1.5v-13.9h-1.5V143h4.8v6.2
			c0.7-0.5,1.4-0.8,1.9-1c0.5-0.2,1.2-0.3,2.2-0.3c1.7,0,3,0.4,3.8,1.1s1.2,1.8,1.2,3.3v7.3h1.5v2.3h-6.3v-2.3h1.5V152.4z"/>
		<path class="st1" d="M270.8,159.5c0.9-0.1,1.6-0.4,2.1-0.6l0.8,2.3c-1,0.7-2.6,1-5,1c-4.4,0-6.6-1.4-6.6-4.1v-5.5
			c0-3,2-4.6,5.9-4.6c3.9,0,5.8,1.5,5.8,4.6v3.8h-8.4v1.3c0,0.5,0.2,1,0.7,1.3s0.9,0.5,1.3,0.6c0.4,0.1,0.8,0.1,1.2,0.1
			C269.1,159.7,269.9,159.6,270.8,159.5z M270.4,153.7v-1.1c0-1.3-0.8-1.9-2.4-1.9c-1.7,0-2.6,0.6-2.6,1.9v1.1H270.4z"/>
		<path class="st1" d="M293,159.5c0.9-0.1,1.6-0.4,2.1-0.6l0.8,2.3c-1,0.7-2.6,1-5,1c-4.4,0-6.6-1.4-6.6-4.1v-5.5c0-3,2-4.6,5.9-4.6
			c3.9,0,5.8,1.5,5.8,4.6v3.8h-8.4v1.3c0,0.5,0.2,1,0.7,1.3s0.9,0.5,1.3,0.6c0.4,0.1,0.8,0.1,1.2,0.1
			C291.4,159.7,292.2,159.6,293,159.5z M292.7,153.7v-1.1c0-1.3-0.8-1.9-2.4-1.9c-1.7,0-2.6,0.6-2.6,1.9v1.1H292.7z"/>
		<path class="st1" d="M319.9,154.3h-8.2v5.2h7.6v-1.7h2.6v4.1h-15.1v-2.4h1.6v-14.2h-1.6V143h15.1v4.1h-2.6v-1.2h-7.6v5.5h8.2
			V154.3z"/>
		<path class="st1" d="M329.1,153.6c0.8,0.4,1.8,0.6,2.8,0.9c1,0.2,2,0.6,2.8,1.2c0.8,0.6,1.3,1.3,1.3,2.2v0.5c0,0.9-0.3,1.7-1,2.3
			s-1.4,0.9-2.2,1.1c-0.8,0.2-1.7,0.3-2.8,0.3c-1.1,0-2.1-0.1-3.1-0.4c-1-0.2-1.8-0.5-2.4-0.8v-3.4h2.6v1.5c0.9,0.4,1.8,0.6,2.7,0.6
			c1.9,0,2.8-0.4,2.8-1.2v-0.3c0-0.4-0.4-0.8-1.3-1.1c-0.8-0.3-1.8-0.6-2.8-0.8c-1-0.2-2-0.7-2.8-1.3c-0.8-0.6-1.3-1.5-1.3-2.4V152
			c0-0.9,0.2-1.6,0.5-2.2s0.9-1,1.5-1.2c0.7-0.3,1.3-0.4,1.9-0.5c0.6-0.1,1.3-0.1,2.1-0.1c0.6,0,1.4,0.1,2.2,0.2s1.4,0.2,1.9,0.4
			l0.7,0.2v3.4h-2.6V151c-0.5-0.2-1.1-0.2-1.8-0.2h-0.1c-1.2,0-2,0.1-2.4,0.3c-0.4,0.2-0.6,0.5-0.6,1v0.4
			C327.9,152.9,328.3,153.3,329.1,153.6z"/>
		<path class="st1" d="M347.9,151c-0.5-0.2-1.2-0.3-2-0.3h-0.5c-1.9,0-2.9,0.6-2.9,1.9v5.2c0,1.2,1,1.9,2.9,1.9h0.4
			c1,0,1.7-0.1,2.1-0.3V158h2.6v3.3c-1.9,0.5-3.6,0.8-5.2,0.8c-0.8,0-1.5,0-2.2-0.1s-1.3-0.2-1.9-0.5s-1.2-0.7-1.6-1.2
			c-0.4-0.6-0.5-1.3-0.5-2.1v-5.6c0-0.9,0.2-1.7,0.6-2.3c0.4-0.6,0.9-1.1,1.6-1.4s1.3-0.5,2-0.7c0.7-0.1,1.4-0.2,2.2-0.2
			c1.7,0,3.4,0.4,5.1,1.1v3.1h-2.6V151z"/>
		<path class="st1" d="M365.9,152.5v5.5c0,2.8-2,4.1-6,4.1c-4,0-6-1.4-6-4.1v-5.5c0-3,2-4.6,6-4.6
			C363.9,147.9,365.9,149.5,365.9,152.5z M362.6,157.6v-5c0-1.3-0.9-1.9-2.7-1.9c-1.8,0-2.6,0.6-2.6,1.9v5c0,1.4,0.9,2,2.6,2
			C361.7,159.7,362.6,159,362.6,157.6z"/>
		<path class="st1" d="M369.4,159.7h1.4v-14.4h-1.4V143h4.8v16.6h1.4v2.3h-6.2V159.7z"/>
		<path class="st1" d="M379,159.7h1.4v-9.2H379v-2.3h4.8v11.5h1.4v2.3H379V159.7z M380.8,143.9c0.3-0.3,0.8-0.5,1.3-0.5
			s0.9,0.2,1.3,0.5s0.5,0.8,0.5,1.3s-0.2,0.9-0.5,1.3c-0.3,0.3-0.8,0.5-1.3,0.5s-0.9-0.2-1.3-0.5c-0.3-0.3-0.5-0.8-0.5-1.3
			S380.4,144.2,380.8,143.9z"/>
		<path class="st1" d="M398.8,152.4c0,0,0-0.1,0-0.2c0-0.1-0.1-0.2-0.2-0.4c-0.1-0.2-0.2-0.4-0.4-0.5c-0.2-0.1-0.4-0.3-0.8-0.4
			c-0.4-0.1-0.8-0.2-1.3-0.2s-1,0.1-1.7,0.3s-1.1,0.4-1.4,0.7v8h1.5v2.3h-6.3v-2.3h1.4v-9.2h-1.4v-2.3h4.8v1.1
			c0.7-0.5,1.4-0.8,1.9-1c0.5-0.2,1.3-0.3,2.2-0.3c1.7,0,3,0.4,3.8,1.1s1.2,1.8,1.2,3.3v7.3h1.5v2.3h-6.3v-2.3h1.4V152.4z"/>
		<path class="st1" d="M417.3,152.4c0,0,0-0.1,0-0.2c0-0.1-0.1-0.2-0.2-0.4c-0.1-0.2-0.2-0.4-0.4-0.5c-0.2-0.1-0.4-0.3-0.8-0.4
			c-0.4-0.1-0.8-0.2-1.3-0.2c-0.5,0-1,0.1-1.7,0.3s-1.1,0.4-1.4,0.7v8h1.4v2.3h-6.3v-2.3h1.5v-13.9h-1.5V143h4.8v6.2
			c0.7-0.5,1.4-0.8,1.9-1c0.5-0.2,1.2-0.3,2.2-0.3c1.7,0,3,0.4,3.8,1.1c0.8,0.7,1.2,1.8,1.2,3.3v7.3h1.5v2.3h-6.3v-2.3h1.5V152.4z"
			/>
		<path class="st1" d="M438,159.7v2.3h-4.3v-1.1c-1,0.9-2.6,1.3-4.7,1.3c-1.3,0-2.3-0.3-3-0.8c-0.7-0.5-1.1-1.4-1.1-2.6v-0.9
			c0-0.4,0.1-0.8,0.2-1.1s0.3-0.6,0.6-0.9c0.3-0.3,0.6-0.5,0.8-0.7s0.6-0.4,1.2-0.5c0.5-0.1,0.9-0.3,1.3-0.4
			c0.3-0.1,0.8-0.2,1.5-0.3c0.7-0.1,1.2-0.2,1.5-0.2c0.3,0,0.9-0.1,1.6-0.2v-1c0-1.2-0.9-1.9-2.8-1.9h-0.3c-1.3,0-2.1,0.1-2.5,0.3v1
			h-2.6v-3.3c1.8-0.6,3.6-0.9,5.3-0.9c0.8,0,1.5,0.1,2.2,0.2c0.6,0.1,1.3,0.3,1.9,0.6c0.7,0.3,1.2,0.8,1.5,1.5
			c0.4,0.7,0.5,1.5,0.5,2.6v6.9H438z M433.6,156.3c-3.6,0-5.3,0.6-5.3,1.7v0.5c0,0.8,0.5,1.2,1.6,1.2c1.6,0,2.9-0.5,3.7-1.5V156.3z"
			/>
	</g>
	<g>
		<path class="st2" d="M122.2,156.2h27.1c0,0-13.7-25.5-6-88.5c0.4-3-12.1,0-12.1,0L122.2,156.2z"/>
		<ellipse class="st3" cx="135.8" cy="57.3" rx="31.3" ry="16"/>
		<ellipse class="st3" cx="162.2" cy="61" rx="31.3" ry="16"/>
		<ellipse class="st3" cx="150.8" cy="42.2" rx="31.3" ry="16"/>
	</g>
</g>
<g id="Camada_2" class="st4">
	<ellipse class="st5" cx="1051.4" cy="73.6" rx="1184.6" ry="320.4"/>
	<g class="st6">
		<path class="st7" d="M2055,242.9c0,0-291.7-191.5-440-253.2c-112.5-46.9-319.4-97.5-535.6-99.1c-216.2,1.6-423.1,52.2-535.6,99.1
			c-148.2,61.8-440,253.2-440,253.2"/>
		<path class="st8" d="M2055,281.9c0,0-291.7-191.5-440-253.2c-112.5-46.9-319.4-97.5-535.6-99.1c-216.2,1.6-423.1,52.2-535.6,99.1
			c-148.2,61.8-440,253.2-440,253.2"/>
		<path class="st9" d="M2055,200.1c0,0-290.4-194.8-440-253.2c-113.6-44.4-319.4-93.3-535.6-94.9C863.2-146.4,661-99.4,543.8-53.1
			c-149.4,59-440,253.2-440,253.2"/>
		<path class="st10" d="M2055,160.9c0,0-290.4-194.8-440-253.2c-113.6-44.4-319.4-93.3-535.6-94.9c-216.2,1.6-418.4,48.6-535.6,94.9
			c-149.4,59-440,253.2-440,253.2"/>
		<path class="st11" d="M2055,126.5c0,0-290.4-194.8-440-253.2c-113.6-44.4-319.4-93.3-535.6-94.9c-216.2,1.6-418.4,48.6-535.6,94.9
			c-149.4,59-440,253.2-440,253.2"/>
	</g>
</g>
</svg>
