<?xml version="1.0" encoding="utf-8"?>
<!-- Generator: Adobe Illustrator 22.0.1, SVG Export Plug-In . SVG Version: 6.00 Build 0)  -->
<svg version="1.1" xmlns="http://www.w3.org/2000/svg" xmlns:xlink="http://www.w3.org/1999/xlink" x="0px" y="0px"
	 viewBox="0 0 500 209.3" style="enable-background:new 0 0 500 209.3;" xml:space="preserve">
<style type="text/css">
	.st0{fill:#FFFFFF;}
	.st1{fill:#775B3C;}
	.st2{fill:#59753C;}
	.st3{display:none;}
	.st4{display:inline;fill:#FFFFFF;}
	.st5{font-family:'DKCrayonCrumble';}
	.st6{font-size:749.7262px;}
	.st7{font-family:'DKCoolCrayon';}
	.st8{font-size:211.7542px;}
	.st9{font-size:292.575px;}
</style>
<g id="Camada_1">
	<g>
		<path class="st0" d="M125.1,132.5c1,0.3,2,0.7,3,1.2c1,0.5,2.1,0.9,3.2,1.3c1.1,0.4,2.2,0.8,3.4,1.1c1.2,0.3,2.5,0.4,3.8,0.4
			c1.6,0,3.2-0.2,4.8-0.6c1.6-0.4,3.2-0.9,4.7-1.7c1.5-0.7,3-1.6,4.4-2.7c1.4-1,2.7-2.3,3.9-3.6c1.3-1.5,2.4-2.8,3.2-4
			c0.9-1.2,1.6-2.3,2.1-3.2c0.5-0.9,0.9-1.7,1.1-2.4c0.2-0.7,0.3-1.3,0.3-1.7c0-0.7-0.2-1.3-0.7-1.9c-0.5-0.5-1.1-1-2-1.3
			c-0.8-0.3-1.7-0.6-2.8-0.8c-1-0.2-2.1-0.2-3.2-0.2c-0.7,0-1.4,0-2.3,0.1c-0.9,0-1.8,0.1-2.7,0.1c-0.9,0-1.8,0.1-2.7,0.1
			s-1.6,0-2.2,0c-0.9,0-1.9-0.1-3-0.3c-1-0.2-2-0.6-3-1.1c-1-0.5-1.9-1.2-2.7-2c-0.8-0.8-1.5-1.9-2.1-3.1c-0.2-0.4-0.3-0.9-0.5-1.4
			c-0.1-0.5-0.2-1.1-0.2-1.8c0-0.7,0-1.3,0.2-2c0.1-0.6,0.2-1.2,0.4-1.8c0.4-1.4,1.1-2.9,2-4.4c0.9-1.5,2.1-2.9,3.4-4.3
			c1.3-1.4,2.7-2.8,4.3-4.1c1.5-1.3,3.1-2.6,4.7-3.7c1.6-1.2,3.2-2.2,4.8-3.1c1.6-0.9,3-1.7,4.4-2.4c1.9-0.9,3.8-1.6,5.8-2
			c2-0.4,3.9-0.6,5.8-0.6c1.2,0,2.2,0.2,3.3,0.5c1,0.3,1.9,0.7,2.7,1.3c0.8,0.6,1.4,1.3,1.9,2.1c0.5,0.8,0.7,1.8,0.7,2.9
			c0,0.6-0.1,1.2-0.2,1.6c-0.1,0.4-0.3,0.8-0.6,1.1c-0.2,0.3-0.5,0.5-0.8,0.6c-0.3,0.1-0.6,0.2-0.8,0.2c-0.8,0-1.5-0.1-2.1-0.3
			c-0.6-0.2-1.3-0.4-1.9-0.6s-1.2-0.4-1.8-0.6c-0.6-0.2-1.3-0.3-2-0.3c-2.1,0-4.3,0.4-6.5,1.3c-2.2,0.8-4.3,1.9-6.4,3.2
			c-2.1,1.3-4.1,2.8-5.9,4.4c-1.9,1.6-3.5,3.2-5,4.7c-0.8,0.8-1.3,1.6-1.7,2.4c-0.4,0.8-0.5,1.6-0.5,2.3c0,1.1,0.5,1.9,1.4,2.5
			c0.9,0.6,2,0.9,3.4,0.9c0.8,0,1.7,0,2.6,0c1,0,2-0.1,3-0.1c1,0,2-0.1,3-0.1c1,0,1.8-0.1,2.6-0.1c1.8,0,3.5,0.3,5.1,0.8
			c1.6,0.5,3.1,1.2,4.4,2.2c1.3,1,2.3,2.2,3,3.6c0.8,1.5,1.1,3.1,1.1,5c0,1.2-0.2,2.3-0.5,3.5c-0.3,1.2-0.8,2.4-1.4,3.6
			c-0.6,1.2-1.3,2.4-2.1,3.5c-0.8,1.2-1.6,2.3-2.5,3.4c-1.6,2-3.3,3.9-5.2,5.7c-1.9,1.8-3.9,3.3-6.1,4.7c-2.2,1.3-4.4,2.4-6.8,3.2
			c-2.4,0.8-4.9,1.2-7.4,1.2c-1.1,0-2.2-0.1-3.4-0.3c-1.2-0.2-2.3-0.5-3.4-0.9c-1.1-0.4-2.2-0.9-3.2-1.5c-1-0.6-1.9-1.3-2.6-2
			c-0.7-0.7-1.3-1.6-1.8-2.5c-0.4-0.9-0.7-1.9-0.7-3c0-0.5,0.1-1,0.2-1.5C124.1,132.7,124.5,132.5,125.1,132.5z"/>
		<path class="st0" d="M178.8,139.6c0.9-3.4,1.7-6.5,2.5-9.4c0.8-2.9,1.6-5.7,2.4-8.3s1.5-5.2,2.2-7.7c0.7-2.5,1.4-5,2.1-7.6
			c0.3-1,0.4-2,0.5-2.9c0-0.9,0.2-1.9,0.4-2.9c0.1-0.3,0.3-0.7,0.6-0.9c0.3-0.3,0.6-0.5,1-0.7c0.4-0.2,0.8-0.4,1.2-0.5
			c0.4-0.1,0.8-0.2,1.2-0.2c0.8,0,1.5,0.1,2,0.3c0.5,0.2,1,0.4,1.3,0.8c0.3,0.3,0.6,0.7,0.7,1.1c0.1,0.4,0.2,0.9,0.2,1.5
			c0,1-0.2,2-0.5,3c-0.3,1-0.7,2.1-1.2,3.3c1.4-1.1,2.7-2.1,4.2-3c1.4-0.9,2.9-1.8,4.4-2.5c1.5-0.7,3.1-1.3,4.6-1.7
			c1.6-0.4,3.2-0.6,4.9-0.6c0.8,0,1.6,0.1,2.3,0.4c0.8,0.2,1.5,0.6,2.1,1.1c0.6,0.5,1.1,1.2,1.6,2c0.4,0.8,0.7,1.9,0.7,3.1
			c1.2-0.8,2.5-1.7,3.8-2.5c1.3-0.8,2.7-1.6,4-2.3c1.4-0.7,2.7-1.2,4.1-1.6c1.4-0.4,2.7-0.6,4-0.6c1.9,0,3.5,0.3,4.8,0.8
			c1.3,0.5,2.2,1.2,3,2c0.7,0.8,1.3,1.8,1.6,3c0.3,1.1,0.5,2.3,0.5,3.6c0,1.4-0.1,2.8-0.4,4.3c-0.3,1.5-0.5,2.9-0.9,4.2
			c-0.8,3.3-1.8,6.5-2.8,9.5c-1,3-2.2,6-3.4,9c-0.3,0.7-0.6,1.5-0.9,2.3c-0.3,0.8-0.7,1.5-1.1,2.2c-0.4,0.7-0.9,1.2-1.5,1.7
			c-0.6,0.4-1.2,0.7-2,0.7c-1.7,0-2.9-0.3-3.5-0.9c-0.6-0.6-0.9-1.4-0.9-2.5c0-0.3,0-0.6,0-1c0-0.4,0.1-0.7,0.2-1.1
			c0.1-0.4,0.4-1.1,0.8-1.9c0.4-0.8,0.8-1.7,1.3-2.7s0.9-1.9,1.4-2.9c0.5-1,0.8-1.8,1-2.5c0.4-1.2,0.8-2.7,1.3-4.3
			c0.5-1.6,1-3.3,1.4-4.9c0.5-1.7,0.8-3.2,1.1-4.7c0.3-1.5,0.5-2.7,0.5-3.6c0-0.4,0-0.9-0.1-1.3c-0.1-0.4-0.2-0.8-0.5-1.1
			c-0.2-0.3-0.5-0.6-0.9-0.8c-0.4-0.2-0.9-0.3-1.5-0.3c-0.9,0-1.9,0.2-3.1,0.7c-1.2,0.5-2.4,1.1-3.7,1.9c-1.3,0.8-2.5,1.7-3.7,2.7
			c-1.2,1-2.2,2-3.1,3c-0.6,0.7-1.2,1.3-1.7,1.7c-0.5,0.4-1.1,0.8-1.6,1c-0.1,0.1-0.2,0.5-0.4,1.1c-0.2,0.6-0.5,1.4-0.8,2.3
			c-0.3,0.9-0.6,1.9-1,2.9c-0.3,1.1-0.7,2-1,2.9c-0.3,0.9-0.6,1.7-0.8,2.3c-0.2,0.6-0.3,1-0.3,1c-0.2,0.8-0.4,1.6-0.5,2.5
			c-0.1,0.8-0.3,1.7-0.4,2.4c-0.1,0.8-0.2,1.6-0.3,2.5c-0.1,0.9-0.3,1.7-0.6,2.5c-0.3,0.8-0.8,1.4-1.4,1.9c-0.6,0.5-1.5,0.7-2.6,0.7
			c-0.6,0-1.1-0.1-1.6-0.4c-0.5-0.3-0.9-0.7-1.2-1.1s-0.6-0.9-0.8-1.5c-0.2-0.6-0.3-1.1-0.3-1.7c0.7-2.6,1.3-4.9,1.9-7
			c0.6-2.1,1.3-4.1,1.9-6c0.6-1.9,1.2-3.8,1.8-5.7c0.6-1.9,1.2-4,1.7-6.3c0.1-0.5,0.3-1.1,0.3-1.6c0.1-0.5,0.1-1,0.1-1.4
			c0-0.7-0.1-1.3-0.4-1.7c-0.3-0.4-0.8-0.7-1.5-0.7c-1.2,0-2.4,0.2-3.5,0.7s-2.4,1.2-3.8,2.2c-1.4,1-2.9,2.3-4.5,3.8
			c-1.7,1.6-3.6,3.4-5.7,5.6c-0.2,0.4-0.5,1.2-0.9,2.4c-0.4,1.2-0.8,2.4-1.1,3.8c-0.4,1.3-0.7,2.6-1.1,3.7c-0.3,1.1-0.5,1.9-0.6,2.3
			c-0.3,1.2-0.5,2.2-0.6,3c-0.1,0.8-0.2,1.6-0.3,2.2c-0.1,0.3-0.1,0.9-0.3,1.7c-0.1,0.8-0.3,1.6-0.6,2.4c-0.3,0.8-0.7,1.5-1.3,2.1
			c-0.5,0.6-1.3,0.9-2.2,0.9c-1.3,0-2.4-0.4-3.3-1.1c-0.8-0.7-1.3-1.6-1.3-2.7c0-0.2,0-0.4,0-0.6C178.7,140,178.8,139.8,178.8,139.6
			z"/>
		<path class="st0" d="M275.7,140.6c0-0.8,0.1-1.8,0.3-3s0.3-2.6,0.3-4.3c-0.9,0.7-2,1.5-3.2,2.5s-2.3,1.9-3.6,2.7
			c-1.2,0.9-2.5,1.6-3.7,2.2c-1.2,0.6-2.4,0.9-3.4,0.9c-0.9,0-1.7-0.1-2.5-0.4s-1.4-0.6-2-1c-1.5-1.2-2.6-2.4-3.3-3.6s-1-2.6-1-4.2
			c0-0.7,0.1-1.5,0.2-2.2c0.1-0.8,0.3-1.7,0.6-2.7c1.1-4.5,3-8.8,5.6-12.6c2.7-3.9,6-7.2,9.9-9.9c1.5-1.1,3-1.7,4.6-2
			c1.5-0.3,3-0.5,4.5-0.5c0.7,0,1.4,0,2.2,0.1s1.6,0.2,2.2,0.3c0.7-0.1,1.2-0.2,1.6-0.3c0.4-0.1,0.9-0.1,1.3-0.1
			c0.9,0,1.6,0.1,2.2,0.3c0.6,0.2,1,0.5,1.4,0.9c0.3,0.4,0.6,0.8,0.8,1.3c0.2,0.5,0.2,1,0.2,1.6c0,0.7-0.1,1.5-0.3,2.1
			c-0.2,0.7-0.5,1.4-0.7,2l-5.7,22.7c-0.1,1.2-0.2,2.4-0.3,3.4c-0.1,1-0.3,2-0.5,2.9c-0.1,0.3-0.2,0.6-0.3,1
			c-0.1,0.4-0.3,0.8-0.6,1.1c-0.3,0.4-0.6,0.7-1.1,0.9s-1,0.4-1.7,0.4c-0.9,0-1.6-0.1-2.1-0.2c-0.5-0.1-0.9-0.3-1.2-0.5
			s-0.5-0.5-0.6-0.8C275.7,141.4,275.7,141,275.7,140.6z M261.3,127.6c-0.1,0.4-0.2,1-0.4,1.7c-0.1,0.7-0.2,1.5-0.2,2.2
			c0,0.8,0.1,1.5,0.3,2.1c0.2,0.6,0.7,0.9,1.5,0.9c1.2,0,2.3-0.3,3.4-0.8s2-1.2,3-1.9c1.2-1,2.5-2.1,3.8-3.4
			c1.3-1.3,2.5-2.6,3.6-3.9s2.1-2.8,3-4.3c0.9-1.5,1.5-2.9,1.9-4.3c0.2-0.8,0.4-1.8,0.6-2.9c0.2-1.1,0.2-2.1,0.2-2.9
			c0-0.4-0.1-0.7-0.3-1.1c-0.2-0.4-0.5-0.5-1-0.5c-1.4,0-2.8,0.3-4.3,0.8c-1.4,0.5-2.8,1.3-4.1,2.2c-1.3,0.9-2.6,2-3.8,3.3
			c-1.2,1.3-2.3,2.6-3.3,4c-1,1.4-1.8,2.9-2.5,4.4C262.2,124.7,261.7,126.1,261.3,127.6z"/>
		<path class="st0" d="M310.7,83.3c0.1-1.1,0.4-2.2,0.7-3.2c0.3-1,0.7-1.8,1.3-2.4c0.5-0.6,1.2-1,2-1c0.5,0,1,0.1,1.5,0.3
			c0.6,0.2,1.1,0.4,1.6,0.7c0.5,0.3,0.9,0.7,1.3,1.1c0.3,0.4,0.5,0.9,0.5,1.4c0,0.2,0,0.5-0.1,0.8c-0.1,0.3-0.2,0.6-0.2,0.9
			l-10.8,43.2c-0.4,1.7-0.8,3.4-1.1,4.9c-0.3,1.6-0.5,2.9-0.6,3.9v1c0,0.9-0.1,1.8-0.2,2.8c-0.1,1-0.3,2-0.6,2.8
			c-0.3,0.9-0.8,1.6-1.3,2.2c-0.6,0.6-1.3,0.9-2.2,0.9c-0.8,0-1.5-0.2-2-0.5c-0.6-0.3-1.1-0.8-1.4-1.3c-0.4-0.5-0.6-1.1-0.8-1.7
			s-0.3-1.1-0.3-1.7c0-0.5,0-1,0.1-1.7c0.1-0.7,0.2-1.4,0.3-2.1c0.1-0.7,0.3-1.5,0.4-2.2c0.1-0.7,0.3-1.4,0.4-1.9l11.1-44.2
			C310.4,85.5,310.6,84.5,310.7,83.3z"/>
		<path class="st0" d="M333,83.3c0.1-1.1,0.4-2.2,0.7-3.2c0.3-1,0.7-1.8,1.3-2.4c0.5-0.6,1.2-1,2-1c0.5,0,1,0.1,1.5,0.3
			c0.6,0.2,1.1,0.4,1.6,0.7c0.5,0.3,0.9,0.7,1.3,1.1c0.3,0.4,0.5,0.9,0.5,1.4c0,0.2,0,0.5-0.1,0.8c-0.1,0.3-0.2,0.6-0.2,0.9
			l-10.8,43.2c-0.4,1.7-0.8,3.4-1.1,4.9c-0.3,1.6-0.5,2.9-0.6,3.9v1c0,0.9-0.1,1.8-0.2,2.8c-0.1,1-0.3,2-0.6,2.8
			c-0.3,0.9-0.8,1.6-1.3,2.2c-0.6,0.6-1.3,0.9-2.2,0.9c-0.8,0-1.5-0.2-2-0.5c-0.6-0.3-1.1-0.8-1.4-1.3c-0.4-0.5-0.6-1.1-0.8-1.7
			s-0.3-1.1-0.3-1.7c0-0.5,0-1,0.1-1.7c0.1-0.7,0.2-1.4,0.3-2.1c0.1-0.7,0.3-1.5,0.4-2.2c0.1-0.7,0.3-1.4,0.4-1.9l11.1-44.2
			C332.7,85.5,332.8,84.5,333,83.3z"/>
		<path class="st0" d="M341.5,125.8c0-1.2,0.3-2.3,1-3.2c0.7-0.9,1.5-1.4,2.6-1.7c0.3-0.6,0.8-1.5,1.5-2.6c0.7-1.1,1.5-2.3,2.5-3.5
			c1-1.3,2.1-2.5,3.3-3.8c1.3-1.3,2.6-2.4,4.1-3.5c1.5-1,3.1-1.9,4.9-2.6c1.7-0.7,3.6-1,5.5-1c1.7,0,3.1,0.2,4.4,0.6
			c1.2,0.4,2.3,1,3.1,1.7c0.8,0.7,1.4,1.6,1.8,2.6c0.4,1,0.6,2.1,0.6,3.2c0,1-0.1,1.9-0.4,2.8c-0.4,1.6-1.2,3-2.2,4.2
			c-1.1,1.2-2.4,2.3-3.9,3.2c-1.5,0.9-3.1,1.7-4.8,2.3c-1.7,0.6-3.5,1.1-5.2,1.5c-1.7,0.4-3.4,0.7-5,0.9c-1.6,0.2-3,0.4-4.2,0.5
			c-0.3,0.5-0.5,1.2-0.7,2c-0.2,0.8-0.3,1.6-0.3,2.3c0,1.7,0.7,3,2,3.9c1.3,0.9,3.1,1.4,5.5,1.4c1.4,0,2.6-0.2,3.9-0.5
			c1.2-0.3,2.4-0.7,3.5-1.2s2.2-1,3.1-1.6c1-0.6,1.9-1.1,2.7-1.7c1-0.7,2-1.3,3-1.7c0.9-0.5,1.8-0.7,2.5-0.7s1.2,0.2,1.4,0.5
			s0.3,0.7,0.3,1.1c0,0.2,0,0.5,0,0.7s0,0.4-0.1,0.5c-0.1,0.7-0.4,1.5-0.9,2.2c-0.4,0.7-1,1.4-1.6,1.9c-3,2.4-6.1,4-9.2,5
			c-3.2,1-6.5,1.5-10.1,1.5c-0.7,0-1.5,0-2.4-0.1c-0.9-0.1-1.9-0.3-2.9-0.5c-1-0.3-2-0.6-3-1.1c-1-0.5-1.8-1.1-2.6-1.9
			c-0.8-0.8-1.4-1.8-1.9-3c-0.5-1.2-0.7-2.6-0.7-4.3c0-1.4,0.2-2.9,0.6-4.5c-0.4-0.1-0.7-0.3-1.1-0.6
			C341.6,126.9,341.5,126.4,341.5,125.8z M368.5,113.9c0.1-0.1,0.1-0.3,0.1-0.4s0-0.2,0-0.4c0-0.8-0.3-1.4-0.9-1.7
			c-0.6-0.4-1.3-0.6-2.1-0.6c-1.3,0-2.5,0.3-3.7,1c-1.2,0.7-2.4,1.5-3.5,2.5c-1.1,1-2,2.1-2.9,3.2c-0.8,1.1-1.5,2.2-1.9,3.1
			c2.1-0.2,4-0.5,5.7-0.8c1.7-0.4,3.2-0.9,4.5-1.5c1.3-0.6,2.3-1.3,3.1-2C367.7,115.5,368.2,114.7,368.5,113.9z"/>
		<path class="st0" d="M386.6,138c0.4-2,0.8-4.2,1.3-6.6c0.5-2.4,1-4.9,1.5-7.3c0.5-2.5,1-4.9,1.5-7.3s0.9-4.6,1.3-6.6
			c0-0.3,0-0.5,0-0.8c0-0.2,0-0.5,0-0.7c0-0.9,0.1-1.8,0.2-2.7c0.1-0.9,0.3-1.7,0.5-2.5c0.3-1.1,0.7-1.8,1.1-2.2s1-0.6,1.9-0.6
			c0.8,0,1.5,0.2,2,0.5c0.5,0.3,0.9,0.8,1.2,1.3c0.3,0.5,0.5,1.2,0.6,1.9c0.1,0.7,0.1,1.4,0.1,2.2c0,0.4,0,0.8,0,1.3
			c0,0.5,0,0.9,0,1.2c0.8-0.8,1.7-1.7,2.6-2.6s1.9-1.7,2.9-2.4c1-0.7,2.1-1.3,3.2-1.7c1.1-0.5,2.3-0.7,3.6-0.7c0.5,0,1,0,1.4,0.1
			c0.5,0.1,1,0.2,1.4,0.3c0.6,0.1,1.2,0.3,1.8,0.6c0.6,0.2,1.2,0.6,1.8,1c0.9,0.7,1.7,1.6,2.4,2.7c0.6,1.1,1,2.2,1,3.3
			c0,0.4-0.1,0.9-0.3,1.4c-0.2,0.5-0.4,1-0.7,1.4c-0.3,0.4-0.7,0.8-1.1,1c-0.4,0.3-0.8,0.4-1.3,0.4s-1.1-0.1-1.8-0.4
			c-0.7-0.2-1.3-0.6-1.7-1c-0.2-0.2-0.4-0.4-0.6-0.7c-0.2-0.3-0.4-0.6-0.6-0.9c-0.2-0.3-0.4-0.6-0.5-0.9c-0.2-0.3-0.3-0.5-0.4-0.5
			c-0.1,0-0.3,0-0.5-0.1c-0.2,0-0.3,0-0.5,0c-1.5,0-2.9,0.4-4.2,1.1s-2.6,1.7-3.7,2.7c-1.2,1.1-2.2,2.2-3.2,3.5
			c-1,1.2-1.8,2.3-2.5,3.3c-0.6,2.3-1.2,4.8-1.9,7.4c-0.7,2.6-1.4,5.4-2.1,8.3v1.1c0,0.9,0,1.7-0.1,2.6s-0.2,1.7-0.5,2.4
			c-0.3,0.4-0.8,0.8-1.4,1.1c-0.6,0.3-1.3,0.5-2,0.5c-1.2,0-2.1-0.4-2.7-1.2c-0.6-0.8-0.9-1.7-0.9-2.8
			C386.4,139,386.5,138.5,386.6,138z"/>
		<path class="st0" d="M137.3,197.4h3.8v4.9c-0.6,0.3-2,0.6-4.1,0.8c-2.1,0.2-4.2,0.3-6.1,0.3c-7.9,0-11.9-2.5-11.9-7.5v-12.7
			c0-1.6,0.4-3,1.2-4.1c0.8-1.1,1.9-2,3.2-2.5c1.3-0.5,2.6-0.9,3.8-1.1c1.2-0.2,2.4-0.3,3.6-0.3c1.6,0,3.6,0.2,5.8,0.5
			s3.7,0.6,4.3,0.9v5.2h-3.8v-1.8c-1.2-0.4-3.1-0.6-5.7-0.6h-0.7c-0.5,0-1,0-1.6,0.1c-0.6,0.1-1.3,0.3-2.2,0.5
			c-0.9,0.3-1.7,0.7-2.2,1.4c-0.6,0.7-0.9,1.6-0.9,2.7v11.6c0,1,0.3,1.8,0.9,2.4c0.6,0.6,1.3,1.1,2.2,1.3c0.9,0.2,1.6,0.4,2.2,0.5
			s1.1,0.1,1.6,0.1h1.5c2.3,0,4-0.3,5-0.8V197.4z"/>
		<path class="st0" d="M161,186.6c-0.9,0-2.3,0.1-4.1,0.4c-1.9,0.3-3,0.6-3.4,1v11.7h3.3v3.3h-10.3v-3.3h2.1v-13.5h-2.1v-3.3h7v1.6
			c2-1.3,4.5-1.9,7.5-1.9V186.6z"/>
		<path class="st0" d="M177.1,199.5c1.3-0.2,2.3-0.5,3-0.9l1.2,3.4c-1.4,1-3.8,1.5-7.3,1.5c-6.5,0-9.7-2-9.7-6.1v-8
			c0-4.5,2.9-6.7,8.7-6.7c5.7,0,8.5,2.2,8.5,6.7v5.6h-12.3v2c0,0.8,0.3,1.4,1,1.9c0.6,0.5,1.3,0.8,1.9,0.9c0.6,0.1,1.2,0.2,1.8,0.2
			C174.7,199.8,175.8,199.7,177.1,199.5z M176.6,191v-1.6c0-1.9-1.2-2.8-3.6-2.8c-2.5,0-3.8,0.9-3.8,2.8v1.6H176.6z"/>
		<path class="st0" d="M199.4,187.1c-0.8-0.3-1.8-0.5-3-0.5h-0.7c-2.9,0-4.3,0.9-4.3,2.8v7.6c0,1.8,1.4,2.7,4.3,2.7h0.6
			c1.4,0,2.5-0.2,3.1-0.5v-1.9h3.8v4.8c-2.7,0.8-5.3,1.2-7.6,1.2c-1.2,0-2.3-0.1-3.2-0.2c-0.9-0.1-1.9-0.4-2.9-0.7s-1.8-1-2.3-1.8
			c-0.5-0.8-0.8-1.9-0.8-3.1v-8.3c0-1.3,0.3-2.4,0.9-3.4c0.6-0.9,1.3-1.6,2.3-2.1s2-0.8,2.9-1c1-0.2,2-0.3,3.2-0.3
			c2.5,0,4.9,0.5,7.4,1.6v4.5h-3.8V187.1z"/>
		<path class="st0" d="M222.8,189.1c0-0.1,0-0.2,0-0.3c0-0.1-0.1-0.3-0.2-0.6c-0.1-0.3-0.3-0.5-0.6-0.8c-0.2-0.2-0.6-0.4-1.1-0.6
			c-0.5-0.2-1.1-0.3-1.8-0.3c-0.7,0-1.5,0.1-2.5,0.4c-1,0.3-1.7,0.6-2.1,1v11.7h2.1v3.3h-9.2v-3.3h2.2v-20.5h-2.2v-4h7.1v9.1
			c1.1-0.7,2-1.2,2.8-1.5c0.8-0.3,1.8-0.4,3.2-0.4c2.5,0,4.4,0.5,5.6,1.6s1.8,2.7,1.8,4.9v10.8h2.2v3.3h-9.3v-3.3h2.2V189.1z"/>
		<path class="st0" d="M246.2,199.5c1.3-0.2,2.3-0.5,3-0.9l1.2,3.4c-1.4,1-3.8,1.5-7.3,1.5c-6.5,0-9.7-2-9.7-6.1v-8
			c0-4.5,2.9-6.7,8.7-6.7c5.7,0,8.5,2.2,8.5,6.7v5.6h-12.3v2c0,0.8,0.3,1.4,1,1.9c0.6,0.5,1.3,0.8,1.9,0.9c0.6,0.1,1.2,0.2,1.8,0.2
			C243.8,199.8,244.9,199.7,246.2,199.5z M245.7,191v-1.6c0-1.9-1.2-2.8-3.6-2.8c-2.5,0-3.8,0.9-3.8,2.8v1.6H245.7z"/>
		<path class="st0" d="M279,199.5c1.3-0.2,2.3-0.5,3-0.9l1.2,3.4c-1.4,1-3.8,1.5-7.3,1.5c-6.5,0-9.7-2-9.7-6.1v-8
			c0-4.5,2.9-6.7,8.7-6.7c5.7,0,8.5,2.2,8.5,6.7v5.6h-12.3v2c0,0.8,0.3,1.4,1,1.9c0.6,0.5,1.3,0.8,1.9,0.9c0.6,0.1,1.2,0.2,1.8,0.2
			C276.6,199.8,277.7,199.7,279,199.5z M278.5,191v-1.6c0-1.9-1.2-2.8-3.6-2.8c-2.5,0-3.8,0.9-3.8,2.8v1.6H278.5z"/>
		<path class="st0" d="M318.5,191.8h-12v7.7h11.2v-2.4h3.8v6h-22.2v-3.6h2.3v-20.9h-2.3v-3.3h22.2v6h-3.8v-1.8h-11.2v8.1h12V191.8z"
			/>
		<path class="st0" d="M332,190.9c1.2,0.5,2.6,1,4.1,1.3s2.9,0.9,4.1,1.8s1.9,2,1.9,3.3v0.7c0,1.4-0.5,2.5-1.4,3.3
			c-1,0.8-2,1.4-3.2,1.6c-1.2,0.3-2.6,0.4-4.1,0.4c-1.6,0-3.1-0.2-4.6-0.5c-1.5-0.4-2.7-0.8-3.5-1.2v-5h3.8v2.3
			c1.3,0.6,2.6,0.9,3.9,0.9c2.8,0,4.1-0.6,4.1-1.8v-0.5c0-0.6-0.6-1.2-1.9-1.6c-1.2-0.5-2.6-0.9-4.1-1.2c-1.5-0.3-2.9-1-4.1-1.9
			s-1.9-2.1-1.9-3.6v-0.7c0-1.3,0.3-2.4,0.8-3.2s1.3-1.4,2.2-1.8c1-0.4,1.9-0.6,2.8-0.7c0.9-0.1,1.9-0.2,3.1-0.2
			c0.9,0,2,0.1,3.2,0.3c1.2,0.2,2.1,0.4,2.8,0.5l1.1,0.3v5.1h-3.8V187c-0.8-0.2-1.7-0.4-2.6-0.4h-0.2c-1.8,0-2.9,0.2-3.5,0.5
			c-0.6,0.3-0.9,0.8-0.9,1.5v0.6C330.1,189.8,330.8,190.4,332,190.9z"/>
		<path class="st0" d="M359.5,187.1c-0.8-0.3-1.8-0.5-3-0.5h-0.7c-2.9,0-4.3,0.9-4.3,2.8v7.6c0,1.8,1.4,2.7,4.3,2.7h0.6
			c1.4,0,2.5-0.2,3.1-0.5v-1.9h3.8v4.8c-2.7,0.8-5.3,1.2-7.6,1.2c-1.2,0-2.3-0.1-3.2-0.2c-0.9-0.1-1.9-0.4-2.9-0.7s-1.8-1-2.3-1.8
			c-0.5-0.8-0.8-1.9-0.8-3.1v-8.3c0-1.3,0.3-2.4,0.9-3.4c0.6-0.9,1.3-1.6,2.3-2.1c1-0.5,2-0.8,2.9-1s2-0.3,3.2-0.3
			c2.5,0,4.9,0.5,7.4,1.6v4.5h-3.8V187.1z"/>
		<path class="st0" d="M386.1,189.3v8c0,4-2.9,6.1-8.8,6.1c-5.9,0-8.8-2-8.8-6.1v-8c0-4.5,2.9-6.7,8.8-6.7
			C383.1,182.5,386.1,184.8,386.1,189.3z M381.2,196.8v-7.4c0-1.9-1.3-2.8-3.9-2.8c-2.6,0-3.9,0.9-3.9,2.8v7.4c0,2,1.3,3,3.9,3
			C379.9,199.8,381.2,198.8,381.2,196.8z"/>
		<path class="st0" d="M391.1,199.8h2.1v-21.1h-2.1v-3.3h7v24.5h2.1v3.3h-9.2V199.8z"/>
		<path class="st0" d="M405.3,199.8h2.1v-13.5h-2.1v-3.3h7v16.9h2.1v3.3h-9.2V199.8z M407.9,176.5c0.5-0.5,1.1-0.8,1.8-0.8
			s1.4,0.3,1.9,0.8c0.5,0.5,0.8,1.1,0.8,1.9c0,0.7-0.3,1.4-0.8,1.8c-0.5,0.5-1.1,0.7-1.9,0.7s-1.4-0.2-1.8-0.7
			c-0.5-0.5-0.7-1.1-0.7-1.8C407.2,177.7,407.4,177,407.9,176.5z"/>
		<path class="st0" d="M434.5,189.1c0-0.1,0-0.2,0-0.3c0-0.1-0.1-0.3-0.2-0.6s-0.3-0.5-0.6-0.8c-0.2-0.2-0.6-0.4-1.1-0.6
			c-0.5-0.2-1.1-0.3-1.8-0.3c-0.7,0-1.5,0.1-2.5,0.4c-1,0.3-1.7,0.6-2.1,1v11.7h2.2v3.3H419v-3.3h2.1v-13.5H419v-3.3h7v1.6
			c1.1-0.7,2-1.2,2.8-1.5c0.8-0.3,1.8-0.4,3.2-0.4c2.5,0,4.4,0.5,5.6,1.6s1.8,2.7,1.8,4.9v10.8h2.2v3.3h-9.2v-3.3h2.1V189.1z"/>
		<path class="st0" d="M461.6,189.1c0-0.1,0-0.2,0-0.3c0-0.1-0.1-0.3-0.2-0.6s-0.3-0.5-0.6-0.8c-0.2-0.2-0.6-0.4-1.1-0.6
			c-0.5-0.2-1.1-0.3-1.8-0.3s-1.5,0.1-2.5,0.4c-1,0.3-1.7,0.6-2.1,1v11.7h2.1v3.3h-9.2v-3.3h2.2v-20.5h-2.2v-4h7.1v9.1
			c1.1-0.7,2-1.2,2.8-1.5c0.8-0.3,1.8-0.4,3.2-0.4c2.5,0,4.4,0.5,5.6,1.6s1.8,2.7,1.8,4.9v10.8h2.2v3.3h-9.3v-3.3h2.2V189.1z"/>
		<path class="st0" d="M492,199.8v3.3h-6.3v-1.7c-1.5,1.3-3.8,1.9-6.9,1.9c-1.9,0-3.4-0.4-4.5-1.1s-1.6-2-1.6-3.9v-1.3
			c0-0.6,0.1-1.2,0.3-1.7c0.2-0.5,0.5-1,0.9-1.3c0.4-0.4,0.8-0.7,1.2-1c0.4-0.3,0.9-0.5,1.7-0.8c0.8-0.2,1.4-0.4,1.9-0.5
			c0.5-0.1,1.2-0.3,2.2-0.4s1.7-0.2,2.2-0.3c0.5-0.1,1.3-0.2,2.4-0.3v-1.5c0-1.8-1.4-2.7-4.1-2.7H481c-1.9,0-3.1,0.2-3.6,0.5v1.5
			h-3.8v-4.8c2.6-0.9,5.2-1.3,7.8-1.3c1.2,0,2.3,0.1,3.2,0.2c0.9,0.2,1.8,0.5,2.8,0.9c1,0.5,1.7,1.2,2.2,2.2c0.5,1,0.8,2.3,0.8,3.8
			v10.2H492z M485.5,194.8c-5.2,0-7.8,0.8-7.8,2.5v0.7c0,1.2,0.8,1.8,2.4,1.8c2.4,0,4.2-0.7,5.5-2.2V194.8z"/>
	</g>
	<g>
		<path class="st1" d="M27.9,194.6h39.9c0,0-20.2-37.4-8.9-130c0.5-4.4-17.7,0-17.7,0L27.9,194.6z"/>
		<ellipse class="st2" cx="47.8" cy="49.3" rx="46" ry="23.5"/>
		<ellipse class="st2" cx="86.6" cy="54.8" rx="46" ry="23.5"/>
		<ellipse class="st2" cx="70" cy="27.1" rx="46" ry="23.5"/>
	</g>
</g>
<g id="Camada_2" class="st3">
	<text transform="matrix(-1.6122 0.251 -0.1539 -0.9881 460.6682 -150.0557)" class="st4 st5 st6">0</text>
	<text transform="matrix(1 0 0 1 188.2446 68.1888)" class="st4 st7 st8">o</text>
	<text transform="matrix(0.1015 0.9948 -0.9948 0.1015 144.1035 73.1436)" class="st4 st7 st9">O</text>
</g>
</svg>
