<?xml version="1.0" encoding="utf-8"?>
<!-- Generator: Adobe Illustrator 22.0.1, SVG Export Plug-In . SVG Version: 6.00 Build 0)  -->
<svg version="1.1" xmlns="http://www.w3.org/2000/svg" xmlns:xlink="http://www.w3.org/1999/xlink" x="0px" y="0px"
	 viewBox="0 0 500 500" style="enable-background:new 0 0 500 500;" xml:space="preserve">
<style type="text/css">
	.st0{display:none;}
	.st1{display:inline;}
	.st2{fill:#FFFFFF;}
	.st3{fill:#775B3C;}
	.st4{fill:#59753C;}
</style>
<g id="Camada_1" class="st0">
	<g class="st1">
		<path class="st2" d="M125.1,274.2c1,0.3,2,0.7,3,1.2c1,0.5,2.1,0.9,3.2,1.3c1.1,0.4,2.2,0.8,3.4,1.1c1.2,0.3,2.5,0.4,3.8,0.4
			c1.6,0,3.2-0.2,4.8-0.6c1.6-0.4,3.2-0.9,4.7-1.7c1.5-0.7,3-1.6,4.4-2.7c1.4-1,2.7-2.3,3.9-3.6c1.3-1.5,2.4-2.8,3.2-4
			c0.9-1.2,1.6-2.3,2.1-3.2c0.5-0.9,0.9-1.7,1.1-2.4c0.2-0.7,0.3-1.3,0.3-1.7c0-0.7-0.2-1.3-0.7-1.9c-0.5-0.5-1.1-1-2-1.3
			c-0.8-0.3-1.7-0.6-2.8-0.8c-1-0.2-2.1-0.2-3.2-0.2c-0.7,0-1.4,0-2.3,0.1c-0.9,0-1.8,0.1-2.7,0.1c-0.9,0-1.8,0.1-2.7,0.1
			s-1.6,0-2.2,0c-0.9,0-1.9-0.1-3-0.3c-1-0.2-2-0.6-3-1.1c-1-0.5-1.9-1.2-2.7-2c-0.8-0.8-1.5-1.9-2.1-3.1c-0.2-0.4-0.3-0.9-0.5-1.4
			c-0.1-0.5-0.2-1.1-0.2-1.8c0-0.7,0-1.3,0.2-2c0.1-0.6,0.2-1.2,0.4-1.8c0.4-1.4,1.1-2.9,2-4.4c0.9-1.5,2.1-2.9,3.4-4.3
			c1.3-1.4,2.7-2.8,4.3-4.1c1.5-1.3,3.1-2.6,4.7-3.7c1.6-1.2,3.2-2.2,4.8-3.1c1.6-0.9,3-1.7,4.4-2.4c1.9-0.9,3.8-1.6,5.8-2
			c2-0.4,3.9-0.6,5.8-0.6c1.2,0,2.2,0.2,3.3,0.5c1,0.3,1.9,0.7,2.7,1.3c0.8,0.6,1.4,1.3,1.9,2.1c0.5,0.8,0.7,1.8,0.7,2.9
			c0,0.6-0.1,1.2-0.2,1.6c-0.1,0.4-0.3,0.8-0.6,1.1c-0.2,0.3-0.5,0.5-0.8,0.6c-0.3,0.1-0.6,0.2-0.8,0.2c-0.8,0-1.5-0.1-2.1-0.3
			c-0.6-0.2-1.3-0.4-1.9-0.6s-1.2-0.4-1.8-0.6c-0.6-0.2-1.3-0.3-2-0.3c-2.1,0-4.3,0.4-6.5,1.3c-2.2,0.8-4.3,1.9-6.4,3.2
			c-2.1,1.3-4.1,2.8-5.9,4.4c-1.9,1.6-3.5,3.2-5,4.7c-0.8,0.8-1.3,1.6-1.7,2.4c-0.4,0.8-0.5,1.6-0.5,2.3c0,1.1,0.5,1.9,1.4,2.5
			c0.9,0.6,2,0.9,3.4,0.9c0.8,0,1.7,0,2.6,0c1,0,2-0.1,3-0.1c1,0,2-0.1,3-0.1c1,0,1.8-0.1,2.6-0.1c1.8,0,3.5,0.3,5.1,0.8
			c1.6,0.5,3.1,1.2,4.4,2.2c1.3,1,2.3,2.2,3,3.6c0.8,1.5,1.1,3.1,1.1,5c0,1.2-0.2,2.3-0.5,3.5c-0.3,1.2-0.8,2.4-1.4,3.6
			c-0.6,1.2-1.3,2.4-2.1,3.5c-0.8,1.2-1.6,2.3-2.5,3.4c-1.6,2-3.3,3.9-5.2,5.7c-1.9,1.8-3.9,3.3-6.1,4.7c-2.2,1.3-4.4,2.4-6.8,3.2
			c-2.4,0.8-4.9,1.2-7.4,1.2c-1.1,0-2.2-0.1-3.4-0.3c-1.2-0.2-2.3-0.5-3.4-0.9c-1.1-0.4-2.2-0.9-3.2-1.5c-1-0.6-1.9-1.3-2.6-2
			c-0.7-0.7-1.3-1.6-1.8-2.5c-0.4-0.9-0.7-1.9-0.7-3c0-0.5,0.1-1,0.2-1.5C124.1,274.4,124.5,274.2,125.1,274.2z"/>
		<path class="st2" d="M178.8,281.3c0.9-3.4,1.7-6.5,2.5-9.4c0.8-2.9,1.6-5.7,2.4-8.3s1.5-5.2,2.2-7.7c0.7-2.5,1.4-5,2.1-7.6
			c0.3-1,0.4-2,0.5-2.9c0-0.9,0.2-1.9,0.4-2.9c0.1-0.3,0.3-0.7,0.6-0.9c0.3-0.3,0.6-0.5,1-0.7c0.4-0.2,0.8-0.4,1.2-0.5
			c0.4-0.1,0.8-0.2,1.2-0.2c0.8,0,1.5,0.1,2,0.3c0.5,0.2,1,0.4,1.3,0.8c0.3,0.3,0.6,0.7,0.7,1.1c0.1,0.4,0.2,0.9,0.2,1.5
			c0,1-0.2,2-0.5,3c-0.3,1-0.7,2.1-1.2,3.3c1.4-1.1,2.7-2.1,4.2-3c1.4-0.9,2.9-1.8,4.4-2.5c1.5-0.7,3.1-1.3,4.6-1.7
			c1.6-0.4,3.2-0.6,4.9-0.6c0.8,0,1.6,0.1,2.3,0.4c0.8,0.2,1.5,0.6,2.1,1.1c0.6,0.5,1.1,1.2,1.6,2c0.4,0.8,0.7,1.9,0.7,3.1
			c1.2-0.8,2.5-1.7,3.8-2.5c1.3-0.8,2.7-1.6,4-2.3c1.4-0.7,2.7-1.2,4.1-1.6c1.4-0.4,2.7-0.6,4-0.6c1.9,0,3.5,0.3,4.8,0.8
			c1.3,0.5,2.2,1.2,3,2c0.7,0.8,1.3,1.8,1.6,3c0.3,1.1,0.5,2.3,0.5,3.6c0,1.4-0.1,2.8-0.4,4.3c-0.3,1.5-0.5,2.9-0.9,4.2
			c-0.8,3.3-1.8,6.5-2.8,9.5c-1,3-2.2,6-3.4,9c-0.3,0.7-0.6,1.5-0.9,2.3c-0.3,0.8-0.7,1.5-1.1,2.2c-0.4,0.7-0.9,1.2-1.5,1.7
			c-0.6,0.4-1.2,0.7-2,0.7c-1.7,0-2.9-0.3-3.5-0.9c-0.6-0.6-0.9-1.4-0.9-2.5c0-0.3,0-0.6,0-1c0-0.4,0.1-0.7,0.2-1.1
			c0.1-0.4,0.4-1.1,0.8-1.9c0.4-0.8,0.8-1.7,1.3-2.7s0.9-1.9,1.4-2.9c0.5-1,0.8-1.8,1-2.5c0.4-1.2,0.8-2.7,1.3-4.3
			c0.5-1.6,1-3.3,1.4-4.9c0.5-1.7,0.8-3.2,1.1-4.7c0.3-1.5,0.5-2.7,0.5-3.6c0-0.4,0-0.9-0.1-1.3c-0.1-0.4-0.2-0.8-0.5-1.1
			c-0.2-0.3-0.5-0.6-0.9-0.8c-0.4-0.2-0.9-0.3-1.5-0.3c-0.9,0-1.9,0.2-3.1,0.7c-1.2,0.5-2.4,1.1-3.7,1.9c-1.3,0.8-2.5,1.7-3.7,2.7
			c-1.2,1-2.2,2-3.1,3c-0.6,0.7-1.2,1.3-1.7,1.7c-0.5,0.4-1.1,0.8-1.6,1c-0.1,0.1-0.2,0.5-0.4,1.1c-0.2,0.6-0.5,1.4-0.8,2.3
			c-0.3,0.9-0.6,1.9-1,2.9c-0.3,1.1-0.7,2-1,2.9c-0.3,0.9-0.6,1.7-0.8,2.3c-0.2,0.6-0.3,1-0.3,1c-0.2,0.8-0.4,1.6-0.5,2.5
			c-0.1,0.8-0.3,1.7-0.4,2.4c-0.1,0.8-0.2,1.6-0.3,2.5c-0.1,0.9-0.3,1.7-0.6,2.5c-0.3,0.8-0.8,1.4-1.4,1.9c-0.6,0.5-1.5,0.7-2.6,0.7
			c-0.6,0-1.1-0.1-1.6-0.4c-0.5-0.3-0.9-0.7-1.2-1.1s-0.6-0.9-0.8-1.5c-0.2-0.6-0.3-1.1-0.3-1.7c0.7-2.6,1.3-4.9,1.9-7
			c0.6-2.1,1.3-4.1,1.9-6c0.6-1.9,1.2-3.8,1.8-5.7c0.6-1.9,1.2-4,1.7-6.3c0.1-0.5,0.3-1.1,0.3-1.6c0.1-0.5,0.1-1,0.1-1.4
			c0-0.7-0.1-1.3-0.4-1.7c-0.3-0.4-0.8-0.7-1.5-0.7c-1.2,0-2.4,0.2-3.5,0.7s-2.4,1.2-3.8,2.2c-1.4,1-2.9,2.3-4.5,3.8
			c-1.7,1.6-3.6,3.4-5.7,5.6c-0.2,0.4-0.5,1.2-0.9,2.4c-0.4,1.2-0.8,2.4-1.1,3.8c-0.4,1.3-0.7,2.6-1.1,3.7c-0.3,1.1-0.5,1.9-0.6,2.3
			c-0.3,1.2-0.5,2.2-0.6,3c-0.1,0.8-0.2,1.6-0.3,2.2c-0.1,0.3-0.1,0.9-0.3,1.7c-0.1,0.8-0.3,1.6-0.6,2.4c-0.3,0.8-0.7,1.5-1.3,2.1
			c-0.5,0.6-1.3,0.9-2.2,0.9c-1.3,0-2.4-0.4-3.3-1.1c-0.8-0.7-1.3-1.6-1.3-2.7c0-0.2,0-0.4,0-0.6
			C178.7,281.7,178.8,281.5,178.8,281.3z"/>
		<path class="st2" d="M275.7,282.3c0-0.8,0.1-1.8,0.3-3s0.3-2.6,0.3-4.3c-0.9,0.7-2,1.5-3.2,2.5s-2.3,1.9-3.6,2.7
			c-1.2,0.9-2.5,1.6-3.7,2.2c-1.2,0.6-2.4,0.9-3.4,0.9c-0.9,0-1.7-0.1-2.5-0.4s-1.4-0.6-2-1c-1.5-1.2-2.6-2.4-3.3-3.6s-1-2.6-1-4.2
			c0-0.7,0.1-1.5,0.2-2.2c0.1-0.8,0.3-1.7,0.6-2.7c1.1-4.5,3-8.8,5.6-12.6c2.7-3.9,6-7.2,9.9-9.9c1.5-1.1,3-1.7,4.6-2
			c1.5-0.3,3-0.5,4.5-0.5c0.7,0,1.4,0,2.2,0.1s1.6,0.2,2.2,0.3c0.7-0.1,1.2-0.2,1.6-0.3c0.4-0.1,0.9-0.1,1.3-0.1
			c0.9,0,1.6,0.1,2.2,0.3c0.6,0.2,1,0.5,1.4,0.9c0.3,0.4,0.6,0.8,0.8,1.3c0.2,0.5,0.2,1,0.2,1.6c0,0.7-0.1,1.5-0.3,2.1
			c-0.2,0.7-0.5,1.4-0.7,2l-5.7,22.7c-0.1,1.2-0.2,2.4-0.3,3.4c-0.1,1-0.3,2-0.5,2.9c-0.1,0.3-0.2,0.6-0.3,1
			c-0.1,0.4-0.3,0.8-0.6,1.1c-0.3,0.4-0.6,0.7-1.1,0.9s-1,0.4-1.7,0.4c-0.9,0-1.6-0.1-2.1-0.2c-0.5-0.1-0.9-0.3-1.2-0.5
			s-0.5-0.5-0.6-0.8C275.7,283,275.7,282.7,275.7,282.3z M261.3,269.2c-0.1,0.4-0.2,1-0.4,1.7c-0.1,0.7-0.2,1.5-0.2,2.2
			c0,0.8,0.1,1.5,0.3,2.1c0.2,0.6,0.7,0.9,1.5,0.9c1.2,0,2.3-0.3,3.4-0.8s2-1.2,3-1.9c1.2-1,2.5-2.1,3.8-3.4
			c1.3-1.3,2.5-2.6,3.6-3.9s2.1-2.8,3-4.3c0.9-1.5,1.5-2.9,1.9-4.3c0.2-0.8,0.4-1.8,0.6-2.9c0.2-1.1,0.2-2.1,0.2-2.9
			c0-0.4-0.1-0.7-0.3-1.1c-0.2-0.4-0.5-0.5-1-0.5c-1.4,0-2.8,0.3-4.3,0.8c-1.4,0.5-2.8,1.3-4.1,2.2c-1.3,0.9-2.6,2-3.8,3.3
			c-1.2,1.3-2.3,2.6-3.3,4c-1,1.4-1.8,2.9-2.5,4.4C262.2,266.3,261.7,267.8,261.3,269.2z"/>
		<path class="st2" d="M310.7,225c0.1-1.1,0.4-2.2,0.7-3.2c0.3-1,0.7-1.8,1.3-2.4c0.5-0.6,1.2-1,2-1c0.5,0,1,0.1,1.5,0.3
			c0.6,0.2,1.1,0.4,1.6,0.7c0.5,0.3,0.9,0.7,1.3,1.1c0.3,0.4,0.5,0.9,0.5,1.4c0,0.2,0,0.5-0.1,0.8c-0.1,0.3-0.2,0.6-0.2,0.9
			l-10.8,43.2c-0.4,1.7-0.8,3.4-1.1,4.9c-0.3,1.6-0.5,2.9-0.6,3.9v1c0,0.9-0.1,1.8-0.2,2.8c-0.1,1-0.3,2-0.6,2.8
			c-0.3,0.9-0.8,1.6-1.3,2.2c-0.6,0.6-1.3,0.9-2.2,0.9c-0.8,0-1.5-0.2-2-0.5c-0.6-0.3-1.1-0.8-1.4-1.3c-0.4-0.5-0.6-1.1-0.8-1.7
			s-0.3-1.1-0.3-1.7c0-0.5,0-1,0.1-1.7c0.1-0.7,0.2-1.4,0.3-2.1c0.1-0.7,0.3-1.5,0.4-2.2c0.1-0.7,0.3-1.4,0.4-1.9l11.1-44.2
			C310.4,227.2,310.6,226.1,310.7,225z"/>
		<path class="st2" d="M333,225c0.1-1.1,0.4-2.2,0.7-3.2c0.3-1,0.7-1.8,1.3-2.4c0.5-0.6,1.2-1,2-1c0.5,0,1,0.1,1.5,0.3
			c0.6,0.2,1.1,0.4,1.6,0.7c0.5,0.3,0.9,0.7,1.3,1.1c0.3,0.4,0.5,0.9,0.5,1.4c0,0.2,0,0.5-0.1,0.8c-0.1,0.3-0.2,0.6-0.2,0.9
			l-10.8,43.2c-0.4,1.7-0.8,3.4-1.1,4.9c-0.3,1.6-0.5,2.9-0.6,3.9v1c0,0.9-0.1,1.8-0.2,2.8c-0.1,1-0.3,2-0.6,2.8
			c-0.3,0.9-0.8,1.6-1.3,2.2c-0.6,0.6-1.3,0.9-2.2,0.9c-0.8,0-1.5-0.2-2-0.5c-0.6-0.3-1.1-0.8-1.4-1.3c-0.4-0.5-0.6-1.1-0.8-1.7
			s-0.3-1.1-0.3-1.7c0-0.5,0-1,0.1-1.7c0.1-0.7,0.2-1.4,0.3-2.1c0.1-0.7,0.3-1.5,0.4-2.2c0.1-0.7,0.3-1.4,0.4-1.9l11.1-44.2
			C332.7,227.2,332.8,226.1,333,225z"/>
		<path class="st2" d="M341.5,267.5c0-1.2,0.3-2.3,1-3.2c0.7-0.9,1.5-1.4,2.6-1.7c0.3-0.6,0.8-1.5,1.5-2.6c0.7-1.1,1.5-2.3,2.5-3.5
			c1-1.3,2.1-2.5,3.3-3.8c1.3-1.3,2.6-2.4,4.1-3.5c1.5-1,3.1-1.9,4.9-2.6c1.7-0.7,3.6-1,5.5-1c1.7,0,3.1,0.2,4.4,0.6
			c1.2,0.4,2.3,1,3.1,1.7c0.8,0.7,1.4,1.6,1.8,2.6c0.4,1,0.6,2.1,0.6,3.2c0,1-0.1,1.9-0.4,2.8c-0.4,1.6-1.2,3-2.2,4.2
			c-1.1,1.2-2.4,2.3-3.9,3.2c-1.5,0.9-3.1,1.7-4.8,2.3c-1.7,0.6-3.5,1.1-5.2,1.5c-1.7,0.4-3.4,0.7-5,0.9c-1.6,0.2-3,0.4-4.2,0.5
			c-0.3,0.5-0.5,1.2-0.7,2c-0.2,0.8-0.3,1.6-0.3,2.3c0,1.7,0.7,3,2,3.9c1.3,0.9,3.1,1.4,5.5,1.4c1.4,0,2.6-0.2,3.9-0.5
			c1.2-0.3,2.4-0.7,3.5-1.2s2.2-1,3.1-1.6c1-0.6,1.9-1.1,2.7-1.7c1-0.7,2-1.3,3-1.7c0.9-0.5,1.8-0.7,2.5-0.7s1.2,0.2,1.4,0.5
			s0.3,0.7,0.3,1.1c0,0.2,0,0.5,0,0.7s0,0.4-0.1,0.5c-0.1,0.7-0.4,1.5-0.9,2.2c-0.4,0.7-1,1.4-1.6,1.9c-3,2.4-6.1,4-9.2,5
			c-3.2,1-6.5,1.5-10.1,1.5c-0.7,0-1.5,0-2.4-0.1c-0.9-0.1-1.9-0.3-2.9-0.5c-1-0.3-2-0.6-3-1.1c-1-0.5-1.8-1.1-2.6-1.9
			c-0.8-0.8-1.4-1.8-1.9-3c-0.5-1.2-0.7-2.6-0.7-4.3c0-1.4,0.2-2.9,0.6-4.5c-0.4-0.1-0.7-0.3-1.1-0.6
			C341.6,268.6,341.5,268.1,341.5,267.5z M368.5,255.5c0.1-0.1,0.1-0.3,0.1-0.4s0-0.2,0-0.4c0-0.8-0.3-1.4-0.9-1.7
			c-0.6-0.4-1.3-0.6-2.1-0.6c-1.3,0-2.5,0.3-3.7,1c-1.2,0.7-2.4,1.5-3.5,2.5c-1.1,1-2,2.1-2.9,3.2c-0.8,1.1-1.5,2.2-1.9,3.1
			c2.1-0.2,4-0.5,5.7-0.8c1.7-0.4,3.2-0.9,4.5-1.5c1.3-0.6,2.3-1.3,3.1-2C367.7,257.1,368.2,256.4,368.5,255.5z"/>
		<path class="st2" d="M386.6,279.7c0.4-2,0.8-4.2,1.3-6.6c0.5-2.4,1-4.9,1.5-7.3c0.5-2.5,1-4.9,1.5-7.3s0.9-4.6,1.3-6.6
			c0-0.3,0-0.5,0-0.8c0-0.2,0-0.5,0-0.7c0-0.9,0.1-1.8,0.2-2.7c0.1-0.9,0.3-1.7,0.5-2.5c0.3-1.1,0.7-1.8,1.1-2.2s1-0.6,1.9-0.6
			c0.8,0,1.5,0.2,2,0.5c0.5,0.3,0.9,0.8,1.2,1.3c0.3,0.5,0.5,1.2,0.6,1.9c0.1,0.7,0.1,1.4,0.1,2.2c0,0.4,0,0.8,0,1.3
			c0,0.5,0,0.9,0,1.2c0.8-0.8,1.7-1.7,2.6-2.6s1.9-1.7,2.9-2.4c1-0.7,2.1-1.3,3.2-1.7c1.1-0.5,2.3-0.7,3.6-0.7c0.5,0,1,0,1.4,0.1
			c0.5,0.1,1,0.2,1.4,0.3c0.6,0.1,1.2,0.3,1.8,0.6c0.6,0.2,1.2,0.6,1.8,1c0.9,0.7,1.7,1.6,2.4,2.7c0.6,1.1,1,2.2,1,3.3
			c0,0.4-0.1,0.9-0.3,1.4c-0.2,0.5-0.4,1-0.7,1.4c-0.3,0.4-0.7,0.8-1.1,1c-0.4,0.3-0.8,0.4-1.3,0.4s-1.1-0.1-1.8-0.4
			c-0.7-0.2-1.3-0.6-1.7-1c-0.2-0.2-0.4-0.4-0.6-0.7c-0.2-0.3-0.4-0.6-0.6-0.9c-0.2-0.3-0.4-0.6-0.5-0.9c-0.2-0.3-0.3-0.5-0.4-0.5
			c-0.1,0-0.3,0-0.5-0.1c-0.2,0-0.3,0-0.5,0c-1.5,0-2.9,0.4-4.2,1.1s-2.6,1.7-3.7,2.7c-1.2,1.1-2.2,2.2-3.2,3.5
			c-1,1.2-1.8,2.3-2.5,3.3c-0.6,2.3-1.2,4.8-1.9,7.4c-0.7,2.6-1.4,5.4-2.1,8.3v1.1c0,0.9,0,1.7-0.1,2.6s-0.2,1.7-0.5,2.4
			c-0.3,0.4-0.8,0.8-1.4,1.1c-0.6,0.3-1.3,0.5-2,0.5c-1.2,0-2.1-0.4-2.7-1.2c-0.6-0.8-0.9-1.7-0.9-2.8
			C386.4,280.7,386.5,280.2,386.6,279.7z"/>
		<path class="st2" d="M137.3,339h3.8v4.9c-0.6,0.3-2,0.6-4.1,0.8c-2.1,0.2-4.2,0.3-6.1,0.3c-7.9,0-11.9-2.5-11.9-7.5v-12.7
			c0-1.6,0.4-3,1.2-4.1c0.8-1.1,1.9-2,3.2-2.5c1.3-0.5,2.6-0.9,3.8-1.1c1.2-0.2,2.4-0.3,3.6-0.3c1.6,0,3.6,0.2,5.8,0.5
			s3.7,0.6,4.3,0.9v5.2h-3.8v-1.8c-1.2-0.4-3.1-0.6-5.7-0.6h-0.7c-0.5,0-1,0-1.6,0.1c-0.6,0.1-1.3,0.3-2.2,0.5
			c-0.9,0.3-1.7,0.7-2.2,1.4c-0.6,0.7-0.9,1.6-0.9,2.7v11.6c0,1,0.3,1.8,0.9,2.4c0.6,0.6,1.3,1.1,2.2,1.3c0.9,0.2,1.6,0.4,2.2,0.5
			s1.1,0.1,1.6,0.1h1.5c2.3,0,4-0.3,5-0.8V339z"/>
		<path class="st2" d="M161,328.3c-0.9,0-2.3,0.1-4.1,0.4c-1.9,0.3-3,0.6-3.4,1v11.7h3.3v3.3h-10.3v-3.3h2.1v-13.5h-2.1v-3.3h7v1.6
			c2-1.3,4.5-1.9,7.5-1.9V328.3z"/>
		<path class="st2" d="M177.1,341.1c1.3-0.2,2.3-0.5,3-0.9l1.2,3.4c-1.4,1-3.8,1.5-7.3,1.5c-6.5,0-9.7-2-9.7-6.1v-8
			c0-4.5,2.9-6.7,8.7-6.7c5.7,0,8.5,2.2,8.5,6.7v5.6h-12.3v2c0,0.8,0.3,1.4,1,1.9c0.6,0.5,1.3,0.8,1.9,0.9c0.6,0.1,1.2,0.2,1.8,0.2
			C174.7,341.4,175.8,341.3,177.1,341.1z M176.6,332.7v-1.6c0-1.9-1.2-2.8-3.6-2.8c-2.5,0-3.8,0.9-3.8,2.8v1.6H176.6z"/>
		<path class="st2" d="M199.4,328.8c-0.8-0.3-1.8-0.5-3-0.5h-0.7c-2.9,0-4.3,0.9-4.3,2.8v7.6c0,1.8,1.4,2.7,4.3,2.7h0.6
			c1.4,0,2.5-0.2,3.1-0.5V339h3.8v4.8c-2.7,0.8-5.3,1.2-7.6,1.2c-1.2,0-2.3-0.1-3.2-0.2c-0.9-0.1-1.9-0.4-2.9-0.7s-1.8-1-2.3-1.8
			c-0.5-0.8-0.8-1.9-0.8-3.1v-8.3c0-1.3,0.3-2.4,0.9-3.4c0.6-0.9,1.3-1.6,2.3-2.1s2-0.8,2.9-1c1-0.2,2-0.3,3.2-0.3
			c2.5,0,4.9,0.5,7.4,1.6v4.5h-3.8V328.8z"/>
		<path class="st2" d="M222.8,330.7c0-0.1,0-0.2,0-0.3c0-0.1-0.1-0.3-0.2-0.6c-0.1-0.3-0.3-0.5-0.6-0.8c-0.2-0.2-0.6-0.4-1.1-0.6
			c-0.5-0.2-1.1-0.3-1.8-0.3c-0.7,0-1.5,0.1-2.5,0.4c-1,0.3-1.7,0.6-2.1,1v11.7h2.1v3.3h-9.2v-3.3h2.2V321h-2.2v-4h7.1v9.1
			c1.1-0.7,2-1.2,2.8-1.5c0.8-0.3,1.8-0.4,3.2-0.4c2.5,0,4.4,0.5,5.6,1.6s1.8,2.7,1.8,4.9v10.8h2.2v3.3h-9.3v-3.3h2.2V330.7z"/>
		<path class="st2" d="M246.2,341.1c1.3-0.2,2.3-0.5,3-0.9l1.2,3.4c-1.4,1-3.8,1.5-7.3,1.5c-6.5,0-9.7-2-9.7-6.1v-8
			c0-4.5,2.9-6.7,8.7-6.7c5.7,0,8.5,2.2,8.5,6.7v5.6h-12.3v2c0,0.8,0.3,1.4,1,1.9c0.6,0.5,1.3,0.8,1.9,0.9c0.6,0.1,1.2,0.2,1.8,0.2
			C243.8,341.4,244.9,341.3,246.2,341.1z M245.7,332.7v-1.6c0-1.9-1.2-2.8-3.6-2.8c-2.5,0-3.8,0.9-3.8,2.8v1.6H245.7z"/>
		<path class="st2" d="M279,341.1c1.3-0.2,2.3-0.5,3-0.9l1.2,3.4c-1.4,1-3.8,1.5-7.3,1.5c-6.5,0-9.7-2-9.7-6.1v-8
			c0-4.5,2.9-6.7,8.7-6.7c5.7,0,8.5,2.2,8.5,6.7v5.6h-12.3v2c0,0.8,0.3,1.4,1,1.9c0.6,0.5,1.3,0.8,1.9,0.9c0.6,0.1,1.2,0.2,1.8,0.2
			C276.6,341.4,277.7,341.3,279,341.1z M278.5,332.7v-1.6c0-1.9-1.2-2.8-3.6-2.8c-2.5,0-3.8,0.9-3.8,2.8v1.6H278.5z"/>
		<path class="st2" d="M318.5,333.5h-12v7.7h11.2v-2.4h3.8v6h-22.2v-3.6h2.3v-20.9h-2.3V317h22.2v6h-3.8v-1.8h-11.2v8.1h12V333.5z"
			/>
		<path class="st2" d="M332,332.6c1.2,0.5,2.6,1,4.1,1.3s2.9,0.9,4.1,1.8s1.9,2,1.9,3.3v0.7c0,1.4-0.5,2.5-1.4,3.3
			c-1,0.8-2,1.4-3.2,1.6c-1.2,0.3-2.6,0.4-4.1,0.4c-1.6,0-3.1-0.2-4.6-0.5c-1.5-0.4-2.7-0.8-3.5-1.2v-5h3.8v2.3
			c1.3,0.6,2.6,0.9,3.9,0.9c2.8,0,4.1-0.6,4.1-1.8v-0.5c0-0.6-0.6-1.2-1.9-1.6c-1.2-0.5-2.6-0.9-4.1-1.2c-1.5-0.3-2.9-1-4.1-1.9
			s-1.9-2.1-1.9-3.6v-0.7c0-1.3,0.3-2.4,0.8-3.2s1.3-1.4,2.2-1.8c1-0.4,1.9-0.6,2.8-0.7c0.9-0.1,1.9-0.2,3.1-0.2
			c0.9,0,2,0.1,3.2,0.3c1.2,0.2,2.1,0.4,2.8,0.5l1.1,0.3v5.1h-3.8v-1.7c-0.8-0.2-1.7-0.4-2.6-0.4h-0.2c-1.8,0-2.9,0.2-3.5,0.5
			c-0.6,0.3-0.9,0.8-0.9,1.5v0.6C330.1,331.5,330.8,332.1,332,332.6z"/>
		<path class="st2" d="M359.5,328.8c-0.8-0.3-1.8-0.5-3-0.5h-0.7c-2.9,0-4.3,0.9-4.3,2.8v7.6c0,1.8,1.4,2.7,4.3,2.7h0.6
			c1.4,0,2.5-0.2,3.1-0.5V339h3.8v4.8c-2.7,0.8-5.3,1.2-7.6,1.2c-1.2,0-2.3-0.1-3.2-0.2c-0.9-0.1-1.9-0.4-2.9-0.7s-1.8-1-2.3-1.8
			c-0.5-0.8-0.8-1.9-0.8-3.1v-8.3c0-1.3,0.3-2.4,0.9-3.4c0.6-0.9,1.3-1.6,2.3-2.1c1-0.5,2-0.8,2.9-1s2-0.3,3.2-0.3
			c2.5,0,4.9,0.5,7.4,1.6v4.5h-3.8V328.8z"/>
		<path class="st2" d="M386.1,330.9v8c0,4-2.9,6.1-8.8,6.1c-5.9,0-8.8-2-8.8-6.1v-8c0-4.5,2.9-6.7,8.8-6.7
			C383.1,324.2,386.1,326.4,386.1,330.9z M381.2,338.5v-7.4c0-1.9-1.3-2.8-3.9-2.8c-2.6,0-3.9,0.9-3.9,2.8v7.4c0,2,1.3,3,3.9,3
			C379.9,341.4,381.2,340.5,381.2,338.5z"/>
		<path class="st2" d="M391.1,341.4h2.1v-21.1h-2.1V317h7v24.5h2.1v3.3h-9.2V341.4z"/>
		<path class="st2" d="M405.3,341.4h2.1v-13.5h-2.1v-3.3h7v16.9h2.1v3.3h-9.2V341.4z M407.9,318.2c0.5-0.5,1.1-0.8,1.8-0.8
			s1.4,0.3,1.9,0.8c0.5,0.5,0.8,1.1,0.8,1.9c0,0.7-0.3,1.4-0.8,1.8c-0.5,0.5-1.1,0.7-1.9,0.7s-1.4-0.2-1.8-0.7
			c-0.5-0.5-0.7-1.1-0.7-1.8C407.2,319.3,407.4,318.7,407.9,318.2z"/>
		<path class="st2" d="M434.5,330.7c0-0.1,0-0.2,0-0.3c0-0.1-0.1-0.3-0.2-0.6s-0.3-0.5-0.6-0.8c-0.2-0.2-0.6-0.4-1.1-0.6
			c-0.5-0.2-1.1-0.3-1.8-0.3c-0.7,0-1.5,0.1-2.5,0.4c-1,0.3-1.7,0.6-2.1,1v11.7h2.2v3.3H419v-3.3h2.1v-13.5H419v-3.3h7v1.6
			c1.1-0.7,2-1.2,2.8-1.5c0.8-0.3,1.8-0.4,3.2-0.4c2.5,0,4.4,0.5,5.6,1.6s1.8,2.7,1.8,4.9v10.8h2.2v3.3h-9.2v-3.3h2.1V330.7z"/>
		<path class="st2" d="M461.6,330.7c0-0.1,0-0.2,0-0.3c0-0.1-0.1-0.3-0.2-0.6s-0.3-0.5-0.6-0.8c-0.2-0.2-0.6-0.4-1.1-0.6
			c-0.5-0.2-1.1-0.3-1.8-0.3s-1.5,0.1-2.5,0.4c-1,0.3-1.7,0.6-2.1,1v11.7h2.1v3.3h-9.2v-3.3h2.2V321h-2.2v-4h7.1v9.1
			c1.1-0.7,2-1.2,2.8-1.5c0.8-0.3,1.8-0.4,3.2-0.4c2.5,0,4.4,0.5,5.6,1.6s1.8,2.7,1.8,4.9v10.8h2.2v3.3h-9.3v-3.3h2.2V330.7z"/>
		<path class="st2" d="M492,341.4v3.3h-6.3v-1.7c-1.5,1.3-3.8,1.9-6.9,1.9c-1.9,0-3.4-0.4-4.5-1.1s-1.6-2-1.6-3.9v-1.3
			c0-0.6,0.1-1.2,0.3-1.7c0.2-0.5,0.5-1,0.9-1.3c0.4-0.4,0.8-0.7,1.2-1c0.4-0.3,0.9-0.5,1.7-0.8c0.8-0.2,1.4-0.4,1.9-0.5
			c0.5-0.1,1.2-0.3,2.2-0.4s1.7-0.2,2.2-0.3c0.5-0.1,1.3-0.2,2.4-0.3V331c0-1.8-1.4-2.7-4.1-2.7H481c-1.9,0-3.1,0.2-3.6,0.5v1.5
			h-3.8v-4.8c2.6-0.9,5.2-1.3,7.8-1.3c1.2,0,2.3,0.1,3.2,0.2c0.9,0.2,1.8,0.5,2.8,0.9c1,0.5,1.7,1.2,2.2,2.2c0.5,1,0.8,2.3,0.8,3.8
			v10.2H492z M485.5,336.5c-5.2,0-7.8,0.8-7.8,2.5v0.7c0,1.2,0.8,1.8,2.4,1.8c2.4,0,4.2-0.7,5.5-2.2V336.5z"/>
	</g>
	<g class="st1">
		<path class="st3" d="M27.9,336.3h39.9c0,0-20.2-37.4-8.9-130c0.5-4.4-17.7,0-17.7,0L27.9,336.3z"/>
		<ellipse class="st4" cx="47.8" cy="190.9" rx="46" ry="23.5"/>
		<ellipse class="st4" cx="86.6" cy="196.5" rx="46" ry="23.5"/>
		<ellipse class="st4" cx="70" cy="168.8" rx="46" ry="23.5"/>
	</g>
</g>
<g id="Camada_2">
	<g>
		<path class="st2" d="M47.8,257.3c-0.2-1,0.6-1.6,2.2-1.9c1.6-0.3,2.5,0.1,2.6,1.1C52.8,257.5,51.2,257.8,47.8,257.3z M336.1,455.3
			c-1.6,0.3-2.6-0.9-3-3.3c-0.2-1.5,0-2.5,0.7-3.2c-3.1,1.5-5.5,3.4-7.2,5.7c-1.7,2.3-3.3,4.3-4.6,6c-6.1,3-11.4,5.1-15.7,6.2
			c-4.4,1.2-11.4,2.5-21,4c-1.6,0.3-3.4,0.4-5.5,0.5c-2,0.1-4.3,0.3-6.7,0.7l-8.5,1.3l-36.6-4.9l-13.2-5.5c-3.5-1.5-5.4-3-5.6-4.4
			l1-1.7c-5.1-0.7-10.4-2.2-16.1-4.3c-5.7-2.1-8.7-4.5-9.1-6.9c-0.2-1,0-1.6,0.3-1.9c0.4-0.3,0.5-1,0.3-1.9l-0.3-2.2l-4.8,0.8
			c-1.6,0.3-3.6-0.8-6.1-3.2c-2.4-2.4-3.7-4.1-3.9-5.1s0.1-3.4,0.7-7.3s0.9-6.3,0.7-7.3c-0.1-0.5-0.7-1.5-1.7-3.1
			c-1.1-1.6-2.1-2.6-2.9-3l-3.6,0.6c-1.6,0.3-3.7,1.1-6.4,2.5c-2.7,1.4-4.4,2.4-5.1,3.1l-3.6,0.6c-0.4-2.5,0.9-4.6,4-6.3
			c3-1.7,4.1-2.5,3.3-2.4l1.2-0.2l2.5,0.4l-0.5-3c-0.8,0.1-2.6,0.2-5.6,0.1c-2.9-0.1-5.1,0-6.8,0.3l-1.2,0.2
			c-1.5,0.7-2.9,2.2-4.3,4.5c-1.1-6.9-4.8-9.9-11.3-8.9c-2.4,0.4-4.6,2-6.7,4.8l-1.8-3.5c-0.2-1,0.7-2.5,2.4-4.5
			c1.8-2,3.4-3.2,5-3.4c-0.3-2-2.1-2.7-5.3-2.2l0.7-3.2c-0.2-1-1.6-2.3-4.3-3.9c-2.7-1.6-4.1-2.6-4.2-3.1c-0.8,0.1-1.9,0.8-3.4,2
			l-7.9,5l-3.1-20c-0.8,0.1-2,0.6-3.5,1.3c-1.5,0.7-3.1,1.2-4.7,1.5c-0.1-0.5-0.7-1.5-1.7-3.1c-1.1-1.6-1.6-2.7-1.7-3.1
			c-0.2-1,0.1-2.3,0.6-3.9c0.6-1.6,0.8-2.9,0.6-3.9l-6.7,4.8l-2.1-13.3l3.6-0.6c0.7-0.6,1.1-1.2,1-1.7l-0.3-2.2l-5.3-2.2l-0.7-4.4
			l-4.8,0.8c0.1,0.5,0.3-0.6,0.8-3.2c0.4-2.6,3.1-4.3,7.9-5l-6.9-12.6c0.4,2.5,0,5.3-1.2,8.5c-1.1,3.2-2.9,5-5.3,5.4l-0.6-3.7
			c-0.2-1.5,0.1-2.3,0.9-2.4l5.2-14.5c-0.7,0.6-1.8,1.4-3.3,2.4c-1.5,1-2.7,1.6-3.5,1.7l-3.6,0.6c-3.5-6.5-6.2-14.6-8.1-24.2
			s-3.1-15.8-3.5-18.8l4.8-0.8l4.5-18.9l-4.1-2.4l3.1-4.3l-4.8,0.8c-0.5-3,0-5.7,1.2-8.2c1.3-2.5,2.7-5.2,4.3-8.3
			c1.6-3,2.9-6.4,4-10.1c1.1-3.7,1.2-8.3,0.3-13.7c-0.2-1.5-1.2-2.6-3-3.3l-0.5-3c-0.6-4,0-8.2,1.7-12.8c1.8-4.6,3.6-8.8,5.5-12.6
			c-2.6-1.1-4.1-2.2-4.2-3.1l-1.2-7.4l4-5.9c9.6-12.6,17.5-22.7,23.8-30.3c6.3-7.6,9-11.3,8.2-11.1l11.5-5.6l5-23.5
			c0.7-1.1,0.9-2.4,0.6-3.9c-0.1-0.5,0.2-1.1,1-1.7l3.5,14.6c0.8-0.1,1.6-1.4,2.5-3.8c0.9-2.4,1.9-5.1,3.1-8.1
			c1.2-3,2.2-5.7,3.1-8.1c0.9-2.4,1.7-3.7,2.5-3.8l3.6-0.6c0.8-0.1,1.5-1.2,2-3.3c0.5-2.1,1.1-3.5,1.8-4.1l-0.1-0.7
			c3.2-0.5,4.9-0.1,5.1,1.1s1.1,1.7,2.7,1.5c1.6-0.3,2.9-1.1,3.9-2.5c1-1.4,2-3.2,2.9-5.4c0.9-2.2,2.2-4.3,4-6.3
			c1.8-2,4.9-4.2,9.5-6.4l3.6-0.6c-0.1-0.5,0.3-1.1,1-1.7c0.7-0.6,1.4-1.5,2.1-2.6l3.2-3.5l4.8-0.8c-1.5,1.2-2.8,3.2-4,5.9
			c-1.2,2.7-1.8,4.6-1.6,5.6l0.5,3c3.6-3.1,7-6.8,10-11.1s5.4-6.5,7-6.8l2.4,7.2l2.5,0.4l2.6-7.2l4,1.7c1.8,0.7,3.1,1,3.9,0.9
			c0.8-0.1,2.1-0.8,4-2.1c1.9-1.3,3.2-2.3,3.9-2.9l-8.9-1.6c0.8-0.1,2.2-0.5,4.2-1c2-0.6,3.4-0.9,4.2-1s2-0.2,3.7-0.2
			c1.6,0,2.9-0.1,3.7-0.2l4.1,2.4l19.3-3l2.7,1.1c1.8,0.7,2.7,1.4,2.8,1.8l3.6-0.6c-0.4-2.5,1.8-4.7,6.4-6.7c4.7-2,7.4-3,8.2-3.2
			l3.7,0.2c0.9,0.4,2.4,2.2,4.6,5.4c2.1,3.2,3.7,5.5,4.8,6.8l3.6-0.6c-1.8-0.7-2.8-1.8-3-3.3c-0.3-2,0.3-3.1,1.9-3.3
			c2.4-0.4,3.8,0.4,4.1,2.4c0.2,1.5,0,2.5-0.7,3.2l9.2-4.5l0.8,5.2l3.4-2c0.1,0.5,0.9,1.5,2.3,3.1c1.5,1.5,2.2,2.6,2.3,3.1l6.7-4.8
			l0.8,5.2L335,35l0.7,4.4c-4,0.6-8.2,1.4-12.6,2.3c-4.4,0.9-6.4,2.6-6,5.1l1.1-0.9c1.6-0.3,3.6,0.7,6,2.9c2.4,2.2,4,3.2,4.8,3
			l3.7,0.2c4-0.6,6.5-2.3,7.3-4.9c0.8-2.7,4.5-4.5,10.9-5.5c3.2-0.5,5.4,1.3,6.4,5.5s2.6,7.6,4.7,10.3c0.2,1,0.3,3.2,0.4,6.8
			s0.3,5.8,0.4,6.8l7.2-1.1c0.3,2,1.4,3.6,3.2,4.8c1.9,1.2,3,3.1,3.3,5.6c0.3,2-0.7,3.2-3.2,3.5l2.6,1.1c0.9,0.4,1.4,1,1.6,2
			l8.9,1.6c0.1,0.5,0.8,0.9,2.1,1.2c1.3,0.3,2,1,2.2,1.9L392,99l6.6-5.6c0.2,1.5-0.1,3.2-1.1,5.1c-0.9,1.9-1.3,3.4-1.2,4.4
			c0.3,2,0.9,4.3,1.7,6.9c0.8,2.7,1.3,4.5,1.5,5.5c1.6-0.3,3.1-1.1,4.6-2.6s2.9-2.4,4.5-2.6c0.8-0.1,2.7,1.3,5.7,4.4s4.6,5.9,5,8.3
			c-3.2,0.5-4.7,1.7-4.4,3.7c0.1,0.5,0.9,2,2.6,4.5c1.6,2.5,2.9,4.2,3.9,5.1l4.1,2.4c3.4,6,6.4,12.2,9.1,18.3
			c2.6,6.2,4.2,11.2,4.8,15.2c0.1,0.5-0.2,1.1-1,1.7l-2.2,1.9l0.6,3.7c0.1,0.5,0.9,1.5,2.3,3.1c1.5,1.5,2.2,2.6,2.3,3.1l5,31.9
			c0.1,0.5-0.2,1.1-1,1.7l-2.2,1.9l-3.7-0.2c0.1,0.5,0,1.1-0.3,1.9s-0.4,1.5-0.3,1.9c0.9,0.4,2.6,0.7,5.1,1.1
			c2.5,0.4,3.8,0.8,3.9,1.3l1.6,10.4c0.4,2.5-0.6,5.5-2.9,9.2c-2.3,3.6-3.3,6.7-2.9,9.2l5.3,2.2l0.6,3.7c-0.7,0.6-2,3.1-3.8,7.4
			c-1.8,4.3-2.7,6.7-2.6,7.2l0.6,3.7c-4.3,9.8-6,17.1-5.2,22.1l-3.6,0.6c0.1,0.5,0.4,1.5,1.1,2.9s1,2.6,1.2,3.6l-9.9,16l4.8-0.8
			c0.1,0.5,0,1-0.4,1.6c-0.3,0.6-0.4,1.1-0.4,1.6l-5.5,12.2l-6-6.7c0.1,0.5-0.4,1.1-1.6,1.8s-1.7,1.3-1.6,1.8l2.2,14.1
			c0.5,3-0.6,6.9-3.1,11.9c-2.5,4.9-8.1,9.1-16.6,12.5c2.5,0.1,3.9,1.2,4.2,3.1l0.5,3l-4.8,0.8l1,6.7l-9.7,1.5l1.6,10.4l-12.1,1.9
			c0.1,0.5,0.8,1.4,2.3,2.7s2.2,2.4,2.4,3.4c0.1,0.5-1.8,1.5-5.7,3.2l-7,2.6c-2.4,0.4-5.1,0.7-7.9,0.9c-2.8,0.2-4.7,0.4-5.5,0.5
			l2.8,17.8l-4.1-2.4l-5.3,5.4l1-1.7c-0.3-2-1.7-2.8-4.1-2.4c-1.6,0.3-2.3,1.4-1.9,3.3c0.4,2.5,1.4,3.6,3,3.3l-5.1,6.9
			c-0.7,0.6-1,1.7-0.7,3.2l-4-1.7l-0.6,3.9L336.1,455.3z M64.1,282.8c1.6-0.3,2.2-1.6,1.8-4.1c-0.3-2-1.3-2.8-2.9-2.6
			c-1.6,0.3-2.3,1.4-2,3.3L64.1,282.8z M62.4,223.9l-0.7-4.4c1.6-0.3,2.5,0.4,2.8,1.8L62.4,223.9z M65.2,289.5l1.2-0.2
			c0.7-0.6,1.1-1.2,1-1.7l-1.4-1.3C64.3,286.6,64.1,287.7,65.2,289.5z M71.4,233.9c0.6-1.1,0.8-2.7,0.5-4.6l-0.3-2.2
			c-0.1-0.5-0.6-0.9-1.4-1.3c0.3,2,0,3.8-1,5.5s-1.3,3.5-1,5.5l1.3,0.6L71.4,233.9z M72,309.7c1.6-0.3,2.2-1.6,1.8-4.1
			c-0.3-2-1.3-2.8-2.9-2.6c-1.6,0.3-2.3,1.4-2,3.3L72,309.7z M77.4,217c1.6-0.3,2.2-1.6,1.8-4.1c-0.3-2-1.3-2.8-2.9-2.6l-1.2,0.2
			c-0.3-2-1.3-2.8-2.9-2.6c-2.4,0.4-3.5,1.6-3.2,3.5c0.4,2.5,1.8,3.5,4.2,3.1l1.2-0.2L77.4,217z M73.6,295.8l-3.6,0.6l0.6,3.7
			L73.6,295.8z M73.3,190.3c1.6-0.3,2.2-1.6,1.8-4.1c-0.3-2-1.3-2.8-2.9-2.6c-1.6,0.3-2.3,1.4-1.9,3.3L73.3,190.3z M74.3,197
			l-3.6,0.6l0.6,3.7l3.6-0.6L74.3,197z M74.4,213.7c-0.2-1.5,0-2.5,0.7-3.2L74.4,213.7z M80.2,259.1c1.6-0.3,2.2-1.6,1.8-4.1
			c-0.3-2-1.3-2.8-2.9-2.6c-2.4,0.4-3.5,1.6-3.2,3.5L80.2,259.1z M79.7,287.2c2.4-0.4,3.4-1.8,3.1-4.3c-0.3-2-1.7-2.8-4.1-2.4
			c-0.8,0.1-1,1.2-0.7,3.2L79.7,287.2z M81.9,301.3c1.6-0.3,2.3-1.1,2.1-2.6l-1.3-0.6C81,298.4,80.8,299.5,81.9,301.3z M87.7,307.2
			c1.6-0.3,2.2-1.6,1.8-4.1c-0.3-2-1.3-2.8-2.9-2.6c-2.4,0.4-3.5,1.6-3.2,3.5L87.7,307.2z M91.3,250.5c1.6-0.3,2.2-1.6,1.8-4.1
			c-0.3-2-1.3-2.8-2.9-2.6c-2.4,0.4-3.5,1.6-3.2,3.5L91.3,250.5z M94.2,348.7c1.6-0.3,2.2-1.6,1.8-4.1c-0.3-2-1.3-2.8-2.9-2.6
			c-2.4,0.4-3.5,1.6-3.2,3.5L94.2,348.7z M94.5,303.2c2.4-0.4,3.4-1.8,3.1-4.3c-0.3-2-1.7-2.8-4.1-2.4c-1.6,0.3-2.3,1.4-2,3.3
			L94.5,303.2z M94.6,327.4c1.6-0.3,2.2-1.6,1.8-4.1c-0.3-2-1.3-2.8-2.9-2.6c-1.6,0.3-2.3,1.4-1.9,3.3L94.6,327.4z M94.5,120.2
			c-1.8-0.7-2.7-1.4-2.8-1.8c-0.2-1,0.6-1.6,2.2-1.9C94.7,116.4,94.9,117.6,94.5,120.2z M96.2,154.9c1.6-0.3,2.2-1.6,1.8-4.1
			c-0.3-2-1.3-2.8-2.9-2.6c-2.4,0.4-3.5,1.6-3.2,3.5L96.2,154.9z M97.4,369.5c1.6-0.3,2.3-1.1,2.1-2.6l-1.4-1.3
			c-1.6,0.3-2.3,0.9-2.2,1.9L97.4,369.5z M103.9,283.5c1.6-0.3,2.2-1.6,1.8-4.1c-0.3-2-1.3-2.8-2.9-2.6s-2.3,1.4-2,3.3L103.9,283.5z
			 M102.4,298.1c0.8-0.1,1.1-0.9,0.9-2.4l-1.3-0.6C101.2,295.3,101.3,296.3,102.4,298.1z M103.2,104.4c-0.3-2,0.4-4.2,2-6.8
			c1.7-2.5,3.3-3.9,4.9-4.2l1,6.7c-0.7,0.6-2.3,1.4-4.6,2.2L103.2,104.4z M107.9,110.6c-1.6,0.3-2.6-0.9-3-3.3
			c-0.3-2,0.3-3.1,1.9-3.3c2.4-0.4,3.8,0.4,4.1,2.4L107.9,110.6z M107.2,384.7c2.4-0.4,3.9-1.5,4.4-3.3c0.5-1.9,1.4-4.4,2.5-7.6
			l-7.4,8L107.2,384.7z M115.3,404.7c-2.4,0.4-3.8-0.7-4.2-3.1c-0.3-2,0.8-3.2,3.2-3.5c1.6-0.3,2.6,0.6,2.9,2.6L115.3,404.7z
			 M126.2,164.6c-0.2-1.5-0.9-4.4-2-8.8c-1.1-4.4-1.7-7.1-1.9-8.1L111.7,135l0.1,24.3l8.4-1.3l1.2,7.4L126.2,164.6z M117,264.7
			c1.6-0.3,2.2-1.6,1.8-4.1c-0.4-2.5-1.4-3.6-3-3.3c-1.6,0.3-2.2,1.6-1.8,4.1L117,264.7z M117.4,394.5c-1.6,0.3-2.6-0.9-3-3.3
			c-0.3-2,0.4-3.1,2-3.3s2.6,0.6,2.9,2.6L117.4,394.5z M255.2,63.3c-1.6,0.3-2.6-0.9-3-3.3c-0.3-2,0.3-3.1,1.9-3.3l1.2-0.2
			c-0.9-0.4-4.1-0.1-9.8,0.8c-4,0.6-11,2.5-20.8,5.5c-9.8,3-17,8.5-21.6,16.3l-3.7-0.2l-3.2,3.5c-2.9,2.5-4.3,4.2-4.1,5.2l-4.8,0.8
			c-0.7,0.6-2,2.1-3.7,4.4c-1.7,2.3-3.6,4.7-5.7,7.3c-2.1,2.6-4,5-5.7,7.3c-1.7,2.3-2.9,4-3.5,5.1c0.4,2.5-2.3,6.3-8.1,11.5
			c-5.8,5.2-8.5,9.3-8,12.3l-4.9,0c0.2,1-2.7,3.6-8.7,7.8c-5.9,4.2-8.4,9.5-7.4,16l0.6,3.7c0.1,0.5,0.9,1.5,2.3,3.1
			c1.5,1.5,2.7,2.5,3.5,2.9l0.6,3.7c-2.4,5.9-3.6,10.3-3.5,13.1c0,2.8-1.6,7-4.9,12.5l-8.4,25.6l0.6,3.7c0.2,1-0.5,4.6-2,10.9
			c-1.5,6.3-2.2,10-2,10.9l0.5,3c0.1,0.5,0.7,1.5,1.7,3.1c1.1,1.6,2.1,2.6,2.9,3l1.2,7.4c-1.5,1.2-2.2,3-2.3,5.3
			c-0.1,2.3-1.2,4.4-3.4,6.2l9.4,13l1.5,9.6c0.2,1,1.7,4,4.5,9.2c2.9,5.1,6.2,10.5,10,16.3c3.8,5.7,7.7,10.8,11.7,15.3
			c4,4.4,7.2,6.5,9.6,6.1l0.6,3.7l-2.2,1.9c-1.5,1.2-2.1,2.1-2.1,2.6l8.5-1.3l2.7,17l2.4-0.4l-1-6.7l4.8-0.8c3.8,3,7.1,6,10.1,9.1
			c2.9,3.1,9.9,5.5,20.9,7.4l0.5,3c-1.5,1.2-2.7,3.7-3.8,7.4c-1.1,3.7-1.9,6.4-2.5,8l4.2,3.1c-0.2-1,0-2.4,0.6-4.3
			c0.5-1.9,1.6-3.2,3.1-3.9l3.6-0.6l9.4,13l2.7,17c-1-1.4-3.1-2.7-6.2-4c-3.1-1.3-5-1.9-5.8-1.7c-1.6,0.3-3.3,1.4-5,3.4
			c-1.7,2-2.5,3.8-2.3,5.3c-3.5-1.5-5.4-3-5.6-4.4l0.9-2.4l-6.7,4.8l-4.8,0.8c-0.8,0.1-1.7-0.2-2.6-1.1s-1.5-1.5-1.6-2l-1.6-10.4
			c-0.6,1.6-2.3,3.4-5.3,5.4c-3,2-4.3,4.2-3.9,6.7l26.2,17.2l0.3,2.2c4-0.6,7.8-0.3,11.3,0.9c3.5,1.2,7.4,2.4,11.7,3.5
			c4.3,1.1,9.6,2,15.9,2.8s14.7,0.4,25.2-1.3c5.7-0.9,9.6-1.9,11.9-3c2.3-1.1,3.8-2.4,4.4-3.7s1.1-2.4,1.3-3.2
			c0.3-0.8,1.2-1.3,2.9-1.6l2.4-0.4c0.8-0.1,1.6,0,2.5,0.4c1.5-1.2,4.8-3.8,10-7.6s7.6-7,7.2-9.5l4.8-0.8c-0.2-1.5,0.2-2.9,1.2-4.4
			c1-1.4,1.5-2.4,1.4-2.9l3,3.3c-0.4-2.5,0.9-5.1,3.7-7.8c2.9-2.7,5.5-4.3,7.9-4.7l19.8-23.6c0.8-5.7,3.6-12.7,8.5-21.1
			c4.9-8.4,9.6-19,14.2-31.8l8.3-26.3c1.4-1.7,2-4.4,1.9-7.9s-0.3-5.8-0.4-6.8l-1.2,0.2c-0.2-1-0.7-2-1.7-3.1
			c-1-1.1-1.5-1.9-1.6-2.4l-0.1-0.7l2.5,0.4c1.6-0.3,2.8-2.2,3.4-5.8c0.7-3.6,1-8.3,0.9-13.8c0-5.6-0.1-11.6-0.3-18.2
			c-0.2-6.5,0-12.9,0.7-19.1l2.9-5c-1.6,0.3-3.4-0.9-5.5-3.3c-2-2.5-3.1-4.2-3.3-5.2c-0.2-1,0.4-1.7,1.5-2.1s1.7-1.1,1.5-2.1
			c-0.1-0.5-0.9-1.5-2.3-3.1c-1.5-1.5-2.3-2.6-2.3-3.1l-1.2-7.4c-1-0.9-2.5-4-4.6-9.5s-3.3-9-3.5-10.5l-2.1-13.3l-5.3-2.2
			c-0.2-1.5,0.6-4.4,2.4-8.7c1.8-4.3,3.4-7.1,4.9-8.4l-13.3,2.1l0.4-5.4l-2.7-1.1c-0.9-0.4-1.4-0.8-1.4-1.3l-14.3-12.2
			c-0.1-0.5,0.4-1.5,1.4-2.9s1.4-2.9,1.2-4.4l-8.5,1.3c0.7-0.6,1-1.2,1-1.7l-0.3-2.2c-2.9-2.6-5.6-5.2-8-7.9
			c-2.5-2.7-3.9-5.2-4.3-7.7l-2.4,0.4l-0.7-4.4c-6.4,1-11.1,0.3-13.9-2c-2.8-2.3-5.3-5.1-7.5-8.3l-1-6.7l-6.7,4.8
			c-0.9-0.4-1.9-1.4-2.9-3c-1.1-1.6-1.6-2.7-1.7-3.1l-3.6,0.6c-1.7-0.2-3.7-1.1-6-2.5c-2.3-1.4-3.5-2.4-3.5-2.9l2.9-5l-17.2-7.2
			l0.5,3L255.2,63.3z M123.4,178.7c1.6-0.3,2.2-1.6,1.8-4.1c-0.3-2-1.3-2.8-2.9-2.6c-2.4,0.4-3.5,1.5-3.2,3.5L123.4,178.7z
			 M122.9,206.9l1.2-0.2c0.7-0.6,1.1-1.2,1-1.7c-0.2-1.5-1.1-2.1-2.8-1.8C121.5,203.3,121.7,204.5,122.9,206.9z M130.9,377.9
			c1.6-0.3,2.2-1.6,1.8-4.1c-0.3-2-1.3-2.8-2.9-2.6c-2.4,0.4-3.5,1.5-3.2,3.5L130.9,377.9z M130.7,177.6c1.6-0.3,2.2-1.6,1.8-4.1
			c-0.3-2-1.3-2.8-2.9-2.6c-1.6,0.3-2.3,1.4-1.9,3.3L130.7,177.6z M140.7,162.4c-0.1-0.5-0.4-1.1-0.9-1.8s-0.8-1.3-0.9-1.8l0.6-3.9
			l6.2-7.8l0.6,3.7c0.2,1-0.7,3.2-2.7,6.5L140.7,162.4z M146.1,403.7c1.6-0.3,2.2-1.6,1.8-4.1c-0.3-2-1.3-2.8-2.9-2.6
			s-2.3,1.4-2,3.3L146.1,403.7z M151.3,79.5c1.6-0.3,2.2-1.6,1.8-4.1c-0.3-2-1.3-2.8-2.9-2.6c-1.6,0.3-2.3,1.4-2,3.3L151.3,79.5z
			 M152.3,61.9c-1.6,0.3-2.6-0.9-3-3.3c-0.3-2,0.4-3.1,2-3.3c1.6-0.3,2.6,0.6,2.9,2.6L152.3,61.9z M155,103.2
			c1.6-0.3,2.2-1.6,1.8-4.1c-0.3-2-1.3-2.8-2.9-2.6c-1.6,0.3-2.3,1.4-2,3.3L155,103.2z M157.2,117.3c1.6-0.3,2.2-1.6,1.8-4.1
			c-0.3-2-1.3-2.8-2.9-2.6c-1.6,0.3-2.3,1.4-2,3.3L157.2,117.3z M157.6,96c1.6-0.3,2.2-1.6,1.8-4.1c-0.3-2-1.3-2.8-2.9-2.6
			c-1.6,0.3-2.3,1.4-2,3.3L157.6,96z M158.2,124c1.6-0.3,2.3-0.9,2.2-1.9l-1.5-1.3C157.4,121.1,157.1,122.1,158.2,124z M162.3,46.7
			l1-1.7c1.6-0.3,2.5,0.1,2.6,1.1C166,46.6,164.8,46.8,162.3,46.7z M167.7,105c1.6-0.3,2.2-1.6,1.8-4.1c-0.3-2-1.3-2.8-2.9-2.6
			c-2.4,0.4-3.5,1.6-3.2,3.5L167.7,105z M175.9,388.4c1.6-0.3,2.2-1.6,1.8-4.1c-0.3-2-1.3-2.8-2.9-2.6s-2.3,1.4-2,3.3L175.9,388.4z
			 M179.1,409.1c1.6-0.3,2.2-1.6,1.8-4.1c-0.3-2-1.3-2.8-2.9-2.6c-1.6,0.3-2.3,1.4-2,3.3L179.1,409.1z M184.1,67.6
			c0.2,1,1,1.4,2.6,1.1c1.6-0.3,2.3-0.9,2.2-1.9C188.8,65.8,187.2,66.1,184.1,67.6z M196.9,420c1.6-0.3,2.2-1.6,1.8-4.1
			c-0.3-2-1.3-2.8-2.9-2.6c-2.4,0.4-3.5,1.6-3.2,3.5L196.9,420z M196.8,93.7c-1.6,0.3-2.6-0.9-3-3.3c-0.3-2,0.4-3.1,2-3.3
			c1.6-0.3,2.6,0.6,2.9,2.6L196.8,93.7z M206.7,53.4c-2.4,0.4-5-0.5-7.8-2.6l0.6,3.7c0.1,0.5,1,1.1,2.8,1.8c1.8,0.7,3.5,1,5.1,0.7
			L206.7,53.4z M250.6,415.5c0.3,2-0.5,4.5-2.5,7.6c-2,3.1-4.2,4.8-6.6,5.2c-2.4,0.4-4.3,0-5.7-1c-1.4-1-2.5-1.8-3.4-2.1
			c-1.1-6.9,2.3-12,10-15.2l2.3-1.1C245.1,411.8,247.1,414,250.6,415.5z M233.8,28.7l-0.6-3.7l4.8-0.8l0.6,3.7L233.8,28.7z
			 M239.6,424c2.4-0.4,3.4-1.8,3-4.3c-0.3-2-1.7-2.8-4.1-2.4c-0.8,0.1-1.1,1.2-0.8,3.2L239.6,424z M243.1,462.2
			c1.6-0.3,2.2-1.6,1.8-4.1c-0.3-2-1.3-2.8-2.9-2.6c-2.4,0.4-3.5,1.6-3.2,3.5L243.1,462.2z M269.9,54.2c0.2,1,1.5,1.3,3.9,0.9
			c3.2-0.5,4.8-1.2,4.6-2.2c-0.2-1-1.4-1.3-3.9-0.9L269.9,54.2z M274.7,29.2c1.6-0.3,2.2-1.6,1.8-4.1c-0.3-2-1.3-2.8-2.9-2.6
			c-2.4,0.4-3.5,1.6-3.2,3.5L274.7,29.2z M279.3,35.3c1.6-0.3,2.2-1.6,1.8-4.1c-0.3-2-1.3-2.8-2.9-2.6s-2.3,1.4-2,3.3L279.3,35.3z
			 M284.2,66.4c0.8-0.1,1.1-0.9,0.9-2.4c-0.2-1.5-0.7-2.2-1.6-2c-1.6,0.3-2.3,1.1-2.1,2.6L284.2,66.4z M282.5,55.3l1.4,1.3
			c1.6-0.3,2.3-0.9,2.2-1.9C285.9,53.7,284.7,53.9,282.5,55.3z M304,66.4c1.6-0.3,2.2-1.6,1.8-4.1c-0.4-2.5-1.4-3.6-3-3.3
			c-1.6,0.3-2.2,1.6-1.8,4.1L304,66.4z M313.1,458.9c2.2-1.9,3.2-3.3,3-4.3c-0.9-0.4-1.7-0.5-2.5-0.4l-1.1,0.9
			c-0.7,0.6-1.1,1.2-1,1.7L313.1,458.9z M326.5,449.2c2.4-0.4,3.4-1.8,3.1-4.3c-0.3-2-1.7-2.8-4.1-2.4c-0.8,0.1-1.1,1.2-0.7,3.2
			L326.5,449.2z M332.6,51.3c-1.6,0.3-2.6-0.9-3-3.3c-0.3-2,0.4-3.1,2-3.3c2.4-0.4,3.8,0.4,4.1,2.4L332.6,51.3z M334.8,65.4
			c2.4-0.4,3.4-1.8,3.1-4.3c-0.3-2-1.7-2.8-4.1-2.4c-1.6,0.3-2.3,1.4-2,3.3L334.8,65.4z M343.7,401c1.6-0.3,2.2-1.6,1.8-4.1
			c-0.3-2-1.3-2.8-2.9-2.6c-1.6,0.3-2.3,1.4-1.9,3.3L343.7,401z M348.1,119.4c1.6-0.3,2.2-1.6,1.8-4.1c-0.3-2-1.3-2.8-2.9-2.6
			c-2.4,0.4-3.5,1.6-3.2,3.5L348.1,119.4z M347.3,66.4l1.3,0.6c1.6-0.3,2.3-1.4,1.9-3.3l-1.3-0.6C347.7,63.4,347,64.5,347.3,66.4z
			 M351.7,436.2c0.2,1.5-0.5,2.3-2.1,2.6L351.7,436.2z M351.6,427.8c1.6-0.3,2.2-1.6,1.8-4.1c-0.4-2.5-1.4-3.6-3-3.3
			c-0.7,0.6-0.9,1.9-0.6,3.9L351.6,427.8z M355.6,72c2.4-0.4,3.4-1.8,3.1-4.3c-0.3-2-1.7-2.8-4.1-2.4c-2.4,0.4-3.5,1.6-3.2,3.5
			L355.6,72z M367.3,425.4c-0.9-0.4-1.4-0.8-1.4-1.3c-0.2-1,0.2-1.5,1-1.7C368.5,422.2,368.6,423.2,367.3,425.4z M370.5,112.2
			c0.8-0.1,1.1-0.7,1-1.7c-0.2-1-0.6-1.4-1.4-1.3c-1.6,0.3-2.4,0.6-2.3,1.1L370.5,112.2z M376,409.6c2.4-0.4,3.4-1.8,3.1-4.3
			c-0.3-2-1.7-2.8-4.1-2.4c-0.8,0.1-1,1.2-0.7,3.2L376,409.6z M379.5,170c0.8-0.1,1.1-0.7,1-1.7c-0.2-1-0.6-1.4-1.4-1.3
			C377.6,168.2,377.8,169.2,379.5,170z M380.7,82.5l2.2-1.9c1.6-0.3,2.5,0.1,2.6,1.1C385.7,82.7,384.1,83,380.7,82.5z M395.8,329.9
			c2.4-0.4,3.4-1.8,3.1-4.3c-0.3-2-1.7-2.8-4.1-2.4c-2.4,0.4-3.5,1.6-3.2,3.5L395.8,329.9z M397.4,372.1c2.4-0.4,3.4-1.8,3.1-4.3
			c-0.4-2.5-1.8-3.5-4.2-3.1c-0.8,0.1-1,1.4-0.6,3.9L397.4,372.1z M400.7,258.5c1.6-0.3,2.2-1.6,1.8-4.1c-0.3-2-1.3-2.8-2.9-2.6
			s-2.3,1.4-2,3.3L400.7,258.5z M410.1,366.4c1.6-0.3,2.2-1.6,1.8-4.1c-0.4-2.5-1.4-3.6-3-3.3c-1.6,0.3-2.2,1.6-1.8,4.1L410.1,366.4
			z M412.9,312.8c1.6-0.3,2.3-0.9,2.2-1.9c-0.2-1.5-1.1-2.1-2.8-1.8C411.6,309.7,411.8,310.9,412.9,312.8z M417.7,319.6
			c1.6-0.3,2.3-1.1,2.1-2.6l-1.4-1.3c-1.6,0.3-2.3,0.9-2.2,1.9L417.7,319.6z M421.6,368.4c-1.6,0.3-2.6-0.9-3-3.3
			c-0.4-2.5,0.2-3.8,1.8-4.1c1.6-0.3,2.6,0.9,3,3.3L421.6,368.4z M419,224.6l0.5,3l4.8-0.8L419,224.6z M424.2,202.5
			c1.6-0.3,2.2-1.6,1.8-4.1c-0.3-2-1.3-2.8-2.9-2.6c-1.6,0.3-2.3,1.4-2,3.3L424.2,202.5z M425,310.9l1.2-0.2c0.7-0.6,1.1-1.2,1-1.7
			l-0.5-3c-0.6-4-1.7-5.8-3.3-5.6c-0.7,0.6-0.9,2.4-0.4,5.4L425,310.9z M426.1,318.3l1.2-0.2c2.4-0.4,3.5-1.6,3.2-3.5l-2.6-1.1
			c-2.4,0.4-3.5,1.3-3.3,2.8L426.1,318.3z M430.4,194.7c1.6-0.3,2.2-1.6,1.8-4.1c-0.4-2.5-1.4-3.6-3-3.3c-2.4,0.4-3.4,1.8-3,4.3
			L430.4,194.7z M431.2,303.1c2.4-0.4,3.4-1.8,3.1-4.3c-0.3-2-1.7-2.8-4.1-2.4c-1.6,0.3-2.3,1.4-2,3.3L431.2,303.1z M441.5,242.3
			c2.4-0.4,3.4-1.8,3.1-4.3c-0.4-2.5-1.8-3.5-4.2-3.1c-1.6,0.3-2.2,1.6-1.8,4.1L441.5,242.3z"/>
	</g>
	<g>
		<path class="st2" d="M199.9,130.9c0.4,0,0.6,0.3,0.6,0.8c0.3-0.3,0.6-0.7,1-1.2c0.4-0.5,0.5-1.1,0.5-1.8c0-1.1-0.2-1.9-0.5-2.3
			c-0.4-0.4-1.1-0.4-2.2,0c0.1-0.7,0.5-1.3,1-1.7c0.5-0.4,1-0.8,1.5-1.2c0.5-0.4,1-0.7,1.4-1.2c0.4-0.4,0.7-1,0.8-1.7
			c0-0.1,0-0.7-0.1-1.6c-0.1-0.9,0-1.5,0.1-1.8l0.8-0.8c0-0.6-0.1-1-0.4-1.2c-0.3-0.2-0.3-0.7,0-1.4c0-0.3,0.1-0.7,0.3-1.4
			c0.2-0.6,0.4-1,0.5-1.2c0.1-0.1,0.6-0.2,1.3-0.3c0.7-0.1,1.1-0.2,1.3-0.5c0.3,0,0.7-0.3,1.2-1c0.5-0.6,0.8-1,1-1
			c0.3-0.1,0.6-0.1,1.1,0c0.4,0.1,0.7,0.4,0.8,0.6c-0.3-1.3-0.1-3,0.5-5.2c0.6-2.2,1.5-3.6,2.6-4.3c0.6-0.3,1.1-0.3,1.5,0
			c0.4,0.3,0.6-0.1,0.6-1.3c0.4,0.4,1,0.6,1.7,0.6c0.3,0,0.6-0.2,1-0.6c0.4-0.4,0.7-0.4,1.2,0c-0.4,0.3-0.6,0.7-0.6,1.3v0.4
			c0,0.1,0.1,0.3,0.2,0.4c0.4-0.8,1.3-1.5,2.5-2c1.3-0.5,2.3-0.7,3.2-0.7c0.3,0,0.6,0.1,1.1,0.3c0.4,0.2,0.7,0.3,0.8,0.3
			c0.6,0,0.8-0.2,0.8-0.6c0.1-0.1,0.3-0.5,0.5-1.1c0.2-0.6,0.5-0.8,0.7-0.8c0.1,0,0.4,0,0.7,0.1c0.4,0.1,1,0,1.8-0.3
			c0.4,0,0.7-0.2,1-0.5c0.2-0.4,0.4-0.7,0.6-1c0.2-0.3,0.5-0.6,1-0.8c0.4-0.3,1.2-0.4,2.3-0.4c0.6,0,1.6,0.2,3.1,0.7
			c1.5,0.5,3,1.1,4.4,1.7c1.5,0.6,2.8,1.4,4,2.2c1.2,0.8,1.9,1.6,2,2.1c0.1,0.3,0.2,1,0.1,2.1c-0.1,1.1-0.1,1.8-0.1,2.1
			c0,0.4,0.2,0.6,0.6,0.6v-4l1.5,1.3c0.3-0.1,0.5-0.5,0.5-1c0.1-0.5,0.1-0.9,0.1-1.2c0.3,0,0.6,0.2,0.8,0.5c0.3,0.4,0.4,0.7,0.4,1
			c0,0.1-0.2,0.4-0.5,0.7c-0.4,0.4-0.6,0.5-0.7,0.5c0.1,0.6,0.6,0.8,1.3,0.8c0.4,0,0.7-0.2,1-0.7c0.2-0.5,0.4-1.1,0.4-1.8
			c0.1-0.7,0.1-1.3,0.1-1.9v-1.5c0.1,0,0.6-0.1,1.4-0.4c0.8-0.3,1.6-0.6,2.4-1.1c0.8-0.4,1.7-0.8,2.4-1.2c0.8-0.4,1.2-0.6,1.4-0.7
			c-0.1,0.3-0.2,0.7-0.1,1.3c0.1,0.6,0.3,0.9,0.7,1.1h0.6l0.2-0.2v-2.3h1.3c0,0.3,0.1,0.6,0.2,1.1c0,0.3,0,0.6,0.1,0.8
			c0.1,0.3,0.1,0.5,0.1,0.6v0.8c0.7-1,1.3-1.5,1.9-1.5c1.7,0,2.5,0.7,2.5,2.1h1.1l1.9-2.5c0-0.3,0.1-0.3,0.4-0.1
			c0.3,0.2,0.6,0.4,0.8,0.5c0,0.4,0.2,0.6,0.6,0.6l3.4,6.8c0.3,0.1,0.8,0.3,1.6,0.5c0.8,0.2,1.3,0.3,1.6,0.3h1.9
			c0.6,0.6,1,1.3,1.4,2.3c0.4,1,0.5,1.6,0.5,1.7l1.5-0.6l-0.8,1.3c0.7-0.4,1.2-1,1.5-1.7l1.3-2.3c0.7,1,1.2,1.6,1.6,1.7
			c0.4,0.1,0.7,0.2,1,0.2c0.3,0,0.4,0.9,0.4,2.8v1.3h1.5c0,1.1,0.2,2.3,0.7,3.5c0.5,1.2,1,2.4,1.5,3.7c0.5,1.3,0.9,2.5,1.2,3.7
			c0.3,1.2,0.3,2.4,0,3.5l1.9-1.5v1.5l2.1-1.9v0.8c1.1,0,1.8,0.2,1.9,0.6s0.2,1.4,0.2,3H303c0.3,0.1,0.5,0.4,0.6,0.7
			c0.1,0.4,0.1,0.6,0,0.7c0,0.1-0.1,0.4-0.4,0.6c-0.3,0.3-0.6,0.5-0.8,0.6h1.3c0.7,0,1.1,0.2,1.3,0.6l-0.6,0.8
			c-0.1-0.4-0.4-0.7-0.7-0.7c-0.4-0.1-0.7-0.1-1.2-0.1c-0.4,0-0.8-0.1-1.2-0.2c-0.4-0.1-0.5-0.4-0.5-0.8c0-0.1,0-0.3,0.1-0.4
			c0.1-0.1,0.1-0.3,0.1-0.4l-1.1,0.8c0.4-1,0.6-1.8,0.6-2.3l-0.2-0.4v-0.2c-0.1,0.1-0.4,0.3-0.6,0.5c-0.3,0.2-0.5,0.3-0.6,0.3h-0.4
			c0-0.1-0.1-0.2-0.4-0.2v1.9c0,0.6-0.6,0.7-1.7,0.4c0.7,1.3,1.4,2,2,2.1c0.6,0.1,1.2,0.7,1.8,1.7l2.1-1.3l1.3,1.9
			c0.4-0.4,0.8-0.6,1.3-0.6v2.3h0.8c0,0.1,0.1,0.3,0.4,0.4c0.1,0.1,0.2,0.4,0.2,0.6c-0.1,0.1-0.4,0.4-0.7,0.6
			c-0.4,0.3-0.6,0.6-0.7,0.8c-0.3,0.1-0.9,0.5-1.8,1c-0.9,0.5-1.4,1-1.4,1.4c0,0.7,0.3,1.3,0.8,1.7c0.6,0.4,1.2,0.7,1.9,1
			c0.7,0.2,1.4,0.4,2.2,0.4c0.8,0.1,1.4,0.1,1.8,0.1c0,0.8-0.4,1.3-1.2,1.3c-0.8,0-1.2,0.5-1.2,1.5c0,0.7,0.1,1.1,0.2,1.1
			c0,0.3,0.5,0.6,1.5,0.8c-0.3,0.1-0.4,0.4-0.3,0.7c0.1,0.4,0.3,0.5,0.7,0.5c0.3,0,0.4-0.2,0.3-0.6c-0.1-0.4,0-0.7,0.3-0.8v0.8
			c0,0.3-0.1,0.6-0.3,0.8c-0.2,0.3-0.4,0.5-0.5,0.6h-0.4l-0.8-0.8c-0.1,0-0.5,0.1-1,0.3c-0.5,0.2-0.8,0.3-1,0.3v-1.7
			c-0.3,0-1,0-2.2-0.1c-1.2-0.1-1.8,0.3-1.8,1.2c0,1.1,0.4,1.8,1.3,2c0.8,0.2,1.3,0.8,1.5,1.8c1.1,0,1.6-0.4,1.5-1.3
			c-0.1-0.8,0.1-1.3,0.8-1.3c0.6,0,1,0.4,1.2,1.1c0.2,0.7,0.3,1.2,0.3,1.5c0,2-0.6,3.4-1.7,4.2v-1.3c-1.4,0.7-2.2,1.2-2.4,1.4
			c-0.2,0.2-0.3,0.4-0.3,0.5c-0.4,0.4-0.6,1.1-0.6,1.9l0.6,0.6c0.1,0.1,0.3,0.2,0.6,0.2c1,0,1.4-0.3,1.4-1c-0.1-0.6,0.2-1,1-1
			c0.7,0,1.1,0.3,1.1,0.8c0,0.6-0.4,1-1.2,1.2c-0.8,0.2-1.2,0.9-1.2,2h-3c-0.3,0.8-0.6,1.7-1,2.4c-0.4,0.8-0.5,1.7-0.5,2.6
			c-0.1-0.3-0.4-0.4-0.8-0.4h-1.1c-0.4,0-0.9,0-1.4,0.1c-0.5,0.1-0.9,0.2-1.2,0.5h3.4l-1.1,1.1c-0.3,0.3-0.4,0.5-0.4,0.6
			c0,0.4,0.4,1.3,1.3,2.5c0.7,1.3,1.4,2,2.1,2.3c-0.6,0.3-1,0.8-1.2,1.5c-0.2,0.7-0.7,1.1-1.4,1.1c0,0.6-0.1,0.9-0.2,1.1
			c-0.1,0.1,0.1,0.4,0.8,0.6c-0.1,0.3-0.4,0.6-0.8,0.8c-0.4,0.3-0.7,0.5-0.8,0.6c-1.1,0-1.7-0.7-1.8-2c-0.1-1.3,0-2.2,0.1-2.6
			c-0.6,0.6-0.8,1.5-0.8,2.8c0,1.3,0.1,2.1,0.2,2.5c-0.6,0.3-1.7,0.5-3.4,0.7c-1.7,0.2-2.5,0.4-2.5,0.5l0.6,0.8
			c-0.1,0.3,0,0.9,0.3,1.9c0.3,1,0.9,1.5,1.6,1.5v-3c0.1,0.1,0.3,0.3,0.6,0.5c0.3,0.2,0.6,0.3,0.8,0.3c0.3,0,0.6-0.2,1.1-0.6
			c-0.4,1.8-1.2,2.9-2.2,3.2c-1.1,0.3-2.5,0.3-4.3,0c0,0.7-0.3,1.2-0.8,1.6c-0.6,0.4-1.1,0.5-1.7,0.5c-0.4,0-0.9-0.1-1.4-0.3
			c-0.5-0.2-1.1-0.3-1.8-0.3v1.5l-1.5-0.8c-0.1,0.3-0.2,0.5-0.2,0.6c-0.1,0.1-0.2,0.3-0.2,0.4v0.2c0,0.1,0.1,0.3,0.2,0.4l0.2,0.2
			v0.4c0,0.1,0.1,0.3,0.2,0.4c-0.1,0.1-0.2,0.3-0.2,0.4c-0.1,0.1-0.3,0.2-0.4,0.2c-1.8,0-2.8,1.1-2.8,3.4c-1.1,0-1.7-0.3-1.7-0.8
			c0-0.6-0.3-1-0.8-1.3c-0.7,0.3-1.1,0.8-1.1,1.7c-0.1,0.6-0.1,1.1,0,1.5c-1.1,0-2.2,0.1-3.1,0.4c-0.9,0.3-1.9,0.4-3.1,0.4
			c0,0.3,0.1,0.6,0.4,0.8c0.3,0.3,0.3,0.5,0.2,0.6l-1.1,0.6c-0.4,0.1-0.7,0.2-0.8,0.2c-0.4-0.7-1.1-1.2-2.1-1.5
			c-0.4,0-0.8,0.2-1.3,0.6l-0.6-1.5v3c-1.1,0-1.9-0.3-2.4-1c-0.5-0.6-1.3-1-2.4-1c0,0.3,0.1,0.6,0.3,1.1c0.2,0.4,0,0.6-0.5,0.6
			c-0.4,0-0.7-0.1-0.8-0.2c-0.3,0-0.5-0.1-0.6-0.2c0-0.3-0.1-0.4-0.2-0.4c-0.1,0-0.3,0.1-0.4,0.4c-0.3,0.1-0.8,0.5-1.5,1.2
			c-0.7,0.6-1.1,1.1-1.3,1.4l-0.6-1.1c-0.1-0.4-0.4-0.8-0.6-1.1c-0.6,0.4-1,1-1.2,1.8c-0.2,0.8-0.7,1.2-1.4,1.2c-1.8,0-2.8-1-2.8-3
			c-0.4,0.4-1.2,0.6-2.3,0.6c-0.4,0-0.7-0.1-0.8-0.3c-0.1-0.2-0.5-0.3-1.1-0.3h-1.1l1.5,1.5c-0.7,0.3-0.9,0.6-0.6,1
			c0.3,0.4-0.1,0.7-1.1,1v-1.9h-0.8c-0.3,0-0.6,0-0.8-0.1c-0.3-0.1-0.5-0.1-0.6-0.1c-0.6,0-1.3,0-2.2,0.1c-0.9,0.1-1.5,0.1-1.8,0.1
			l-1.3,0.6c-0.1,0-0.6-0.1-1.4-0.4c-0.8-0.3-1.2-0.6-1.4-0.8l-1.1,1.7c-0.1,0.3-0.6,0.4-1.3,0.4c-1,0-1.4-0.3-1.3-1
			c0.1-0.6,0.2-1.3,0.2-2H223c0-1.4-0.1-2.2-0.2-2.4c-0.1-0.2-0.3-0.3-0.4-0.3c-0.1,0-0.6-0.1-1.3-0.3c-0.7-0.2-0.9-0.5-0.6-0.7
			c0-0.3,0.2-0.8,0.7-1.7c0.5-0.8,0.6-1.4,0.3-1.7c0-0.6-0.2-0.8-0.6-0.8c-0.7,0-1.2,0.3-1.4,0.8c-0.2,0.6-0.2,1.2,0.1,1.9
			c-0.3-0.3-0.6-0.4-0.8-0.4c-0.3,0-0.7-0.1-1.3-0.4c0,0.3-0.2,0.5-0.5,0.6c-0.4,0.1-0.5,0.1-0.5,0c0-0.3-0.4-0.7-1.3-1.3
			c-0.7-0.6-1.1-0.9-1.3-1.1c0,0.1-0.1,0.4-0.2,0.6c-0.1,0.3-0.4,0.4-0.6,0.4c-0.3,0.3-0.5,0.3-0.6,0c-0.1,0-0.4-0.2-0.8-0.6
			c-0.4-0.4-0.6-0.8-0.6-1.1c0-0.3,0.3-0.6,0.8-1c0.6-0.4,1-0.6,1.3-0.7c-0.1,0-0.5-0.1-1-0.2c-0.5-0.1-0.9-0.2-1.2-0.2
			c-0.4,0-1,0.1-1.6,0.2c-0.6,0.1-1,0.3-1.2,0.4c0-1.4-0.3-2.9-0.8-4.4c-0.6-1.6-1.2-2.9-1.9-4.1c-0.7-1.2-1.3-2.2-1.9-2.9
			c-0.6-0.7-0.8-1-0.8-0.8c0,0.4-0.3,0.6-0.8,0.6c-0.6-0.7-0.7-1.5-0.5-2.3c0.2-0.8,0-1.6-0.5-2.3c-0.3-0.3-0.9-0.6-1.9-1
			c-1-0.4-1.5-1-1.5-1.8c0-0.8,0.3-1.4,1-1.8c0.6-0.4,1-1,1-1.8v-1.3c-0.1,0.7-0.6,1.1-1.5,1.1V162c0-0.4-0.3-0.6-0.8-0.6h-0.8
			c0-1,0.1-2.2,0.4-3.5c0.3-1.3,1-2.2,2.1-2.6h-1.3v-4.7h-2.8l1.7-1.7c0.7-0.7,1.1-1.1,1.1-1.3c0-0.7-0.2-1.2-0.6-1.4
			c-0.4-0.2-0.6-0.7-0.6-1.4c0-0.7,0.1-1.5,0.3-2.4c0.2-0.9,0.7-1.4,1.4-1.4l-0.4-0.6l1.3-1.9l-0.8-0.8c0.4-0.7,0.7-1,1-0.7
			c0.2,0.2,0.5,0.3,1,0.3c0-0.3-0.1-0.9-0.3-1.8c-0.2-0.9-0.2-1.5-0.1-1.8c0-0.4,0.2-0.8,0.6-1.3c-0.3,0-0.4-0.2-0.4-0.7
			C199.5,131.1,199.6,130.9,199.9,130.9z M195.2,162.8c0,0.4-0.2,0.4-0.6,0c0-0.3,0.1-0.4,0.4-0.4
			C195.3,162.4,195.4,162.6,195.2,162.8z M197.4,166.2h-1.5c0-1.1,0.3-2.3,0.8-3.4L197.4,166.2z M196.1,167.3
			c0.4,0.4,0.6,0.9,0.6,1.5c0,0.6-0.2,0.8-0.6,0.8V167.3z M197.4,168.8c0.3,0,0.4,0.2,0.4,0.7c0,0.5-0.1,0.7-0.4,0.7
			c-0.3,0-0.4-0.2-0.4-0.7C196.9,169,197.1,168.8,197.4,168.8z M197.8,143.8c-0.3,0-0.4,0.2-0.4,0.6c0,0.4,0.1,0.6,0.4,0.6
			c0.4,0,0.6-0.2,0.6-0.6C198.4,144,198.2,143.8,197.8,143.8z M197.8,158.6c0.4-0.1,0.7-0.4,1-0.7c0.2-0.4,0.2-0.7-0.1-1.2l-1.3,1.3
			L197.8,158.6z M198.6,152.7l-0.2,0.2c0,0.3,0.1,0.4,0.2,0.4c0.3-0.1,0.4-0.3,0.4-0.4C199,152.8,198.9,152.7,198.6,152.7z
			 M199.9,138.5c-0.1-0.3-0.4-0.3-0.6,0c-0.3,0.3-0.3,0.5,0,0.6c0.3,0.1,0.5,0.1,0.7,0C200.2,139,200.2,138.8,199.9,138.5z
			 M201.2,128.3c-0.4,0.3-0.7,0.7-0.8,1.3c-0.1,0.6-0.5,1-1.1,1.3v-3c0-0.6,0.2-0.9,0.6-1.1L201.2,128.3z M202.6,120.1
			c0.3,0,0.4,0.2,0.4,0.7c0,0.5-0.1,0.7-0.4,0.7c-0.4,0-0.6-0.2-0.6-0.7C202,120.3,202.2,120.1,202.6,120.1z M202.6,179.6
			c0.3,0,0.4,0.2,0.4,0.6c0,0.4-0.1,0.6-0.4,0.6c-0.4,0-0.6-0.2-0.6-0.6C202,179.8,202.2,179.6,202.6,179.6z M204.1,184.2
			c0.3,1.1-0.1,1.7-1.1,1.7c0-0.3,0.1-0.6,0.2-1.1C203.4,184.4,203.7,184.2,204.1,184.2z M205.2,117.3c-0.4,0-0.6,0.2-0.6,0.7
			c0,0.5,0.2,0.7,0.6,0.7c0.3,0,0.4-0.2,0.4-0.7C205.6,117.6,205.5,117.3,205.2,117.3z M205.8,169.6c-0.3-0.3-0.4-0.2-0.4,0.1
			c0,0.4,0.1,0.5,0.4,0.5c0.3-0.1,0.4-0.3,0.4-0.4C206.2,169.7,206.1,169.6,205.8,169.6z M207.7,112c0.1,0,0.3,0.1,0.5,0.3
			c0.2,0.2,0.5,0.4,0.7,0.5c0.3,0,0.5-0.2,0.6-0.6c0.1-0.4,0.2-0.8,0.2-1.1c-0.3,0-0.6,0-1.1,0.1C208.4,111.4,208,111.6,207.7,112z
			 M208.4,115.4c-0.3,0-0.4,0.2-0.4,0.6s0.1,0.6,0.4,0.6c0.4,0,0.6-0.2,0.6-0.6S208.8,115.4,208.4,115.4z M209.2,146.5
			c-0.6,0.1-0.8,0.6-0.8,1.5c0.6,0,1.1-0.3,1.5-0.8L209.2,146.5z M209.8,184.2c-0.3,0-0.4,0.2-0.4,0.7c0,0.5,0.1,0.7,0.4,0.7
			c0.3,0,0.4-0.2,0.4-0.7C210.3,184.5,210.1,184.2,209.8,184.2z M210.5,106.5c0.3,0,0.4,0.2,0.4,0.7c0,0.5-0.1,0.7-0.4,0.7
			c-0.3,0-0.4-0.2-0.4-0.7C210.1,106.8,210.2,106.5,210.5,106.5z M210.5,135.7c-0.3,0-0.4,0.2-0.4,0.6c0,0.4,0.1,0.6,0.4,0.6
			c0.3,0,0.4-0.2,0.4-0.6C210.9,136,210.8,135.7,210.5,135.7z M210.9,188.3l2.1-0.6l-2.1-1.9V188.3z M212.4,143.2
			c-0.3,0-0.4,0.2-0.4,0.6c0,0.4,0.2,0.6,0.6,0.6c0,0.4,0.1,0.6,0.4,0.6v-0.4c-0.1-0.1-0.2-0.4-0.2-0.6
			C212.8,143.4,212.7,143.2,212.4,143.2z M212.4,191.6c-0.3,0-0.4,0.2-0.4,0.7c0,0.5,0.1,0.7,0.4,0.7c0.3,0,0.4-0.2,0.4-0.7
			C212.8,191.9,212.7,191.6,212.4,191.6z M212.4,146.1c0,0.1,0.2,0.4,0.6,0.8c0.4,0.4,0.9,0.8,1.4,1.3c0.5,0.4,1,0.8,1.5,1.2
			c0.5,0.4,0.8,0.5,1,0.5c-0.4,1.1-0.6,2-0.6,2.8h2.8v1.1c0.3-0.1,0.6-0.5,1-1.2c0.4-0.6,0.5-1.1,0.5-1.4c0-0.4-0.3-0.6-0.8-0.6
			c0-0.1,0.2-0.5,0.6-1.2c0.4-0.6,0.8-1,1.3-1c0.1,0,0.4,0.1,0.6,0.3c0.3,0.2,0.6,0.4,0.8,0.5c0.3-0.1,0.7-0.2,1.3-0.3
			c0.6-0.1,1-0.2,1.3-0.5v1.1c0,0.7-0.1,1.3-0.3,1.8c-0.2,0.5-0.3,1.2-0.3,2c0,0.6,0.1,1.1,0.3,1.6c0.2,0.5,0.3,1.1,0.3,1.8
			c-0.1,0.1-0.3,0.2-0.4,0.2c-0.1,0.1-0.5,0.2-1.1,0.2v3.4l-1.1,0.8c0.6,1.1,0.9,1.6,1.1,1.3c0.1-0.3,0.6-0.4,1.3-0.4
			c0,0.3-0.1,0.7-0.4,1.2c-0.3,0.5-0.6,1-1,1.5c-0.4,0.5-0.6,1-0.7,1.4c-0.1,0.4,0,0.6,0.4,0.6c0.4,0,0.8,0,1.1-0.1
			c0.3-0.1,0.6,0,0.8,0.1l-0.2,0.2c-0.1,0.1-0.3,0.2-0.4,0.2c1.6,1.3,2.5,2.7,3,4.3c0.4,1.6,1.2,3.2,2.3,4.8c0.4,0.7,1.1,1.4,2,2.1
			c0.9,0.7,1.9,1.4,3,2.1c1.1,0.7,2.1,1.3,3.2,1.7c1.1,0.4,2,0.6,2.9,0.6c1.8,0,4.1-0.2,6.7-0.5c2.6-0.4,5.3-0.8,7.9-1.5
			c2.7-0.6,5.2-1.4,7.5-2.4c2.3-1,4.2-2.2,5.6-3.6l9.7-10.2c-0.4,0-0.6-0.6-0.6-1.7c0-0.6,0.1-1.1,0.2-1.7h1.1c0-2,0.1-3.9,0.4-5.7
			c0.3-1.8,0.4-3.7,0.4-5.5c0-3-0.7-6.4-2.1-10.3c-1.4-3.9-3.4-6.9-5.9-9l1.5-0.6c-0.7-0.7-1.4-1.3-2.1-1.7c-0.7-0.4-1.3-1-1.9-1.7
			c-0.1,0-0.2-0.2-0.3-0.6c-0.1-0.4-0.2-0.6-0.3-0.6H267c-2-0.7-3.2-1.6-3.6-2.6c-0.4-1.1-0.6-2.5-0.6-4.3c-0.3,0-0.7,0-1.4,0.1
			c-0.6,0.1-1,0.4-1,1c0.3,0.3,0.6,0.7,0.8,1.2c0.3,0.5,0.3,0.7,0,0.7c-0.4,0-1.3-0.5-2.5-1.5c-1.3-1-2-1.6-2.3-1.9h-3
			c-1.4,0-2.8,0.3-4,1c-1.3,0.6-2.5,1-3.6,1c-0.1,0-0.3-0.1-0.4-0.2l-0.2-0.2c1.1-0.4,1.8-1,2.1-1.7c0.3-0.7,0.4-1.6,0.4-2.5
			c-0.3,0.7-1.1,1.4-2.4,2c-1.3,0.6-2,2-2,4.1c-1.1-0.4-1.7-0.3-1.7,0.4c0,0.7-0.4,1.2-1.1,1.5c-0.1,0.1-0.5,0.1-1-0.1
			c-0.5-0.2-0.8-0.3-1-0.3c-0.1,0.1-0.5,0.4-1.2,0.6c-0.6,0.3-1.1,0.4-1.4,0.4c-0.1,0-0.4-0.1-0.7-0.3c-0.4-0.2-0.6-0.3-0.7-0.3
			c-0.7,0-1.3,0.7-1.8,2.2c-0.5,1.5-0.7,2.6-0.7,3.3c0,0.7,0.2,1.1,0.6,1.3c-1.1,0.1-2,0.4-2.6,0.8c-0.6,0.4-1.4,0.6-2.2,0.6
			l0.2,0.6c0.1,0.1,0.4,0.3,0.8,0.4c0.4,0.1,0.8,0.2,1.1,0.2c-0.1,0.1-0.2,0.4-0.3,0.7c-0.1,0.4-0.1,0.7-0.1,1
			c0,0.4,0.1,0.8,0.3,1.2c0.2,0.4,0.3,0.8,0.3,1.4c0,0.7-0.3,1.3-0.8,1.9c-0.6,0.6-1.2,0.8-1.9,0.8c0.6,0.6,0.8,1.1,0.8,1.5
			c0,0.4-0.1,0.7-0.4,0.8c-0.3,0.1-0.6,0.2-0.8,0.2c-0.6,0-1-0.1-1.2-0.3c-0.2-0.2-0.5-0.3-0.7-0.3H224l-0.8,0.4
			c-0.1,0.1-0.4,0.2-0.6,0.2h-0.2c-0.8,0-1.6-0.3-2.1-0.8c-0.6-0.6-0.5-1.4,0.2-2.5c-0.7,0.3-1.1,0.8-1.2,1.7
			c-0.1,0.8-0.2,1.4-0.3,1.7c0,0.1-0.3,0.5-1,1c-0.6,0.5-1,0.8-1,1c-0.3,0.3-0.3,0.7,0,1.3c0.3,0.6,0.4,0.9,0.4,1.1
			c0,0.6-0.1,1.1-0.2,1.6c-0.1,0.5-0.3,1-0.4,1.4c-0.1-0.7-0.4-1.2-0.6-1.5c-0.3-0.4-0.6-0.7-0.8-1c-0.3-0.2-0.6-0.5-1-0.7
			c-0.4-0.3-0.5-0.8-0.5-1.5C213.2,145.1,212.7,145.4,212.4,146.1z M213.9,142.5c0.4-0.6,0.6-1.3,0.6-2.1c-1,0-1.7,0.5-2.1,1.5
			L213.9,142.5z M213,129.8c-0.3,0-0.4,0.2-0.4,0.5c0,0.4,0.1,0.5,0.4,0.5c0.4,0,0.6-0.2,0.6-0.5C213.7,130,213.4,129.8,213,129.8z
			 M213,189.1c-0.3,0-0.4,0.2-0.4,0.7c0,0.5,0.1,0.7,0.4,0.7c0.4,0,0.6-0.2,0.6-0.7C213.7,189.4,213.4,189.1,213,189.1z
			 M213.9,107.4c-0.3,0-0.4,0.1-0.4,0.3s0.1,0.3,0.4,0.3C214.3,107.6,214.3,107.4,213.9,107.4z M214.9,100.6c-0.3,0-0.4,0.2-0.4,0.6
			s0.1,0.6,0.4,0.6c0.4,0,0.6-0.2,0.6-0.6S215.3,100.6,214.9,100.6z M214.9,108.6c-0.3,0-0.4,0.2-0.4,0.6c0,0.4,0.1,0.6,0.4,0.6
			c0.4,0,0.6-0.2,0.6-0.6C215.6,108.8,215.3,108.6,214.9,108.6z M215.8,119.6c-0.4,0-0.6,0.2-0.6,0.5c0,0.4,0.2,0.5,0.6,0.5
			c0.3,0,0.4-0.2,0.4-0.5C216.2,119.8,216.1,119.6,215.8,119.6z M216.4,134c0.4,0,0.7-0.4,0.8-1.1c0.1-0.7,0.2-1.1,0.2-1.3l-0.2-0.6
			l-0.2-0.2c0.1-0.3,0.5-0.5,1-0.6c0.5-0.1,0.6-0.3,0.3-0.4c0-0.3-0.2-0.6-0.6-1c-0.4-0.4-0.7-0.6-0.8-0.7v-0.4l0.2-0.2
			c0-0.1,0.2-0.4,0.5-0.6c0.4-0.3,0.6-0.4,0.7-0.4c0.4,0.3,0.8,0.7,1.2,1.3c0.4,0.6,0.7,1,1,1.3c-0.6,0-0.8,0.3-0.8,0.8
			c0,0.1,0,0.5-0.1,1.2c-0.1,0.6-0.1,1.1-0.1,1.4c1.6,0,3.2-0.4,5-1.1c1.8-0.7,2.6-2,2.6-3.8h-0.8l-0.6,0.8
			c-0.6-0.6-1.2-0.8-1.9-0.8l1.3,2.3l-0.2,0.2c-0.1,0.1-0.4,0.2-0.6,0.2c0-0.1-0.2-0.2-0.6-0.2c0-0.3-0.1-0.8-0.3-1.6
			c-0.2-0.8-0.2-1.3-0.1-1.6c0.1-0.6,0.4-0.9,0.6-1.1c0.3-0.1,0.6-0.2,0.8-0.3c0.3-0.1,0.5-0.2,0.7-0.4s0.3-0.7,0.3-1.4
			c0-0.7-0.1-1.2-0.4-1.6c-0.3-0.4-1-0.5-2.1-0.5l-0.6,1.5c0-0.6-0.3-0.8-0.8-0.8c-0.3,0-0.7,0.1-1.4,0.2c-0.6,0.1-1,0.4-1.2,0.6
			c-0.1,0.1-0.1,0.5,0.2,1.1c0.3,0.6,0.4,1,0.4,1.3c-2,0-3.2,0.1-3.7,0.2c-0.5,0.1-0.7,1.7-0.7,4.7h1.3V134z M215.8,139.8
			c-0.4,0-0.6,0.2-0.6,0.6c0,0.4,0.2,0.6,0.6,0.6c0.3,0,0.4-0.2,0.4-0.6C216.2,140,216.1,139.8,215.8,139.8z M216.4,142.5
			c0-0.3-0.1-0.4-0.3-0.4s-0.3,0.1-0.3,0.4C216.2,142.9,216.4,142.9,216.4,142.5z M215.8,193.1c0.1,0.6,0.7,0.8,1.7,0.8
			C217.3,193.4,216.8,193.1,215.8,193.1z M216.4,190.8l0.6,0.6c0.1,0.1,0.3,0.2,0.4,0.2l0.8-1.1c0.1,0.3,0.5,0.5,1.1,0.5
			c0.6,0.1,1,0.1,1.3,0.1c0-0.4-0.1-1.1-0.2-2.1c-0.1-1-0.6-1.5-1.5-1.5l-1.5,1.5C217,189.5,216.7,190.1,216.4,190.8z M217.5,196.5
			c0.3,0,0.4,0.1,0.4,0.3c0,0.2-0.1,0.4-0.4,0.5c-0.1,0-0.2-0.1-0.2-0.4L217.5,196.5z M220.4,144.4c-0.4,0-0.6,0.2-0.6,0.7
			c0,0.5,0.2,0.7,0.6,0.7c-0.3,0.6-0.5,1.1-0.7,1.6c-0.2,0.5-0.5,1.1-0.7,1.8v-2.1c0-0.3-0.1-0.8-0.3-1.5c-0.2-0.7-0.3-1.1-0.3-1.3
			c0-0.4,0.2-0.6,0.6-0.6l0.6,0.6c0-0.3,0.1-0.6,0.4-1.1c0.3-0.4,0.6-0.6,1.1-0.6c0,0.8-0.1,1.7-0.4,2.5
			C220.6,144.7,220.6,144.4,220.4,144.4z M219.6,133.6c-0.3-0.1-0.4,0.2-0.4,1.1c0,0.8,0.1,1.2,0.4,1.1c0.3-0.3,0.4-0.7,0.4-1.2
			C220,134.1,219.9,133.8,219.6,133.6z M220.9,133c-0.3,0-0.4,0.2-0.4,0.6s0.1,0.6,0.4,0.6c0.3,0,0.4-0.2,0.4-0.6
			S221.1,133,220.9,133z M220.9,113.9c-0.1,0-0.2,0.1-0.2,0.4c0,0.3,0.1,0.4,0.2,0.4c0.3-0.1,0.4-0.3,0.4-0.5
			S221.1,113.9,220.9,113.9z M220.9,124.1c0.3,0,0.4,0.1,0.4,0.3s-0.1,0.4-0.4,0.5c-0.1,0-0.2-0.1-0.2-0.4
			C220.6,124.2,220.7,124.1,220.9,124.1z M221.5,195.9c-0.3,0-0.4,0.2-0.4,0.7c0,0.5,0.2,0.7,0.6,0.7c0,0.3,0.2,0.4,0.6,0.4
			c0.3,0,0.4-0.2,0.4-0.6c0-0.4-0.2-0.6-0.6-0.6C222.1,196.1,221.9,195.9,221.5,195.9z M221.5,161.4l-0.2,0.4l0.2,0.2
			c0.3-0.1,0.4-0.3,0.4-0.4C221.9,161.4,221.8,161.4,221.5,161.4z M222.1,196.5c-0.6,0.3-0.7,0.6-0.4,0.8
			C222,197.4,222.1,197.1,222.1,196.5z M222.3,123.5c0.3,0,0.4,0.2,0.4,0.7c0,0.5-0.1,0.7-0.4,0.7c-0.4,0-0.6-0.2-0.6-0.7
			C221.7,123.7,221.9,123.5,222.3,123.5z M222.3,143.8c0.3,0,0.4,0.2,0.4,0.6c0,0.4-0.1,0.6-0.4,0.6c-0.4,0-0.6-0.2-0.6-0.6
			C221.7,144,221.9,143.8,222.3,143.8z M222.3,146.5c0.3,0,0.4,0.2,0.4,0.6s-0.1,0.6-0.4,0.6c-0.4,0-0.6-0.2-0.6-0.6
			S221.9,146.5,222.3,146.5z M222.3,137.6h1.5c0-0.4-0.1-0.8-0.3-1.3c-0.2-0.4-0.6-0.6-1.2-0.6V137.6z M223,96.4
			c0.3,0,0.4,0.2,0.4,0.7c0,0.5-0.1,0.7-0.4,0.7c-0.3,0-0.4-0.2-0.4-0.7C222.5,96.6,222.7,96.4,223,96.4z M223,116.3
			c-0.3,0-0.4,0.2-0.4,0.5c0,0.4,0.2,0.5,0.6,0.5c0,0.6,0.1,0.8,0.4,0.8c0.3,0,0.4-0.2,0.3-0.7c-0.1-0.5-0.2-0.7-0.5-0.7
			C223.4,116.4,223.3,116.3,223,116.3z M223.4,116.7c-0.1,0.1-0.2,0.4-0.2,0.6C223.3,117.3,223.4,117.1,223.4,116.7z M223.6,123.5
			c0.3,0,0.4,0.2,0.4,0.7c0,0.5-0.1,0.7-0.4,0.7c-0.3,0-0.4-0.2-0.4-0.7C223.2,123.7,223.3,123.5,223.6,123.5z M223.6,143.2
			c0.3,0,0.4,0.2,0.4,0.6c0,0.4-0.1,0.6-0.4,0.6c-0.3,0-0.4-0.2-0.4-0.6C223.2,143.4,223.3,143.2,223.6,143.2z M223.6,196.5
			c-0.3,0-0.4,0.2-0.4,0.6c0,0.4,0.1,0.6,0.4,0.6c0.3,0,0.4-0.2,0.4-0.6C224,196.7,223.9,196.5,223.6,196.5z M224,146.5
			c0.4,0,0.6,0.2,0.6,0.6s-0.2,0.6-0.6,0.6c-0.3,0-0.4-0.2-0.4-0.6S223.7,146.5,224,146.5z M224,118.4c0,0.7,0.2,1.4,0.6,2
			c0.4,0.6,0.9,1,1.5,1.2c-0.3-1-0.2-1.5,0.2-1.6c0.4-0.1,0.6-0.5,0.6-1.2c-1,0-1.7-0.7-2.1-2.1C224.9,117.2,224.6,117.8,224,118.4z
			 M225.5,133c-0.3,0-0.4,0.2-0.4,0.6s0.1,0.6,0.4,0.6c0.3,0,0.4-0.2,0.4-0.6S225.8,133,225.5,133z M225.5,198.4
			c-0.3,0-0.4,0.2-0.4,0.7c0,0.5,0.1,0.7,0.4,0.7c0.3,0,0.4-0.2,0.4-0.7C225.9,198.7,225.8,198.4,225.5,198.4z M226.1,116.3
			c-0.3,0-0.4,0.2-0.4,0.5c0,0.4,0.1,0.5,0.4,0.5c0.4,0,0.6-0.2,0.6-0.5C226.8,116.4,226.6,116.3,226.1,116.3z M227,133v-1.3h-0.8
			L227,133z M227.4,119.6c-0.3,0-0.4,0.2-0.4,0.5c0,0.4,0.1,0.5,0.4,0.5c0.3,0,0.4-0.2,0.4-0.5C227.8,119.8,227.7,119.6,227.4,119.6
			z M228.1,201.8c-0.3,0-0.4,0.2-0.4,0.7c0,0.5,0.1,0.7,0.4,0.7c0.4,0,0.6-0.2,0.6-0.7C228.7,202.1,228.5,201.8,228.1,201.8z
			 M229.5,113.9c-0.3,0-0.4,0.2-0.4,0.7c0,0.5,0.1,0.7,0.4,0.7c0.3,0,0.4-0.2,0.4-0.7C230,114.2,229.8,113.9,229.5,113.9z
			 M230.2,119.6c-0.3,0-0.4,0.2-0.4,0.5c0,0.4,0.1,0.5,0.4,0.5c0.3,0,0.4-0.2,0.4-0.5C230.6,119.8,230.5,119.6,230.2,119.6z
			 M230.2,121.6c-0.3-0.1-0.4,0.1-0.4,0.6c0,0.6,0.1,0.8,0.4,0.8C230.5,122.3,230.5,121.8,230.2,121.6z M230.6,123
			c-0.3,0-0.4,0.2-0.4,0.5c0,0.4,0.1,0.5,0.4,0.5c0.4,0,0.6-0.2,0.6-0.5C231.2,123.2,231,123,230.6,123z M230.6,128.3l-0.2,0.2
			c0,0.3,0.1,0.4,0.2,0.4c0.3-0.1,0.4-0.3,0.4-0.4C231,128.4,230.9,128.3,230.6,128.3z M231.4,93.8l-0.8,0.6V93L231.4,93.8z
			 M231.4,131.7c0.3,0,0.4,0.1,0.3,0.3c-0.1,0.2,0,0.3,0.3,0.3c0.3,0,0.4,0.2,0.4,0.6s-0.1,0.6-0.4,0.6c-0.3,0-0.5-0.2-0.6-0.6
			c-0.4,0-0.6-0.2-0.6-0.6C230.8,131.9,231,131.7,231.4,131.7z M232.1,117.3c0.1-0.3,0.1-0.4-0.2-0.4c-0.3,0-0.4,0.1-0.4,0.4
			c0.1,0.3,0.3,0.4,0.4,0.4C232,117.7,232.1,117.6,232.1,117.3z M232.1,123.5c-0.3,0-0.4,0.2-0.4,0.7c0,0.5,0.1,0.7,0.4,0.7
			c0.3,0,0.4-0.2,0.4-0.7C232.5,123.7,232.4,123.5,232.1,123.5z M233.6,121.6c-0.4,0-0.6,0.2-0.6,0.7c0,0.5,0.2,0.7,0.6,0.7
			c0.3,0,0.4-0.2,0.4-0.7C234,121.8,233.8,121.6,233.6,121.6z M233.3,116.7c0,0.3,0.1,1,0.4,2.2c0.3,1.2,0.6,1.8,0.8,1.8
			c0.6,0,1.2-0.5,1.9-1.6c0.7-1.1,1.1-1.9,1.1-2.4h-1.9v-3c-0.1,0.1-0.3,0.2-0.4,0.2h-0.6c-0.4,0.3-0.7,0.7-1,1.4
			C233.5,115.9,233.3,116.4,233.3,116.7z M234,127.5c0,0.3-0.1,0.4-0.2,0.4c-0.1,0-0.2-0.1-0.2-0.4c-0.1-0.3-0.1-0.4,0.2-0.4
			C234.1,127.1,234.1,127.2,234,127.5z M234.6,92.3c0,0.3-0.1,0.4-0.2,0.4c-0.1,0-0.3-0.1-0.4-0.4c0-0.1,0.1-0.2,0.4-0.2L234.6,92.3
			z M234.6,105.9c-0.3,0-0.4,0.2-0.4,0.7c0,0.5,0.1,0.7,0.4,0.7c0.4,0,0.6-0.2,0.6-0.7C235.3,106.1,235,105.9,234.6,105.9z
			 M234.6,121.6c-0.3,0-0.4,0.2-0.4,0.7c0,0.5,0.1,0.7,0.4,0.7c0.4,0,0.6-0.2,0.6-0.7C235.3,121.8,235,121.6,234.6,121.6z
			 M234.6,203.3c0.4,0,0.6,0.2,0.6,0.6c0,0.4-0.2,0.6-0.6,0.6c-0.3,0-0.4-0.2-0.4-0.6C234.2,203.5,234.3,203.3,234.6,203.3z
			 M235.5,109.3c-0.4,0-0.6,0.2-0.6,0.6c0,0.4,0.2,0.6,0.6,0.6c0.3,0,0.4-0.2,0.4-0.6C235.9,109.5,235.7,109.3,235.5,109.3z
			 M235.5,117.3c0.3,0,0.4,0.2,0.4,0.7c0,0.5-0.1,0.7-0.4,0.7c-0.4,0-0.6-0.2-0.6-0.7C234.8,117.6,235,117.3,235.5,117.3z
			 M236.7,105.2c-0.3,0-0.4,0.2-0.4,0.6c0,0.4,0.1,0.6,0.4,0.6c0.3,0,0.4-0.2,0.4-0.6C237.2,105.5,237,105.2,236.7,105.2z
			 M237.2,113.9c-0.3,0-0.4,0.2-0.4,0.7c0,0.5,0.1,0.7,0.4,0.7c0.4,0,0.6-0.2,0.6-0.7C237.8,114.2,237.6,113.9,237.2,113.9z
			 M237.2,118.8c-0.3,0-0.4,0.2-0.4,0.6c0,0.4,0.1,0.6,0.4,0.6c0.4,0,0.6-0.2,0.6-0.6C237.8,119,237.6,118.8,237.2,118.8z
			 M237.2,121.6l-0.2,0.2c0,0.3,0.1,0.4,0.2,0.4c0.3-0.1,0.4-0.3,0.4-0.4C237.6,121.6,237.4,121.6,237.2,121.6z M238.6,203.3v1.5
			c-0.4,0-0.9-0.2-1.5-0.6L238.6,203.3z M238.6,109.9l-0.2-0.2c-0.3,0-0.4,0.1-0.4,0.2c0.1,0.3,0.3,0.4,0.4,0.4
			C238.6,110.3,238.6,110.2,238.6,109.9z M239.3,113.9c-0.3-0.1-0.4,0.1-0.4,0.7s0.1,0.9,0.4,0.7c0.3-0.1,0.4-0.4,0.4-0.6
			C239.7,114.5,239.6,114.2,239.3,113.9z M240.5,196.5c-0.3,0-0.4,0.2-0.4,0.6c0,0.4,0.1,0.6,0.4,0.6c0.3,0,0.4-0.2,0.4-0.6
			C241,196.7,240.8,196.5,240.5,196.5z M242.7,113.9c-0.3,0-0.4,0.2-0.4,0.7c0,0.5,0.1,0.7,0.4,0.7c0.3,0,0.4-0.2,0.4-0.7
			C243.1,114.2,242.9,113.9,242.7,113.9z M245.8,104c-0.3,0-0.4,0.2-0.4,0.6c0,0.4,0.1,0.6,0.4,0.6c0.4,0,0.6-0.2,0.6-0.6
			C246.5,104.2,246.3,104,245.8,104z M247.3,104c-0.3,0-0.4,0.2-0.4,0.6c0,0.4,0.1,0.6,0.4,0.6c0.3,0,0.4-0.2,0.4-0.6
			C247.7,104.2,247.6,104,247.3,104z M247.7,105.2c-0.3,0-0.4,0.2-0.4,0.6c0,0.4,0.1,0.6,0.4,0.6c0.4,0,0.6-0.2,0.6-0.6
			C248.4,105.5,248.2,105.2,247.7,105.2z M248.6,112.9c-0.4,0-0.6,0.2-0.6,0.5c0,0.4,0.2,0.5,0.6,0.5c0.3,0,0.4-0.2,0.4-0.5
			C249,113.1,248.9,112.9,248.6,112.9z M249.2,105.2c-0.3,0-0.4,0.2-0.4,0.6c0,0.4,0.1,0.6,0.4,0.6c0.3,0,0.4-0.2,0.4-0.6
			C249.7,105.5,249.5,105.2,249.2,105.2z M249.9,106.5c-0.3,0-0.4,0.2-0.4,0.7c0,0.5,0.1,0.7,0.4,0.7c0.4,0,0.6-0.2,0.6-0.7
			C250.5,106.8,250.3,106.5,249.9,106.5z M251.1,114.8c-0.3,0-0.4,0.2-0.4,0.7c0,0.5,0.1,0.7,0.4,0.7c0.3,0,0.4-0.2,0.4-0.7
			C251.6,115,251.4,114.8,251.1,114.8z M252.4,99.1c-0.3,0-0.5-0.2-0.5-0.6c-0.1-0.4-0.1-0.8-0.1-1.3L252.4,99.1z M254.3,97.2
			c0.1,0,0.4,0.2,0.8,0.6c0.3,0,0.4,0.2,0.4,0.6c0,0.4-0.1,0.6-0.4,0.6c-0.4,0-0.7-0.2-0.8-0.6c-0.3,0-0.4-0.2-0.4-0.6
			c-0.3,0-0.4-0.2-0.4-0.7c0-0.5,0.1-0.7,0.4-0.7L254.3,97.2z M255.8,116.3c-0.3,0-0.4,0.2-0.4,0.5c0,0.4,0.1,0.5,0.4,0.5
			c0.3,0,0.4-0.2,0.4-0.5C256.2,116.4,256.1,116.3,255.8,116.3z M257.7,95.3c0.3,0,0.4,0.2,0.4,0.5c0,0.4-0.1,0.5-0.4,0.5
			c-0.3,0-0.4-0.2-0.4-0.5C257.3,95.5,257.4,95.3,257.7,95.3z M259.8,201.2c0.3,0,0.4,0.2,0.4,0.7c0,0.5-0.1,0.7-0.4,0.7
			c-0.4,0-0.6-0.2-0.6-0.7C259.2,201.4,259.4,201.2,259.8,201.2z M260.5,93c0.3,0,0.4,0.2,0.4,0.7c0,0.5-0.1,0.7-0.4,0.7
			c-0.3,0-0.4-0.2-0.4-0.7C260,93.2,260.2,93,260.5,93z M260.5,196.5c-0.3,0-0.4,0.2-0.4,0.6c0,0.4,0.1,0.6,0.4,0.6
			c0.3,0,0.4-0.2,0.4-0.6C260.9,196.7,260.7,196.5,260.5,196.5z M261.7,91.1c0.3,0,0.4,0.2,0.4,0.6c0,0.4-0.1,0.6-0.4,0.6
			c-0.4,0-0.6-0.2-0.6-0.6C261.1,91.3,261.3,91.1,261.7,91.1z M263.6,96.4c-0.3,0-0.4,0.2-0.4,0.7c0,0.5,0.1,0.7,0.4,0.7
			c0.3,0,0.4-0.2,0.4-0.7C264.1,96.6,263.9,96.4,263.6,96.4z M264.3,99.7c-0.3,0-0.4,0.2-0.4,0.7c0,0.5,0.1,0.7,0.4,0.7
			c0.3,0,0.4-0.2,0.4-0.7C264.7,100,264.5,99.7,264.3,99.7z M267.2,118.2l-1.9,1.1c-0.7,0.3-1.1,0.8-1.1,1.5v0.8
			c0.4-0.4,0.9-0.7,1.5-0.8c0.6-0.1,1.1-0.2,1.5-0.2V118.2z M266.4,102.5c-0.4,0-0.6,0.2-0.6,0.7c0,0.5,0.2,0.7,0.6,0.7
			c0.3,0,0.4-0.2,0.4-0.7C266.8,102.7,266.7,102.5,266.4,102.5z M267.4,97.8c-0.3,0-0.4,0.2-0.4,0.6c0,0.4,0.1,0.6,0.4,0.6
			c0.4,0,0.6-0.2,0.6-0.6C268.1,98,267.9,97.8,267.4,97.8z M268.9,101c0.3,0,0.8,0,1.6,0.1c0.8,0.1,1.3,0.1,1.6,0.1
			c0.1,0,0.3,0.1,0.4,0.2c0.3,0.3,0.6,0.4,1.1,0.4c0-1.1-0.6-1.8-1.8-1.9c-1.2-0.1-2.2-0.2-2.9-0.2V101z M271.5,129
			c0.3,0,0.4,0.2,0.4,0.6s-0.1,0.6-0.4,0.6c-0.3,0-0.4-0.2-0.4-0.6S271.2,129,271.5,129z M272.9,93c0.3,0,0.4,0.2,0.4,0.7
			c0,0.5-0.1,0.7-0.4,0.7c-0.4,0-0.6-0.2-0.6-0.7C272.3,93.2,272.5,93,272.9,93z M273.6,95.3c0,0.1-0.1,0.3-0.2,0.4
			c-0.1,0.1-0.3,0.1-0.4,0c-0.3,0-0.3-0.1,0-0.4C273.2,95,273.4,95,273.6,95.3z M274.9,98.3c-0.3,0-0.6,0-1.1,0.1
			c-0.4,0.1-0.7,0.3-0.8,0.7l0.2,0.2h2.1c0.4,0,0.7-0.3,0.8-0.8c-0.1,0-0.4,0-0.6-0.1C275.2,98.3,275,98.3,274.9,98.3z M273.6,194
			c-0.3,0-0.4,0.2-0.4,0.5c0,0.4,0.1,0.5,0.4,0.5c0.3,0,0.4-0.2,0.4-0.5C274,194.2,273.9,194,273.6,194z M274.9,101.2
			c-0.4,0-0.6,0.2-0.6,0.6s0.2,0.6,0.6,0.6c0.3,0,0.4-0.2,0.4-0.6S275.1,101.2,274.9,101.2z M276.1,164.8c0.3,0,0.4,0.2,0.4,0.7
			c0,0.5-0.1,0.7-0.4,0.7c-0.3,0-0.4-0.2-0.4-0.7C275.7,165,275.8,164.8,276.1,164.8z M276.8,193.1c-0.3,0-0.4,0.2-0.4,0.6
			c0,0.4,0.1,0.6,0.4,0.6c0.3,0,0.4-0.2,0.4-0.6C277.2,193.3,277,193.1,276.8,193.1z M281.4,187.6c-0.3,0-0.4,0.2-0.4,0.5
			c0,0.4,0.1,0.4,0.4,0.1c0.3,0,0.4-0.1,0.4-0.2C281.8,187.9,281.7,187.8,281.4,187.6z M282.1,191.6c0.4,0.4,0.4,0.7,0,0.8
			c-0.3,0-0.4-0.1-0.4-0.4C281.6,191.8,281.8,191.6,282.1,191.6z M283.3,187.2c-0.3,0-0.4,0.2-0.4,0.5c0,0.4,0.1,0.5,0.4,0.5
			c0.3,0,0.4-0.2,0.4-0.5C283.7,187.4,283.6,187.2,283.3,187.2z M284,105.9c-0.1,0-0.2,0.1-0.2,0.4l0.2,0.2c0.3,0,0.4-0.1,0.4-0.2
			C284.4,106.2,284.2,106,284,105.9z M289.3,109.9l-0.4-0.2l-0.2,0.2c0.1,0.3,0.3,0.4,0.4,0.4C289.2,110.3,289.3,110.2,289.3,109.9z
			 M290.5,189.1c0.1,0.3,0.1,0.5,0,0.6c-0.1,0.1-0.4,0.1-0.6,0c-0.3-0.1-0.2-0.4,0.1-0.6C290.3,188.8,290.5,188.8,290.5,189.1z
			 M292.6,113.3c-0.8,0-1.3,0.2-1.5,0.6L292.6,113.3z M291.8,115.4c-0.3,0-0.4,0.2-0.4,0.6s0.1,0.6,0.4,0.6c0.4,0,0.6-0.2,0.6-0.6
			S292.2,115.4,291.8,115.4z M293.3,114.8c-0.3,0-0.4,0.2-0.4,0.7c0,0.5,0.1,0.7,0.4,0.7c0.3,0,0.4-0.2,0.4-0.7
			C293.7,115,293.6,114.8,293.3,114.8z M294.3,177c0.3-0.3,0.2-0.4-0.1-0.4c-0.4,0-0.5,0.1-0.5,0.4
			C294.1,177.5,294.3,177.5,294.3,177z M295.8,108c0.1,0.1,0.2,0.4,0.2,0.7c0,0.4-0.1,0.5-0.2,0.5c-0.3,0.1-0.4-0.1-0.4-0.6
			C295.4,108.1,295.5,107.9,295.8,108z M297.1,123.5l-0.2,0.4l0.2,0.2c0.3,0,0.4-0.1,0.4-0.2C297.5,123.7,297.4,123.6,297.1,123.5z
			 M299.2,138.1c-0.7,0-1.1,0.3-1.3,1c-0.1,0.6-0.2,1.2-0.2,1.6c0.7,0,1.1-0.3,1.3-0.8C299.1,139.2,299.2,138.6,299.2,138.1z
			 M299.2,169.6c0.3,0,0.4,0.2,0.4,0.5c0,0.4-0.1,0.5-0.4,0.5c-0.4,0-0.6-0.2-0.6-0.5C298.6,169.8,298.8,169.6,299.2,169.6z
			 M299.8,135.7c0-0.3-0.1-0.4-0.3-0.4s-0.3,0.1-0.3,0.4C299.2,136.2,299.4,136.2,299.8,135.7z M300.3,137.6c-0.3,0-0.4,0.2-0.4,0.7
			c0,0.5,0.1,0.7,0.4,0.7c0.3,0,0.4-0.2,0.4-0.7C300.7,137.9,300.5,137.6,300.3,137.6z M300.3,156.7c-0.3,0-0.4,0.2-0.4,0.6
			c0,0.4,0.1,0.6,0.4,0.6c0.3,0,0.4-0.2,0.4-0.6C300.7,156.9,300.5,156.7,300.3,156.7z M300.3,164.8c-0.3,0-0.4,0.2-0.4,0.7
			c0,0.5,0.1,0.7,0.4,0.7c0.3,0,0.4-0.2,0.4-0.7C300.7,165,300.5,164.8,300.3,164.8z M301.7,157.1v-1.1h-0.8L301.7,157.1z
			 M303.7,125.6c0-0.4-0.4-0.6-1.3-0.6L303.7,125.6z M303.7,165.4c0.3,0,0.4,0.2,0.4,0.7c0,0.5-0.1,0.7-0.4,0.7
			c-0.3,0-0.4-0.2-0.4-0.7C303.2,165.6,303.4,165.4,303.7,165.4z M303.7,174.9c0.3,0,0.4,0.2,0.4,0.7c0,0.5-0.1,0.7-0.4,0.7
			c-0.3,0-0.4-0.2-0.4-0.7C303.2,175.2,303.4,174.9,303.7,174.9z M304.3,166.9c0,0.3-0.1,0.5-0.2,0.7c-0.1,0.2-0.3,0.1-0.4-0.3
			l0.4-0.2L304.3,166.9z M304.3,170.3c0.3,0,0.4,0.2,0.4,0.6c0,0.4-0.1,0.6-0.4,0.6c-0.3,0-0.4-0.2-0.4-0.6
			C303.9,170.5,304,170.3,304.3,170.3z M306.2,140.4c0,0.6,0.2,1.1,0.6,1.5c0,0.4-0.3,0.6-0.8,0.6c-0.4,0-0.8-0.3-1.1-0.8l-0.6-1.3
			H306.2z M304.9,127.5c0.4,0,0.6,0.2,0.6,0.7c0,0.5-0.2,0.7-0.6,0.7c-0.3,0-0.4-0.2-0.4-0.7C304.5,127.7,304.6,127.5,304.9,127.5z
			 M305.8,138.5c0.3,0,0.4,0.2,0.4,0.6c0,0.4-0.1,0.6-0.4,0.6c-0.4,0-0.6-0.2-0.6-0.6C305.1,138.7,305.3,138.5,305.8,138.5z
			 M306.4,126.8c-0.1,0.3-0.3,0.4-0.4,0.4c-0.1,0-0.2-0.1-0.2-0.4l0.2-0.2L306.4,126.8z M306.4,124.9c0.3,0,0.4,0.2,0.4,0.7
			c0,0.5-0.1,0.7-0.4,0.7c-0.3,0-0.4-0.2-0.4-0.7C306,125.2,306.1,124.9,306.4,124.9z M308.3,133h-0.8c0-0.1,0.3-0.4,1.1-0.8
			L308.3,133z M308.3,137c0,0.7-0.1,1.3-0.4,1.8c-0.3,0.5-0.4,0.4-0.4-0.3C307.5,137.6,307.7,137.2,308.3,137z M308.9,140.4
			l-0.6,0.6v-1.3L308.9,140.4z"/>
	</g>
	<g>
		<path class="st2" d="M198.1,366.1c0,0.4-0.3,0.6-1,0.7c-0.7,0.1-1-0.1-1.1-0.5c0-0.4,0.3-0.6,1.1-0.7c-1-0.3-2.2-0.8-3.5-1.6
			c-1.4-0.7-2.7-1.5-3.9-2.2c-1.3-0.8-2.4-1.5-3.3-2.2c-1-0.7-1.5-1.3-1.5-1.9c0-0.4,0-0.7,0.2-0.9c0.2-0.2,0.3-0.5,0.5-0.9
			c0-0.2-0.2-0.5-0.5-0.8c-0.3-0.4-0.5-0.6-0.5-0.8c0-0.2,0.2-0.7,0.6-1.5c0.4-0.8,0.6-1.3,0.6-1.5l-0.2-2c-0.4,0-0.9,0.3-1.7,0.9
			c-0.7,0.6-1.2,0.7-1.4,0.3c-0.2,0-0.4-0.4-0.7-1.3c-0.3-0.9-0.4-1.4-0.5-1.6l-1.1-1.7l0.8-0.7c-1.6,0.2-2.2-0.3-2.1-1.4
			c0.2-1.1,0.2-2.3,0.1-3.7c-1,0.1-2.1,0-3.4-0.2c-1.3-0.3-1.7-1.3-1.1-3.1l-1.4,1c-0.2,0-0.4-0.2-0.6-0.5c-0.2-0.4-0.4-0.7-0.4-0.8
			c0-0.4-0.1-1.5-0.2-3.2c-0.1-1.8-0.2-2.8-0.5-3.2c-0.6-1.7-1.7-2.8-3.3-3.2c-1.6-0.4-2.5-1.5-2.7-3.3c-0.1-1,0.3-1.8,1.2-2.5
			c0.9-0.7,1.3-1.5,1.2-2.5c-0.1-1-0.8-2-2.2-3c-1.4-1-2.3-1.9-2.8-2.7c0.5-0.5,1.1-1,1.6-1.8c0.5-0.7,0.7-1.6,0.6-2.6
			c-0.2,0-0.5-0.1-0.9-0.5c-0.2-0.2-0.5-0.3-0.9-0.5l-0.1-1.2l1.4-4c0-0.2,0.1-0.4,0.2-0.6l0.3-0.3c0.2-0.4,0.5-0.9,1-1.6
			c0.2-0.4,0.4-0.7,0.8-1c0-0.4-1-0.9-3-1.6c-1.9-0.7-3-1.8-3.1-3.4c-0.1-1,0.1-1.8,0.5-2.4c0.4-0.6,0.7-1.4,0.8-2.4l1.4-3.7
			c0-0.2-0.2-0.6-0.4-1.1c-0.3-0.6-0.4-0.9-0.4-1.1c0.5-0.6,1.4-1,2.5-1.1l0.3,0.3l0.4,0.6c0.2,0,0.5-0.3,0.8-1
			c0.3-0.6,0.6-1.1,0.7-1.5c-0.2,0-0.5-0.5-1.1-1.7c0.2,0,0.5-0.3,0.9-0.8c0.4-0.5,0.6-1,0.6-1.4c-0.1-0.6-0.3-1-0.7-1.4
			c-0.4-0.4-0.6-1-0.5-2l1.5,0.4c0.2-0.4,0.2-0.7,0.2-0.9l-0.3-0.3c0-0.2-0.4-0.6-1.2-1.4c-0.8-0.7-1.3-1.3-1.5-1.9l0.3-0.3l0.6-0.1
			c0.2-0.2,0.5-0.3,0.8-0.4l-0.1-1.2l-1.3-0.8c-0.1-1,0.5-1.9,1.9-2.7c1.4-0.8,2.4-1.6,3.2-2.2l0.2,2l0.9,0.2l2.1-2.6l1.2-0.1
			c-0.1-1-1.1-1.8-2.9-2.4c0.3-0.4,0.8-1,1.5-1.6c0.6-0.7,1.4-1,2.4-1.1c0.2,0,0.8,0.1,1.8,0.3c1,0.2,1.7,0.3,2.1,0.2l0.3-0.3
			c0-0.2,0.1-0.4,0.2-0.6c-1-0.3-1.8-1.1-2.3-2.4c-0.5-1.3-1.3-1.9-2.2-1.8l0.3,2.9l-3.1-2c0.5-0.8,1.4-1.6,2.6-2.3
			c1.2-0.7,2.5-1.4,3.8-2c1.3-0.6,2.5-1.2,3.5-1.8c1-0.6,1.6-1.1,1.8-1.5c0-0.2-0.2-0.9-0.6-2s-0.6-2-0.7-2.6l4.1-0.4
			c-0.2-1.6-0.1-2.2,0.1-2.1c0.2,0.2,0.7-0.3,1.3-1.3c0.4,0.2,1.1,0.4,2,0.7c0.9,0.3,1.6,0.4,2,0.4c0.4-0.2,0.7-0.4,1.1-0.4
			c0.4-0.2,0.8-0.4,1.4-0.4l0.7,0.8c1.7-0.2,2.7-0.7,2.8-1.5c0.1-0.8,0.6-1,1.4-0.7l-0.8-1.7l3.1-1.8l-4.7,0.5
			c-0.1-0.6,0.2-1.1,0.9-1.4c0.6-0.4,1.4-0.6,2.1-0.7c0.8-0.1,1.6-0.1,2.3-0.1c0.8,0,1.3,0,1.5,0l-0.4-4.1l2.1,0.4
			c0-0.2,0.1-0.6,0.3-1.2c0.2-0.6,0.5-1,0.9-1.3c0.4,0.2,0.9,0.5,1.4,1c0.5,0.5,1,0.6,1.3,0.2l-0.1-1.5c1-0.1,1.8,0.1,2.5,0.5
			c0.7,0.4,1.7,0.6,2.8,0.4c-0.1-0.6-0.3-1.1-0.6-1.6c-0.3-0.5-0.6-1.1-0.6-1.8c-0.2-1.6,1.1-2.5,3.8-2.7c0.1,0.6,0.3,1.1,0.6,1.7
			c0.4,0.6,1,0.8,2,0.7c-0.4-0.4-0.2-1.2,0.8-2.4c0.9-1.3,1.6-1.9,2-2l0.2,1.7c1.2-0.1,2-0.5,2.5-1c0.5-0.5,1.7-0.9,3.4-1.1l0.3,0.3
			c0.4,0.3,0.8,0.5,1.2,0.5c0.4,0,0.7-0.3,0.8-0.8c0.1-0.5,0.5-0.9,1.1-1.1l0.7,0.8c-0.2,0.4-0.4,0.9-0.7,1.5
			c-0.3,0.6-0.5,1.2-0.4,1.8c0.8-0.3,1.3-0.8,1.8-1.5c0.4-0.7,0.8-1.4,1.1-2l2.2,1.2l-1,1.3c0.6-0.1,1.4,0,2.5,0.3
			c1.1,0.3,1.9,0.4,2.2,0.4c1-0.1,1.4-0.3,1.4-0.7l2.2,1.5c0.2-2,0.2-3.4,0.2-4.1c1.7-0.2,3-0.1,3.8,0.2c0.8,0.3,2.2,0.2,4.1-0.4
			l-0.8,1.3c1.1,1.1,2.2,1.7,3.4,2l0.1,1.2c1.2-0.1,1.9-0.6,2.2-1.4c0.3-0.8,0.3-1.6,0.1-2.4c0.2,0,0.4,0.1,0.6,0.2
			c0.2,0,0.4,0,0.6,0.1c0.2,0.1,0.5,0.1,0.9,0.1l2.2-2l2.9-0.3c0.1,0.6-0.1,1.1-0.6,1.5c-0.4,0.4-0.9,0.8-1.2,1
			c0.4,0,0.9,0.1,1.6,0.3c0.7,0.2,1.1,0.6,1.2,1.2c0.4,0.3,0.7,0.5,0.9,0.5c0.3-1,1.1-1.8,2.4-2.4c1.3-0.6,2.4-1,3.4-1.1
			c1-0.1,1.6,0,1.8,0.4c-0.9,0.5-1.2,1-0.7,1.7c0.5,0.6,0.7,1.2,0.7,1.5c0.2,0,0.6,0,1.3,0c0.7,0,1.2,0,1.6,0
			c0.4-0.2,0.6-0.5,0.8-0.7c0.3-0.4,0.6-0.7,0.8-0.7c0.2,0.4,0.7,0.8,1.3,1.3l1.6,1.3c0,0.2-0.1,0.6-0.3,1.2s-0.3,1-0.3,1.2l1.7-0.2
			l-0.4-4.1c1,0.1,1.6,0.5,1.9,1.1c0.3,0.7,0.6,1,1,0.9c0.6-0.1,1-0.2,1.1-0.6c0.2-0.3,0.5-0.5,1.1-0.6c1.4-0.1,2.6,0.4,3.8,1.7
			c1.2,1.2,2.6,1.8,4.1,1.6l1.1-0.7c0.2-0.2,0.5-0.3,0.8-0.4l1.7-0.2c1.7-0.2,2.9,0.2,3.5,1.1c0.6,0.9,1.1,1.8,1.6,2.8l0.1,0.6
			l0.4,0.6c0.5,0.9,1.3,1.3,2.3,1.1c1.1-0.2,2,0.4,2.7,1.9l-1.7,0.2l-0.3,0.3c0.1,1.2,0.9,1.5,2.3,1.1c1.4-0.4,2.5-0.1,3.2,1
			c0.9-1.1,1.7-1.6,2.5-1.7c0.9,0.7,1.2,1.3,1.1,1.8c-0.1,0.5-0.2,1.2-0.1,2.2c1-0.1,1.7,0,2.2,0.2c0.5,0.2,1.3,0.3,2.2,0.2
			l-0.2-1.7c0.6-0.1,1.2,0.2,1.9,0.8c0.7,0.6,1,1,1,1.2c0,0.2-0.1,0.5-0.5,0.9l-0.8,1c-0.8,0.1-1.4-0.3-1.9-1l-0.7,1.8l-1.8-0.4
			c-0.7,0.9-1,1.6-0.8,2.1c0.2,0.6,0.3,1.3,0.4,2.3c2.1-0.2,3.3-0.5,3.4-0.8c0.2-0.3,1-1.2,2.4-2.7l0.3-0.3c0-0.2,0.1-0.4,0.2-0.6
			c0.4,0,0.9,0.1,1.7,0.4c0.7,0.3,1.1,0.7,1.1,1.1c0.2,0.2,0.2,0.4,0.1,0.7c-0.2,0.3-0.1,0.6,0.1,0.7c0.4,0,0.9-0.3,1.7-0.8l1.7-1.1
			c-0.8-0.1-1.9-0.7-3.3-1.7c-1.4-1-2.1-1.8-2.2-2.4l3.6,1.1l-0.3,0.3l0.1,0.6c0,0.4,0.4,0.6,0.9,0.5c0.6-0.1,0.9-0.3,0.8-0.7
			c0-0.2-0.2-0.5-0.7-0.8l2.7,0.6c-0.7,0.5-1.1,0.7-0.9,0.8c0.1,0.1,0.2,0.5,0.3,1.3c0.6-0.1,1.3-0.2,2.2-0.5
			c0.9-0.3,1.3,0.3,1.5,1.6c0.1,0.8-0.3,1.3-1.2,1.4c-0.9,0.2-1.2,0.8-1.1,1.7l1.5-0.1l0.3,0.3l0.9,0.2c0.2,0,1,0.1,2.4,0.5
			c1.4,0.3,2.3,0.6,2.7,0.8c0.6,0.1,1.2,0.7,1.9,1.7c0.7,1,1.4,2.1,2.2,3.3c0.8,1.2,1.8,2.3,2.8,3.4c1.1,1.1,2.3,1.7,3.7,2
			c0.5,1.3,1.2,2.6,1.9,3.9c0.5,0.9,1,1.9,1.5,2.9c0.5,1,0.8,1.7,0.8,2.1l0.1,1.2c0.1,0.6-0.1,1.1-0.4,1.5c-0.9-1.5-1.7-2-2.2-1.5
			c-0.5,0.4-1.3,0.9-2.2,1.4c1.6-0.2,2.7,0,3.6,0.5c0.8,0.5,1.4,1.2,1.8,2c0.4,0.8,0.7,1.8,1,3c0.3,1.1,0.7,2.3,1.2,3.4l-3.5,0.4
			c0.1,1,0,1.9-0.2,2.7c-0.2,0.8-0.3,1.7-0.2,2.7l1,0.8l1.1-1c0.8,0.3,1.4,0.6,1.9,1c0.4,0.3,0.7,1,0.8,2c0.1,1-0.2,1.8-0.8,2.4
			c-0.6,0.7-1.4,1.2-2.3,1.7l1.3,1l0.5-1.2c0.2,0,0.6,0.2,1.1,0.6c0.5,0.4,0.8,0.8,0.8,0.9c0,0.2-0.1,0.4-0.2,0.6
			c-0.4,0.4-0.5,0.7-0.5,0.9c-0.4,0.4-0.6,0.9-0.7,1.5c0,0.2,0.2,0.7,0.6,1.4c0.4,0.7,0.6,1.3,0.6,1.7c0.1,1.4,0.1,2.6-0.2,3.8
			c-0.3,1.2-1.1,2.3-2.6,3.2l1,1.4l-0.3,0.3l-0.2,0.6c-0.2,0.2-0.2,0.5-0.2,0.9c0,0.2,0.2,0.4,0.5,0.7c0.3,0.3,0.5,0.5,0.5,0.7
			c0,0.4,0.3,0.9,0.8,1.7c0.2,0.4,0.5,0.6,0.7,0.8c-0.6,1.6-1.8,3.5-3.5,5.7c-1.7,2.1-2.5,4.2-2.3,6.1c-0.2,0.4-0.8,1.2-1.8,2.2
			c-1.1,1.1-1.8,1.8-2.1,2.3c-0.4,0-1.1,0-2.1-0.2c-1-0.2-1.6-0.3-1.8-0.3c0.2,2.1,0,3.7-0.5,4.8c-0.6,1-1.5,2.5-2.6,4.4
			c0.8,0.3,1.5,0.4,2.1,0.4c-0.4,0.4-1,1.1-1.9,2c-0.9,0.9-1.4,1.5-1.6,1.9c0,0.2,0,0.7,0,1.6c0,0.9-0.2,1.3-0.6,1.4
			c0,0.4-0.4,0.8-1.4,1.2c-0.9,0.4-1.9,0.7-2.8,1l-0.3,0.3c0,0.2-0.1,0.4-0.2,0.6l0.5,5.2c-0.4,0-0.9,0.5-1.5,1.3
			c-0.6,0.8-1.2,1.8-1.9,2.8c-0.7,1-1.3,2-1.8,2.8c-0.5,0.8-0.7,1.3-0.7,1.5c-0.4,0-1.1,0.2-2,0.4c-1,0.2-1.6,0.3-2,0.4
			c-0.2,0.2-0.3,0.4-0.2,0.6c-0.2,0.2-0.3,0.4-0.2,0.6c0.8-0.1,1.2,0.3,1.3,1c-1,0.1-2.1,0.5-3.3,1.2c-1.2,0.7-1.9,1.1-2.1,1.1
			l-0.9-0.5c-0.6,0.3-1.2,0.8-1.8,1.5c-0.6,0.7-0.9,1.6-0.8,2.6c-0.6,0.1-1,0.2-1.1,0.6c-0.2,0.3-0.4,0.5-0.8,0.5
			c-0.6,0.1-1,0-1.2-0.3c-0.2-0.3-0.6-0.4-1.2-0.3c-1,0.1-1.4,0.4-1.2,1c0.2,0.6-0.1,0.9-0.6,0.9c-0.4-0.2-0.7-0.3-0.9-0.5
			c-0.4-0.2-0.8-0.2-1.2-0.2c-0.4,0-0.5,0.4-0.5,1.1c0.1,0.7-0.1,1.4-0.4,2.2c-0.3,0.8-0.9,1.6-1.8,2.4c-0.9,0.8-2.4,1.3-4.6,1.5
			l-1.2,0.1l-0.6-0.5c-0.2-0.2-0.4-0.3-0.6-0.2c-0.2,0-0.5,0.1-0.8,0.4c-0.4,0.2-0.7,0.4-0.8,0.4c-0.2,0-0.4,0.1-0.6,0.3
			c-0.8,0.1-1.3-0.3-1.6-1.2c-0.3-0.9-0.5-1.5-0.8-1.8c-0.9,1.1-1.1,2.2-0.5,3.3c-0.4,0-1.3,0.3-2.9,0.7c-1.5,0.4-2.5,0.7-2.9,0.7
			c-1.6,0.2-2.6,0.4-3.2,0.8s-0.9,0.6-1.1,0.8l-0.5,0.9c-0.2,0.4-0.6,0.7-1.4,0.7c-0.1-1-0.7-1.6-1.7-1.9c-1-0.3-2.2-0.4-3.6-0.2
			c0.8,0.3,1.6,0.7,2.5,1.1c0.8,0.4,1.3,0.9,1.3,1.5c-0.4,0-0.9-0.1-1.7-0.4c-0.7-0.3-1.3-0.5-1.7-0.4l0.4,0.6
			c0,0.2,0.1,0.4,0.3,0.6l-0.5,0.6c-0.2,0.2-0.3,0.4-0.2,0.6c0,0.2,0.2,0.4,0.5,0.7c0.3,0.3,0.5,0.6,0.5,1l-0.8,0.4
			c-0.4-0.4-0.9-0.3-1.5,0c-0.6,0.3-0.4,0.7,0.4,1l-4.7,0.5c-1,0.1-1.3-0.3-1.1-1.1c0.2-0.8-0.5-1.3-2.1-1.6c-0.8,0.1-1.2,0-1.4-0.3
			c-0.1-0.3-0.3-0.7-0.4-1.1c-0.2-0.5-0.4-0.8-0.7-1.1c-0.3-0.3-1-0.3-1.9-0.2c0.3,2.5,1.6,4.4,4.1,5.8l-2.6,0.3l0.1,1.2
			c-1.2,0.1-2.5-0.3-4-1.4c-1.5-1-2.9-1.5-4.3-1.3c-0.4,0.4-0.5,1-0.4,1.8c-1.3-0.9-2.2-1.4-2.7-1.8c-0.5-0.3-1-0.7-1.4-1l-0.6-0.5
			c-0.1-0.6-0.8-0.8-2.1-0.7c-0.8,0.1-1.4,0.2-1.9,0.5c-0.5,0.2-1.1,0.4-1.9,0.5c-1.6,0.2-2.7-0.3-3.5-1.3c-0.8-1-2.2-1.4-4.1-1.2
			l-0.5,0.6c-0.5,0.6-0.9,1-1.1,1c-1.6-0.6-3-1-4.1-1.2c-1.1-0.2-2.2-0.6-3.2-1.3c0.4,0,0.7-0.2,0.8-0.4c0.2,0.4,0.6,0.5,1.1,0.3
			c0.5-0.1,0.7-0.4,0.7-0.8c0-0.4-0.3-0.6-0.8-0.7c-0.5-0.1-0.8,0.1-1,0.5c-0.2-0.4-0.5-0.5-0.9-0.3c-0.4,0.1-0.5,0.4-0.5,0.8
			c-0.5-0.5-0.9-1.6-1.5-3.1c-0.5,0.6-1.4,1-2.5,1.1c-1.6,0.2-2.5-0.4-3-1.8c-0.4-1.3-1.5-1.9-3.3-1.7c-0.4,0-0.7,0.2-0.8,0.4
			c-0.2,0-0.5,0.1-0.8,0.4c-0.2,0-0.7-0.1-1.7-0.4c-0.9-0.3-1.5-0.5-1.7-0.7l-1.2,0.1c-0.4,0.2-1.1,0.5-2.1,0.7
			c-1.1,0.2-1.8,0.4-2.1,0.7c-0.6-0.1-1-0.5-1.1-1.1c-0.2-0.6-0.3-1.2-0.3-1.9c-0.1-0.7-0.2-1.3-0.5-1.9c-0.3-0.6-0.9-0.8-1.8-0.7
			l-0.8,1.3c-0.2,0-0.6-0.1-1.1-0.3c-0.5-0.2-0.8-0.5-0.8-0.7l-2.1-0.4c0.3-0.4,0.6-1.2,0.7-2.3c0.1-1.1,0.1-1.7,0.1-1.9
			c-0.2-0.4-0.6-0.6-1-0.8c-0.8-0.3-1.4-0.4-1.8-0.4c-0.2,0-0.4,0.2-0.5,0.5c-0.2,0.3-0.4,0.5-0.8,0.5c-0.2,0-0.4-0.1-0.8-0.2
			C197.9,365.6,197.8,365.7,198.1,366.1z M164.9,280.6c0,0.4-0.3,0.6-1,0.7c-0.7,0.1-1-0.1-1.1-0.5c0-0.4,0.3-0.6,1-0.7
			C164.5,280.1,164.9,280.2,164.9,280.6z M164.4,295.1c0-0.4-0.2-0.6-0.5-0.5c-0.3,0-0.3,0.2-0.1,0.6c0,0.4,0.2,0.6,0.4,0.6
			C164.3,295.7,164.4,295.5,164.4,295.1z M165.9,284.6c-0.1-0.6-0.4-0.8-1-0.8c-0.6,0.1-0.8,0.4-0.8,1c0,0.4,0.4,0.6,0.9,0.5
			C165.7,285.2,166,285,165.9,284.6z M167.1,295.7l0.2-0.6l-0.3-0.3C166.4,295.5,166.5,295.8,167.1,295.7z M168.6,293.8
			c0-0.4-0.3-0.6-0.9-0.5c-0.6,0.1-0.9,0.3-0.8,0.7c0,0.4,0.4,0.6,0.9,0.5C168.4,294.4,168.7,294.2,168.6,293.8z M169.8,270.4
			c-0.1-0.6-0.4-0.8-1.1-0.8c-0.7,0.1-1,0.4-0.9,1c0,0.4,0.4,0.5,1.1,0.5C169.5,271,169.8,270.8,169.8,270.4z M169.8,328.4
			c0,0.4-0.3,0.6-1,0.7c-0.7,0.1-1-0.1-1.1-0.5c0-0.4,0.3-0.6,1-0.7C169.4,327.8,169.8,328,169.8,328.4z M169.7,278.4
			c0-0.4-0.4-0.6-0.9-0.5c-0.6,0.1-0.9,0.3-0.8,0.7c0,0.4,0.4,0.6,0.9,0.5C169.5,279,169.7,278.8,169.7,278.4z M170.9,264.4
			c0-0.4-0.4-0.6-0.9-0.5c-0.6,0.1-0.9,0.3-0.8,0.7c0.1,0.6,0.4,0.8,1,0.8C170.7,265.3,171,265,170.9,264.4z M171.4,269.1
			c0-0.2-0.2-0.3-0.6-0.2c-0.4,0-0.6,0.2-0.6,0.4C171.1,270.3,171.5,270.2,171.4,269.1z M174.3,340.3c0,0.4-0.2,0.6-0.8,0.7
			s-0.9-0.1-0.9-0.5c-0.1-0.6,0.2-0.9,0.8-1S174.2,339.7,174.3,340.3z M176.1,341.5c0,0.2-0.5,0.5-1.7,1.1c0-0.2,0.1-0.4,0.2-0.6
			l0.3-0.3L176.1,341.5z M180,252.3c0.3-0.4,0.2-0.6-0.4-0.6c-0.6,0.1-0.7,0.3-0.2,0.6c0,0.4,0.2,0.6,0.4,0.6
			C179.9,252.9,180,252.7,180,252.3z M181.7,243.3c0,0.4,0,0.6-0.2,0.6c-0.2,0-0.3-0.2-0.4-0.6c0-0.4,0.1-0.6,0.4-0.6
			S181.9,242.9,181.7,243.3z M182.4,241.8c0.1,0.6-0.2,0.6-0.9,0.1c0-0.4,0.1-0.6,0.5-0.6C182.5,241.2,182.6,241.4,182.4,241.8z
			 M185.1,351.2c0,0.4-0.3,0.6-1,0.7c-0.7,0.1-1-0.1-1.1-0.5c-0.1-0.6,0.2-0.9,0.9-1C184.6,350.4,185,350.6,185.1,351.2z
			 M186.6,296.9c0-0.4-0.4-0.5-1.1-0.5c-0.7,0.1-1,0.3-1,0.7c0,0.4,0.4,0.5,1.1,0.5C186.3,297.6,186.6,297.3,186.6,296.9z
			 M188.7,294.1c0-0.4-0.4-0.6-0.9-0.5c-0.6,0.1-0.9,0.3-0.8,0.7c0,0.4,0.4,0.6,0.9,0.5C188.4,294.7,188.7,294.5,188.7,294.1z
			 M189.1,241.1c-0.1-0.6-0.3-0.8-0.8-0.8c-0.5,0-0.7,0.4-0.6,0.9c0,0.4,0.3,0.6,0.8,0.5C188.9,241.7,189.2,241.5,189.1,241.1z
			 M191.1,318.2c0-0.4-0.4-0.6-0.9-0.5c-0.6,0.1-0.9,0.3-0.8,0.7c0,0.4,0.4,0.6,0.9,0.5C190.9,318.9,191.2,318.6,191.1,318.2z
			 M191.6,314.7c0-0.4-0.4-0.6-0.9-0.5c-0.6,0.1-0.9,0.3-0.8,0.7c0.1,0.6,0.4,0.8,1,0.8C191.4,315.6,191.7,315.2,191.6,314.7z
			 M191.1,360.9c0.4,0,0.4-0.2-0.1-0.6c-0.4-0.4-0.6-0.4-0.6-0.2c-0.4,0.4-0.4,0.7-0.1,0.9C190.6,361.1,190.9,361.1,191.1,360.9z
			 M192,300.5c0.2-0.4-0.2-0.6-0.9-0.5c-0.8,0.1-1,0.3-0.8,0.7C190.9,301.2,191.4,301.2,192,300.5z M192.1,302
			c0-0.4-0.4-0.6-0.9-0.5c-0.6,0.1-0.9,0.3-0.8,0.7c0,0.4,0.4,0.6,0.9,0.5C191.9,302.6,192.1,302.4,192.1,302z M192.8,291.3
			c0-0.4-0.4-0.6-0.9-0.5c-0.6,0.1-0.9,0.3-0.8,0.7c0,0.4,0.4,0.6,0.9,0.5C192.6,291.9,192.8,291.7,192.8,291.3z M289.7,249.4
			c0-0.4-0.4-0.6-0.9-0.5c-0.6,0.1-0.9,0.3-0.8,0.7c-1.1-0.7-2-1.2-2.8-1.5c0,0.4-0.1,1-0.4,1.8c-0.3,0.8-0.8,1.4-1.6,1.6
			c1-0.1,1.5,0.5,1.7,1.9c0.2,1.9-0.9,3-3.2,3.3c-1,0.1-1.8-0.3-2.6-1.1c-0.8-0.8-0.9-1.7-0.4-2.8l-1.7,0.8c-0.4,0-1,0-1.9-0.1
			c-0.9-0.1-1.4-0.1-1.6-0.1l0.8-1c0.9-0.5,1.6-1,2-1.7c0.4-0.6,1.1-1.3,2-2l-1.9-1.3l-2.4,2.6c0-0.4-0.2-0.9-0.4-1.4
			c-0.3-0.6-0.5-0.8-0.7-0.8c0-0.4-0.3-0.6-0.6-0.5c0.2,1.6,0.1,2.6-0.1,3.1c-0.2,0.5-0.7,0.8-1.2,0.9l-1.5,0.1
			c-0.4,0-0.7,0.5-1,1.3c-0.4-0.4-0.8-0.5-1.2-0.5l-1.4,1l-2.6,0.3c-2.1,0.2-3.8,0.2-5-0.1c-1.2-0.3-3.1-0.2-5.6,0.3
			c-0.3-0.6-0.8-0.8-1.5-0.7l-2.6,0.3c-0.8,0.1-1.6,0.1-2.5,0.1c-0.9,0-1.6-0.4-2-1.1l0.2,1.7c-0.9-0.9-2.1-1.8-3.7-2.9
			c-1.6-1-3.1-1.4-4.7-1.3c0.4,0.2,0.8,0.5,1.3,0.9c0.4,0.4,0.6,0.9,0.4,1.3c-0.2,0.4-0.6,0.7-1.2,0.9c-0.7,0.2-1.3,0.3-1.9,0.3
			c0,0.4-0.2,0.6-0.8,0.7c-0.6,0.1-0.9-0.1-0.9-0.5c-0.1-0.8,0.3-1,1.1-0.7c-0.5-0.7-0.7-1.5-0.8-2.3l-4.1,0.4
			c0,0.4,0.2,0.8,0.6,1.3c0.3,0.5,0.5,0.9,0.6,1.3c0,0.4-0.6,0.9-2,1.5c-1.4,0.6-2.4,1-3,1c-0.5-0.7-0.8-1.6-0.8-2.6
			c-0.7,0.5-1.1,1.1-1,2c0.1,0.9-0.4,1.4-1.3,1.5c-0.2,0-0.5-0.2-0.9-0.6c-0.4-0.4-0.8-0.7-0.9-0.6c-0.4,0-0.7,0.2-0.8,0.4
			c-0.4,0-0.8,0.3-1.1,0.7l-0.8,1c-0.6,0.1-1.1-0.2-1.5-0.7c-0.5-0.5-0.8-1.1-1.1-1.7l-2.4,2.6l1.5-0.1c1-0.1,1.6,0.1,1.8,0.7
			c-0.5,0.4-1.6,1-3.2,1.8c-1.6,0.8-3.2,1.6-4.9,2.4c-1.7,0.9-3.2,1.8-4.4,2.8c-1.3,1-1.9,2-1.8,3c0.1,1-0.5,2-1.9,3
			c-1.4,1-2,1.9-1.9,2.7l1,0.8c0.4,0.3,0.7,0.5,0.9,0.5c-1.4,1.5-3.1,2.5-5,2.9c0.3,0.9,0.9,1.9,1.8,2.8c0.9,0.9,1.4,1.7,1.4,2.5
			c0.1,1-0.6,2.2-2,3.6c-1.4,1.4-2.3,2.2-2.7,2.5c0,0.4,0,0.6-0.1,0.6c-0.1,0,0,0.2,0.2,0.6l1.5,0.4l-3,2.7c0.4,0,1.2,0.1,2.5,0.3
			c1.3,0.3,2,0.9,2.1,1.8c-0.7,0.5-1.4,0.7-2,0.8c-0.6,0.1-1,0.4-1.4,1c0.2,0.4,0.8,0.7,1.7,0.9c0.9,0.2,1.2,0.4,0.8,0.7l-2,3.4
			l2.3-0.2c0.4,0,0.7,0,0.9,0.2l0.3,0.3l-1.3,4.3l1.6,1.3c-0.8-0.3-1.4-0.2-1.9,0.3c-0.4,0.5-1.1,0.9-2.1,1c0.6,0.5,1,1.1,1.1,1.7
			c0,0.2-0.2,0.5-0.6,0.9c-0.4,0.4-0.6,0.8-0.6,1.2c0.1,0.6,0.3,1,0.9,1.2c0.5,0.2,1.1,0.5,1.8,0.7c0.7,0.2,1.3,0.7,1.9,1.6
			c0.6,0.8,1,2.1,1.1,3.9l0.2,2c0,0.2-0.2,0.5-0.5,0.8c-0.4,0.3-0.5,0.7-0.5,1.1c0.5,1.1,1.3,2.1,2.5,2.8c1.2,0.8,1.8,2.2,2.1,4.3
			c-0.2,0.4-0.3,0.8-0.5,1.1c-0.2,0.3-0.5,0.6-1.1,0.8l0.4,0.6l0.3,0.3c0.8,0.5,1.6,1.2,2.4,2c0.8,0.8,1.5,1.7,2.3,2.6
			c0.8,0.9,1.5,1.7,2.3,2.4c0.8,0.7,1.6,1,2.6,0.9c0.6,0.1,1.8,0,3.6-0.4c1.8-0.4,2.9-0.6,3.3-0.6l-0.8,1.3l0.1,1.5l-1.5-0.4
			c-0.6,0.1-1.1,0.6-1.5,1.5c-0.4,0.9-0.6,1.6-0.5,2c0.6-0.1,1.2-0.2,1.7-0.3c0.6-0.2,0.9-0.4,1.1-0.8c0.9,0.9,2,1.6,3.5,2.1
			c1.4,0.5,2.7,0.8,3.9,0.6l2.6-0.3c0-1.8,1-2.7,2.9-2.9l0.1,1.5c1.4-1.5,3.2-2.4,5.3-2.6c0,0.2-0.1,0.7-0.3,1.5
			c-0.2,0.8,0.2,1.3,1.2,1.6c0.2-1.4,0.6-2.2,0.9-2.4c0.4-0.2,1.1-0.4,2.3-0.5l0.5,4.9l5.1,0.7c0.5,1.3,1.2,2.4,2,3.3
			c0.8,0.9,1.6,1.6,2.4,2.1c0.2-0.2,0.6-0.4,1.4-0.6c0.8-0.2,1.3-0.4,1.7-0.6c0.8,0.3,0.8,0.6,0.1,0.9l0.1,1.5l1.2-0.1
			c-0.2-1.9,0.5-3.3,2.2-4.1c0.2,1.6,1.3,2.2,3.4,2l-4.8-3.6c-0.2,0-0.4,0.1-0.6,0.3l-0.5,0.6c-0.2,0.2-0.3,0.5-0.5,0.9l-3.5,0.4
			c0.4-0.2,0.7-0.4,1.1-0.6c0.4-0.1,0.7-0.3,0.8-0.5c-0.4-0.4-0.8-0.9-1-1.5c-0.3-0.7-0.7-1.2-1.3-1.5c-0.7,0.5-1,0.7-0.8,0.8
			c0.2,0.1,0.3,0.4,0.4,1l-1.2,0.1l-1.8-3.3l1.2-0.1c1.4-0.1,2.4,0.2,3.2,1.1c0.8,0.9,1.6,1.3,2.6,1.2l-0.1-1.5
			c0.8-0.1,1.2-0.2,1.1-0.4l0.4,0.6c0,0.2,0.1,0.4,0.4,0.6l4.4-0.4l0.2,1.7l-1.7,0.2c0.4,0.2,0.9,0.4,1.4,0.9
			c0.5,0.4,0.8,0.8,0.9,1.2l1.5-0.1l-0.2-2c1.2-0.1,2.2,0.3,3.2,1.3c1,1,2.2,1.4,3.8,1.2l1.1-0.4c0.2,0,1.1-0.5,2.8-1.3
			c1.7-0.9,2.7-1.4,3.1-1.6c1.2-0.1,2.4,0,3.7,0.4c1.3,0.4,2.5,0.5,3.7,0.4c2.7-0.3,5.5-0.8,8.2-1.7c2.8-0.9,5.4-1.8,8.1-2.9
			c1.1-0.5,2.1-1.2,3-2.1c0.9-0.9,1.8-1.6,2.7-2l1.5-0.1c2-1.6,3.8-3.4,5.5-5.6c1.6-2.1,3.8-3.3,6.5-3.6l1.2-0.1
			c-1.3-0.9-2-2-2.1-3.3c-0.1-1,0.4-2.2,1.4-3.7c1-1.5,1.8-2.9,2.2-4.3c0-0.2,0.1-0.5,0.3-0.9c0.3-0.4,0.4-0.7,0.3-0.9l3.2-3.3
			c0.2-0.4,0.2-1.1,0.2-2.1c0-1,0.4-1.7,1.1-2.2c-0.1-0.6,0-1.8,0.2-3.7c0.2-1.9,0.4-3.1,0.5-3.7c0.3-1,0.6-2.8,0.9-5.4
			c0.3-2.6,0.9-4.2,1.9-4.9l1.2,0.5c0.8,0.3,1.3,0.5,1.5,0.4c0.4,0,0.6-0.4,0.5-0.9l-0.1-0.9c-0.1-1-0.7-1.4-1.9-1.3
			c-1.2,0.1-1.8-0.5-2-1.9c-0.2-1.6,0.2-2.6,1-3.2c0.8-0.6,1.8-1,2.8-1.3c1-0.3,2.1-0.5,3-0.6c1-0.1,1.4-0.4,1.4-1
			c-0.2,0-0.7-0.1-1.5-0.3c-0.8-0.2-1.4-0.5-1.8-0.8c-0.4-0.2-1.2-0.2-2.4-0.1l-2,0.2l1.3-1.6c0.5-0.6,0.8-1.3,0.7-1.8
			c-0.1-1.2-0.5-2.2-1.2-3.1c-0.7-0.9-2.1-1.3-4.2-1c0-0.2-0.3-0.7-0.7-1.4c-0.5-0.7-0.6-1.2-0.4-1.4c-0.1-1-0.1-1.6,0.1-1.8
			c-0.6-0.3-1.4-1-2.4-2c-1-1-1.9-2-2.8-3c-0.9-1-1.7-1.9-2.3-2.7c-0.7-0.8-1.1-1.2-1.3-1.2l-0.3-0.3l-0.1-0.6l0.8-1
			c0.2-0.2,0.4-0.4,0.8-0.7l-0.1-1.2c-0.2-0.2-0.7-0.3-1.4-0.3c-0.7,0-1.1,0-1.3,0c-0.2,0-0.5,0.3-0.9,0.8c-0.4,0.5-0.9,0.9-1.5,1.2
			c-1-0.5-2-0.9-2.9-1.3c-0.9-0.4-2-0.5-3.1-0.4c-0.8-0.1-2.2-0.2-4.1-0.3c-2-0.1-3.4-0.1-4.4,0c0.7-0.5,1.7-0.8,2.9-0.9l-0.2-2.3
			c0-0.4-0.3-0.8-0.7-1.1l-5.5-1.8c-0.1,0.6-0.6,1.1-1.5,1.6c-0.8,0.5-1.4,0.6-1.6,0.5c-0.4,0-0.8-0.1-1.2-0.5
			c-0.4-0.4-0.7-0.7-0.7-1.1l2.3-0.2c-0.5-0.7-1.2-1.4-2.3-2.1l0.6-0.1C289.4,250,289.7,249.8,289.7,249.4z M193.6,316.2
			c0-0.4-0.4-0.6-0.9-0.5c-0.6,0.1-0.9,0.3-0.8,0.7c0,0.4,0.4,0.6,0.9,0.5C193.3,316.8,193.6,316.6,193.6,316.2z M193.5,231.5
			c0,0.4-0.2,0.6-0.7,0.7c-0.5,0-0.7-0.1-0.8-0.5c0-0.4,0.2-0.6,0.7-0.7C193.1,231,193.4,231.1,193.5,231.5z M194.9,233.7
			c-0.2,0.4-0.6,0.6-1.3,0.7c-0.7,0.1-1.1-0.1-1.4-0.4c-0.2-0.2,0.2-0.3,1.3-0.4C194.6,233.5,195,233.5,194.9,233.7z M194.2,305
			c0-0.4-0.4-0.6-0.9-0.5c-0.6,0.1-0.9,0.3-0.8,0.7c0,0.4,0.4,0.6,0.9,0.5C194,305.6,194.2,305.4,194.2,305z M195,313.1
			c0,0.4-0.2,0.6-0.8,0.7c-0.6,0.1-0.9-0.1-0.9-0.5c-0.1-0.6,0.2-0.9,0.8-1C194.6,312.3,195,312.6,195,313.1z M196.5,292.7
			c0,0.4-0.3,0.6-1,0.7c-0.7,0.1-1-0.1-1.1-0.5c0-0.4,0.3-0.6,1-0.7C196.1,292.2,196.4,292.3,196.5,292.7z M195.4,233.1
			c-0.2-0.2-0.3-0.5-0.3-1c0-0.5,0.2-0.8,0.4-0.8c0.4,0,0.6,0.2,0.5,0.8C196,232.8,195.8,233.1,195.4,233.1z M198.2,367.5
			c-0.7,0.7-1.4,0.7-2,0.2c-0.2-0.4,0-0.6,0.8-0.7C197.8,367,198.2,367.1,198.2,367.5z M198.9,360.1l-0.3-0.3
			c-0.4,0-0.6,0.2-0.6,0.3c0,0.4,0.2,0.6,0.5,0.5C198.8,360.7,199,360.5,198.9,360.1z M202.8,228.2l-3.5,0.4l1.9-2L202.8,228.2z
			 M201.6,337.5c-0.1-0.6-0.3-0.8-0.8-0.8c-0.5,0-0.7,0.4-0.6,0.9c0,0.4,0.3,0.6,0.8,0.5C201.4,338.1,201.7,337.8,201.6,337.5z
			 M202.6,225.9l-0.6,0.3l-0.3-0.3c0-0.4,0.1-0.6,0.5-0.6C202.6,225.3,202.7,225.5,202.6,225.9z M205,232.1c0-0.4-0.4-0.6-0.9-0.5
			c-0.6,0.1-0.9,0.3-0.8,0.7c0,0.4,0.4,0.6,0.9,0.5C204.8,232.7,205,232.5,205,232.1z M205.9,368.2c0-0.2-0.2-0.3-0.6-0.2
			c-0.4,0-0.6,0.2-0.6,0.4C205.4,368.8,205.8,368.8,205.9,368.2z M213.5,367.4c0-0.4-0.3-0.6-0.9-0.5c-0.6,0.1-0.9,0.3-0.8,0.7
			c0.1,0.6,0.4,0.8,1,0.8C213.3,368.3,213.6,368,213.5,367.4z M213.2,344.2c0-0.2-0.2-0.3-0.6-0.2c-0.4,0-0.6,0.2-0.6,0.4
			C212.2,344.5,212.6,344.5,213.2,344.2z M213.4,341c-0.4-0.4-0.5-0.6-0.1-0.9c0.4,0,0.6,0.1,0.6,0.4
			C214,340.8,213.8,340.9,213.4,341z M217.6,255c0-0.4-0.3-0.6-0.8-0.5c-0.5,0-0.7,0.3-0.7,0.7c0,0.4,0.3,0.6,0.8,0.5
			C217.4,255.6,217.6,255.3,217.6,255z M218.3,249.9c0-0.4-0.4-0.6-0.9-0.5c-0.6,0.1-0.9,0.3-0.8,0.7c0,0.4,0.4,0.6,0.9,0.5
			C218,250.5,218.3,250.3,218.3,249.9z M219.4,252.4c0-0.4-0.4-0.5-1.1-0.5c-0.7,0.1-1,0.3-1,0.7c0,0.4,0.4,0.5,1.1,0.5
			C219.1,253,219.4,252.8,219.4,252.4z M219.6,253.9c0.2-0.4-0.2-0.6-0.9-0.5c-0.8,0.1-1.1,0.3-1.1,0.7
			C218.2,254.6,218.8,254.5,219.6,253.9z M218.7,349.5c0.4,0,0.6-0.3,0.5-0.6c0-0.4-0.3-0.6-0.6-0.5
			C218,348.6,218.1,349,218.7,349.5z M221.5,342.5l-0.8,1c0,0.4-0.2,0.6-0.8,0.7s-0.9-0.1-0.9-0.5c0-0.2,0.1-0.5,0.5-0.9
			c0-0.4,0.3-0.6,1-0.7C221.1,341.9,221.5,342.1,221.5,342.5z M222,347.4c0,0.4-0.3,0.6-1,0.7c-0.7,0.1-1-0.1-1.1-0.5
			c-0.1-0.6,0.2-0.9,0.9-1C221.6,346.6,222,346.9,222,347.4z M222.5,346.2c-0.2,0.2-0.4,0.3-0.7,0.2c-0.3-0.1-0.3-0.3,0.1-0.7
			c0.2-0.2,0.4-0.2,0.7,0.1C222.9,346,222.9,346.2,222.5,346.2z M223.4,225.5c0-0.4-0.2-0.6-0.5-0.5c-0.3,0-0.4,0.2-0.4,0.6
			C223.2,226.2,223.5,226.1,223.4,225.5z M226.8,249.9c0-0.4-0.3-0.6-0.8-0.7c-0.5-0.1-0.8,0.1-1,0.5c-0.2-0.4-0.5-0.5-0.9-0.3
			c-0.4,0.1-0.5,0.4-0.5,0.8c0,0.4,0.3,0.6,0.7,0.7c0.4,0.1,0.7-0.1,0.8-0.5c0.2,0.4,0.6,0.5,1.1,0.3
			C226.6,250.6,226.8,250.3,226.8,249.9z M225.4,345.9c-0.1,0.8-0.5,0.8-1.2,0.1c0-0.2,0.2-0.3,0.6-0.4
			C225.2,345.6,225.4,345.7,225.4,345.9z M226.2,353.5c-0.2,0-0.5,0.3-0.9,1c-0.4,0.6-0.6,1.1-0.6,1.5c1.4-0.1,2.6,0,3.7,0.5
			c1.1,0.5,2.4,0.6,3.7,0.5c0.8-0.1,1.6-0.4,2.4-0.8c0.8-0.5,1.2-1.2,1.1-2.2c-1.6-0.2-3.2-0.5-4.8-0.8c-1.6-0.3-2.5-1.6-2.7-3.7
			c-0.4,0-0.7,0.4-0.9,1c-0.2,0.6-0.3,1-0.3,1.2l-1.8-0.4c0.2,0.2,0.3,0.4,0.4,0.6l0.6,0.5L226.2,353.5z M226.8,345.2
			c0,0.4-0.2,0.6-0.7,0.7c-0.5,0-0.7-0.1-0.8-0.5c0-0.4,0.2-0.6,0.7-0.7C226.5,344.6,226.8,344.8,226.8,345.2z M227.2,254
			c0-0.4-0.4-0.6-0.9-0.5c-0.6,0.1-0.9,0.3-0.8,0.7c0,0.4,0.4,0.6,0.9,0.5C227,254.6,227.2,254.4,227.2,254z M231.5,221.2
			c-0.1-0.8-0.7-1.3-1.8-1.6c-1.1-0.3-1.9-0.4-2.2-0.4c-0.4,0.2-0.5,0.5-0.5,0.9l0.1,0.9c0.1,0.6,0.5,1.2,1.4,1.8
			c0.8,0.6,1.8,0.9,2.7,0.8c0.2-0.2,0.4-0.6,0.6-1.2S231.9,221.3,231.5,221.2z M230.5,381.3l-1.7,0.2c-0.1-1,0.2-1.6,1-1.9
			L230.5,381.3z M230.3,353.6c0,0.4-0.2,0.6-0.7,0.7c-0.5,0-0.7-0.1-0.8-0.5c0-0.4,0.2-0.6,0.7-0.7
			C230,353.1,230.3,353.3,230.3,353.6z M231,343c0.1,0.6-0.2,0.9-0.8,1c-0.6,0.1-0.9-0.2-1-0.8c0-0.4,0.2-0.6,0.8-0.7
			C230.6,342.4,231,342.6,231,343z M232.4,348.1c-0.1-0.6-0.3-0.8-0.8-0.8c-0.5,0-0.7,0.4-0.6,0.9c0,0.2,0.1,0.4,0.4,0.6l-1.5,0.1
			c0.1,1,0.7,1.5,1.8,1.7c1.1,0.2,2,0.2,2.8,0.2c1-0.1,1.8-0.4,2.6-0.8c-0.3-0.8-1.4-1.1-3.4-1.1c-0.8-0.1-1.5-0.1-2.1-0.1
			C232.2,348.8,232.4,348.5,232.4,348.1z M232.5,219.3c0-0.4-0.4-0.6-0.9-0.5c-0.6,0.1-0.9,0.3-0.8,0.7c0.1,0.6,0.4,0.8,1,0.8
			C232.3,220.2,232.6,219.9,232.5,219.3z M232.4,373.7c0-0.4-0.3-0.6-0.8-0.5c-0.5,0-0.7,0.3-0.7,0.7c0,0.4,0.3,0.6,0.8,0.5
			C232.2,374.3,232.4,374.1,232.4,373.7z M233.9,351.5c0-0.4-0.4-0.5-1.1-0.5c-0.7,0.1-1,0.3-1,0.7c0.1,0.6,0.4,0.8,1.1,0.8
			C233.7,352.4,234,352.1,233.9,351.5z M234.5,342.6c0.1,0.6-0.2,0.9-0.6,0.9c-0.5,0-0.8-0.2-0.8-0.8c0-0.4,0.2-0.6,0.7-0.7
			C234.2,342.1,234.5,342.2,234.5,342.6z M235.3,220.8c0-0.2-0.2-0.3-0.6-0.2c-0.4,0-0.6,0.2-0.6,0.4
			C234.6,221.7,235,221.6,235.3,220.8z M234.5,377.6l0.9,0.5l1.1-0.7L234.5,377.6z M238.1,343.4c0,0.4-0.2,0.6-0.8,0.7
			s-0.9-0.1-0.9-0.5c-0.1-0.6,0.2-0.9,0.8-1S238,342.9,238.1,343.4z M238.5,246.4c0-0.4-0.3-0.6-0.9-0.5c-0.6,0.1-0.9,0.3-0.8,0.7
			c0,0.4,0.4,0.6,0.9,0.5S238.5,246.7,238.5,246.4z M236.8,220.7l0.6-0.4c0.2-0.2,0.4-0.3,0.6-0.3l-0.1-1.2L236.8,220.7z
			 M239.3,254.5c0,0.4-0.2,0.6-0.8,0.7c-0.6,0.1-0.9-0.1-0.9-0.5c0-0.4,0.2-0.6,0.8-0.7C239,254,239.3,254.1,239.3,254.5z
			 M241.1,219.6c-0.1-0.6-0.4-0.8-1-0.8s-0.8,0.4-0.8,1c0,0.4,0.4,0.6,0.9,0.5S241.1,220,241.1,219.6z M242.9,347.7
			c0,0.4-0.2,0.6-0.8,0.7c-0.6,0.1-0.9-0.1-0.9-0.5c0-0.4,0.2-0.6,0.8-0.7S242.9,347.3,242.9,347.7z M243.6,376.7
			c0-0.4-0.4-0.5-1.1-0.5c-0.7,0.1-1,0.3-1,0.7c0,0.4,0.4,0.5,1.1,0.5C243.3,377.3,243.6,377.1,243.6,376.7z M243.7,250.8
			c0-0.4-0.4-0.5-1.1-0.5c-0.7,0.1-1,0.3-1,0.7c0,0.4,0.4,0.5,1.1,0.5C243.4,251.4,243.7,251.2,243.7,250.8z M244.8,353.9
			c-0.2-1.6-1.2-2.2-3.1-2c0.5,0.7,0.9,1.3,1.2,1.6C243.1,353.9,243.8,354,244.8,353.9z M242.5,378.3l-0.3-0.3
			c-0.4,0-0.6,0.2-0.6,0.3c0,0.4,0.2,0.6,0.5,0.5C242.5,378.9,242.6,378.7,242.5,378.3z M243.7,355.5c0-0.4-0.3-0.6-0.9-0.5
			s-0.9,0.3-0.8,0.7c0,0.4,0.4,0.6,0.9,0.5C243.5,356.1,243.8,355.9,243.7,355.5z M244,349.3c0,0.4-0.2,0.6-0.8,0.7
			s-0.9-0.1-0.9-0.5c-0.1-0.6,0.2-0.9,0.8-1S243.9,348.7,244,349.3z M245,220.4c0-0.2-0.2-0.3-0.6-0.2c-0.4,0-0.6,0.2-0.6,0.3
			C244.1,221.3,244.5,221.2,245,220.4z M246.5,356.1c0-0.4-0.4-0.6-0.9-0.5c-0.6,0.1-0.9,0.3-0.8,0.7c0,0.4,0.4,0.6,0.9,0.5
			C246.2,356.7,246.5,356.5,246.5,356.1z M246.7,375.5c-0.6,0.1-1.1,0.4-1.7,1.1c0.2,0,0.6,0,1.2,0.2c0.6,0.1,1,0.2,1.2,0.2l1.2-0.1
			l-1-0.8C247.2,375.7,246.9,375.5,246.7,375.5z M247,252c0-0.4-0.3-0.6-0.8-0.5c-0.5,0-0.7,0.3-0.7,0.7c0,0.4,0.3,0.6,0.8,0.5
			C246.8,252.6,247,252.3,247,252z M247.6,246.3c0-0.4-0.4-0.5-1.1-0.5c-0.7,0.1-1,0.3-1,0.7c0,0.4,0.4,0.5,1.1,0.5
			C247.3,246.9,247.6,246.7,247.6,246.3z M246.7,223.2c0.4,0,0.6-0.3,0.5-0.6c0-0.4-0.3-0.6-0.6-0.5
			C245.9,222.5,245.9,222.9,246.7,223.2z M247.2,355.2c0-0.2-0.2-0.3-0.6-0.2l-0.3,0.3c0,0.4,0.2,0.6,0.5,0.5
			C247.2,355.8,247.3,355.5,247.2,355.2z M251.3,241.8c0-0.4-0.4-0.6-0.9-0.5s-0.9,0.3-0.8,0.7c0,0.4,0.4,0.6,0.9,0.5
			S251.3,242.2,251.3,241.8z M252.4,218.5c0.2,0,0.3-0.2,0.2-0.6c0-0.4-0.2-0.6-0.4-0.6c-0.4,0.2-0.5,0.5-0.5,0.8
			C251.8,218.4,252,218.5,252.4,218.5z M255.1,244.7c0-0.4-0.4-0.6-0.9-0.5s-0.9,0.3-0.8,0.7c0,0.4,0.4,0.6,0.9,0.5
			C254.8,245.3,255.1,245,255.1,244.7z M260.5,220c-0.1-0.6-0.4-0.8-1.1-0.8c-0.7,0.1-1,0.4-0.9,1c0,0.4,0.4,0.5,1.1,0.5
			C260.2,220.6,260.5,220.4,260.5,220z M264.1,249.3c0-0.4-0.3-0.6-0.6-0.5c-0.4,0-0.7,0.2-0.8,0.4c-0.2-0.2-0.6-0.2-1-0.2
			c-0.5,0-0.7,0.3-0.7,0.7c0,0.4,0.3,0.6,0.8,0.7c0.5,0,0.8-0.1,1-0.5c0.2,0.4,0.5,0.5,0.9,0.3C264,250,264.1,249.7,264.1,249.3z
			 M263.7,380.8c-0.2-0.4-1-0.5-2.4-0.3l1.6,1.6L263.7,380.8z M262.1,218.1c0.2,0.2,0.3-0.1,0.2-0.8c-0.1-0.7-0.2-1-0.4-1
			c-0.4,0.2-0.5,0.5-0.5,0.9C261.4,217.6,261.7,217.9,262.1,218.1z M263.4,384.1c0-0.2-0.1-0.4-0.4-0.6l0-0.3l-1.5,0.1
			c0,0.2,0.3,0.4,0.8,0.7C262.9,384.3,263.2,384.3,263.4,384.1z M263.5,353.5l-0.6-0.2l-0.3,0.3
			C262.9,354.1,263.2,354.1,263.5,353.5z M264.8,218.4c0.2,0.4,0.3,0.4,0.3,0c0-0.4-0.2-0.6-0.4-0.6
			C263.6,218.3,263.6,218.5,264.8,218.4z M268.4,253.9c0,0.4-0.3,0.6-1,0.7c-0.7,0.1-1-0.1-1.1-0.5c0-0.4,0.3-0.6,1-0.7
			C268,253.3,268.3,253.5,268.4,253.9z M270.4,380.2c0-0.4-0.3-0.6-0.8-0.5c-0.5,0-0.7,0.3-0.7,0.7c0.1,0.6,0.3,0.8,0.8,0.8
			C270.2,381,270.4,380.7,270.4,380.2z M270.2,220.2c-0.2,0.2-0.2,0.6-0.2,1.2l0.9,0.5l-0.2-2.3L270.2,220.2z M270.6,217.8l1.3,1
			l-0.1-1.2L270.6,217.8z M273.3,379.9c0-0.4-0.4-0.6-0.9-0.5s-0.9,0.3-0.8,0.7c0.1,0.6,0.4,0.8,1,0.8S273.3,380.4,273.3,379.9z
			 M272.4,382.3l2-0.2l-0.9-0.5L272.4,382.3z M274.5,377.4l-0.3-0.3l-0.3,0.3c0,0.4,0.2,0.6,0.4,0.6
			C274.5,378,274.5,377.8,274.5,377.4z M276,244.9c0-0.4-0.3-0.6-0.8-0.5c-0.5,0-0.7,0.3-0.7,0.7c0,0.4,0.3,0.6,0.8,0.5
			C275.8,245.5,276,245.3,276,244.9z M277,381.2c0-0.4-0.4-0.5-1.1-0.5c-0.7,0.1-1,0.3-1,0.7c0,0.4,0.4,0.5,1.1,0.5
			C276.7,381.9,277,381.6,277,381.2z M276.4,384.8c0-0.4-0.3-0.6-0.6-0.5c-0.4,0-0.6,0.3-0.5,0.6
			C275.7,385.3,276.1,385.3,276.4,384.8z M277.1,255.4c0,0.4-0.2,0.6-0.7,0.7c-0.5,0-0.7-0.1-0.8-0.5c0-0.4,0.2-0.6,0.7-0.7
			C276.7,254.8,277,255,277.1,255.4z M276.6,216c-0.4,0-0.6-0.1-0.6-0.4c0-0.3,0.1-0.6,0.5-0.8c0.2,0,0.3,0.2,0.4,0.6
			C276.8,215.8,276.8,216,276.6,216z M281.3,222c-0.1-0.6-0.3-0.8-0.8-0.8c-0.5,0-0.7,0.4-0.6,0.9c0,0.4,0.3,0.6,0.8,0.5
			C281.1,222.6,281.3,222.4,281.3,222z M283.1,254.2c-0.3-0.8-0.9-1.6-2-2.4l0.3,3.2L283.1,254.2z M284.1,249.1
			c0-0.4-0.3-0.6-0.8-0.5c-0.5,0-0.7,0.3-0.7,0.7c0,0.4,0.3,0.6,0.8,0.5C283.9,249.7,284.1,249.4,284.1,249.1z M285.7,221.5
			c-0.1-0.6-0.4-0.8-1-0.8c-0.6,0.1-0.8,0.4-0.8,1c0,0.4,0.4,0.6,0.9,0.5C285.4,222.2,285.7,221.9,285.7,221.5z M286,378
			c0-0.4-0.3-0.6-0.9-0.5c-0.6,0.1-0.9,0.3-0.8,0.7c0,0.4,0.4,0.6,0.9,0.5S286.1,378.4,286,378z M287,222.9l0.3-0.3
			c0-0.4-0.2-0.6-0.4-0.6c-0.4,0-0.6,0.2-0.5,0.5C286.4,222.8,286.6,222.9,287,222.9z M290.3,223.4c0-0.4-0.4-0.6-0.9-0.5
			c-0.6,0.1-0.9,0.3-0.8,0.7c0,0.4,0.4,0.6,0.9,0.5C290,224,290.3,223.8,290.3,223.4z M292.7,370.8c-0.1-1-0.4-1.7-1-2.3
			c-0.5-0.5-1.6-0.7-3.1-0.6l2.7,3L292.7,370.8z M294.1,373.9c-0.3-0.6-0.9-0.8-1.8-0.8c-1,0-1.6,0-1.8,0c0.1,1.4,1.2,1.9,3.1,1.7
			l0.2-0.6L294.1,373.9z M294.3,254.2c0.1,0.6-0.2,0.9-0.6,0.9c-0.5,0-0.8-0.2-0.8-0.8c0-0.4,0.2-0.6,0.7-0.7
			C294,253.6,294.2,253.8,294.3,254.2z M296.1,249.3c-1,0.1-2,0.5-3.1,1.2L296.1,249.3z M298.4,250.8c0.2,0,0.3-0.2,0.2-0.6
			l-0.3-0.3c-0.4,0-0.6,0.2-0.5,0.5C297.8,250.7,298,250.9,298.4,250.8z M301.1,373.2c0-0.4-0.4-0.6-0.9-0.5
			c-0.6,0.1-0.9,0.3-0.8,0.7c0,0.4,0.4,0.6,0.9,0.5C300.9,373.8,301.2,373.6,301.1,373.2z M306.9,369.4c-0.6,0.3-0.8,1-0.7,2.1
			l0.1,1.2c0.6-0.3,0.8-1,0.7-2.1L306.9,369.4z M312.1,232.7c-0.1-0.6-0.3-0.8-0.8-0.8c-0.5,0-0.7,0.4-0.6,0.9
			c0,0.4,0.3,0.6,0.8,0.5C311.9,233.3,312.1,233.1,312.1,232.7z M313.4,372.8l-0.6,0.3l-0.3-0.3c0-0.4,0.1-0.6,0.5-0.6
			C313.5,372.2,313.6,372.4,313.4,372.8z M315.6,232.9c0-0.4-0.4-0.6-0.9-0.5s-0.9,0.3-0.8,0.7c0,0.4,0.3,0.6,0.9,0.5
			C315.4,233.5,315.7,233.3,315.6,232.9z M322.2,360.2c-0.1-1-0.6-1.5-1.6-1.6c-1-0.1-1.9-0.1-2.6,0c0.1,1,0.6,1.5,1.5,1.6
			C320.3,360.3,321.2,360.3,322.2,360.2z M318.5,356.1c0.4,0,0.6-0.3,0.5-0.6c0-0.4-0.2-0.5-0.6-0.2l-0.3,0.3L318.5,356.1z
			 M321.4,231.7c0,0.4-0.2,0.6-0.7,0.7c-0.5,0-0.7-0.1-0.8-0.5c-0.1-0.6,0.2-0.9,0.6-0.9C321.1,230.9,321.3,231.1,321.4,231.7z
			 M321,355c0.4-0.2,0.3-0.5-0.1-0.7c-0.4-0.3-0.6-0.3-0.6-0.1c-0.4,0.4-0.4,0.7-0.1,0.7C320.6,355,320.8,355,321,355z M322.8,363.6
			c0,0.4-0.2,0.6-0.7,0.7c-0.5,0-0.7-0.1-0.8-0.5c0-0.4,0.2-0.6,0.7-0.7C322.5,363.1,322.8,363.2,322.8,363.6z M325.2,231.3
			c0,0.4-0.2,0.6-0.8,0.7c-0.6,0.1-0.9-0.1-0.9-0.5c-0.1-0.6,0.2-0.9,0.8-1C324.8,230.5,325.1,230.8,325.2,231.3z M325,266.6
			c0-0.4-0.3-0.6-0.8-0.5c-0.5,0-0.7,0.3-0.7,0.7c0,0.4,0.3,0.6,0.8,0.5C324.8,267.3,325,267,325,266.6z M325.4,354.5
			c-0.1-0.6-0.7-0.8-1.8-0.7C323.6,354,324.2,354.3,325.4,354.5z M326.6,357.7c0-0.4-0.4-0.6-0.9-0.5c-0.6,0.1-0.9,0.3-0.8,0.7
			c0,0.4,0.4,0.6,0.9,0.5S326.6,358,326.6,357.7z M329.3,272.1c-0.2,0.2-0.6,0.5-1.2,0.9c-0.7,0.4-1.1,0.6-1.3,0.6
			c-0.2,0.2-0.6,0.3-1.2,0.1c0.5,0.7,1.1,1.1,2,1.1c0.9,0,1.5,0,1.9,0L329.3,272.1z M328.9,242.1l-1.2,0.1c-0.2,0-0.5,0.2-0.8,0.7
			c-0.4,0.4-0.6,0.8-0.8,1.3c0,0.4,0.4,0.8,1,1.4c0.6,0.5,1,1,1,1.4c0.2-0.2,0.5-0.5,0.9-0.8c0.5-0.3,0.7-0.6,0.7-0.8l-0.4-0.8
			l2.9-0.3c-0.7-0.9-1.1-1.8-1.1-2.5c-0.1-0.8-0.9-1.1-2.4-0.9L328.9,242.1z M329.2,279.2c0.1,1-0.1,1.5-0.7,1.5l-0.3-3.2
			C328.7,277.6,329.1,278.2,329.2,279.2z M330.3,293.4c0,0.4-0.2,0.6-0.7,0.7c-0.5,0-0.7-0.1-0.8-0.5c0-0.4,0.2-0.6,0.7-0.7
			C330,292.9,330.3,293.1,330.3,293.4z M331.7,246.5c0-0.4-0.4-0.6-0.9-0.5c-0.6,0.1-0.9,0.3-0.8,0.7c0,0.4,0.4,0.6,0.9,0.5
			C331.5,247.2,331.8,246.9,331.7,246.5z M332.6,272.3c0-0.4-0.4-0.6-0.9-0.5s-0.9,0.3-0.8,0.7c0,0.4,0.3,0.6,0.9,0.5
			C332.4,273,332.6,272.7,332.6,272.3z M332.3,274.7c0-0.2-0.2-0.3-0.6-0.2c-0.4,0-0.6,0.2-0.6,0.4c0.2,0.2,0.4,0.3,0.6,0.2
			L332.3,274.7z M331.3,277.2l1.3,1.6l-0.2-1.7L331.3,277.2z M334,291.3c0-0.4-0.4-0.5-1.1-0.5c-0.7,0.1-1,0.3-1,0.7
			c0.1,0.6,0.4,0.8,1.1,0.8C333.7,292.2,334,291.9,334,291.3z M333.6,356.9l-0.6,0.3l-0.3-0.3l0.3-0.3
			C333.4,356.7,333.6,356.7,333.6,356.9z M332.9,301.4l2.6-0.3l-0.1-1.2L332.9,301.4z M335.1,279.1c0-0.4-0.4-0.6-0.9-0.5
			c-0.6,0.1-0.9,0.3-0.8,0.7c0,0.4,0.4,0.6,0.9,0.5C334.8,279.8,335.1,279.5,335.1,279.1z M335.7,276.7c0-0.4-0.4-0.6-0.9-0.5
			s-0.9,0.3-0.8,0.7c0,0.4,0.3,0.6,0.9,0.5C335.5,277.3,335.7,277.1,335.7,276.7z M336.1,242.9c0-0.4-0.4-0.5-1.1-0.5
			c-0.7,0.1-1,0.3-1,0.7c0,0.4,0.4,0.5,1.1,0.5C335.8,243.5,336.1,243.3,336.1,242.9z M336.7,274.9c0-0.4-0.4-0.5-1.1-0.5
			c-0.7,0.1-1,0.3-1,0.7c0.1,0.6,0.4,0.8,1.1,0.8C336.4,275.8,336.7,275.4,336.7,274.9z M337.2,279.8l0.3-0.3c0-0.4-0.2-0.6-0.4-0.6
			C336.2,279.6,336.2,279.9,337.2,279.8z M338.5,243.5c0-0.4-0.4-0.6-0.9-0.5c-0.6,0.1-0.9,0.3-0.8,0.7c0,0.4,0.4,0.6,0.9,0.5
			C338.3,244.1,338.5,243.9,338.5,243.5z M339.1,336.1c0-0.4-0.3-0.6-0.9-0.5s-0.9,0.3-0.8,0.7c0.1,0.6,0.4,0.8,1,0.8
			S339.2,336.7,339.1,336.1z M339.6,303.1l0.2-0.6l-0.3-0.3C338.5,302.5,338.6,302.8,339.6,303.1z M341,253.5c0.4-0.2,0.4-0.3,0-0.3
			c-0.4,0-0.6,0.2-0.6,0.4c0,0.4,0.2,0.6,0.4,0.6C340.9,254.1,341,253.9,341,253.5z M341.7,248.8l-1.2,0.1c0.9,1.3,1.8,1.4,2.7,0.3
			L341.7,248.8z M346,308.9c0-0.4-0.4-0.6-0.9-0.5c-0.6,0.1-0.9,0.3-0.8,0.7c0,0.4,0.4,0.6,0.9,0.5
			C345.8,309.5,346.1,309.3,346,308.9z M349.9,260c0-0.4-0.3-0.6-0.9-0.5c-0.6,0.1-0.9,0.3-0.8,0.7c0,0.4,0.4,0.6,0.9,0.5
			S349.9,260.4,349.9,260z M350.6,322.3c-0.1-0.6-0.3-0.8-0.8-0.8c-0.5,0-0.7,0.4-0.6,0.9c0,0.4,0.3,0.6,0.8,0.5
			C350.5,322.9,350.7,322.6,350.6,322.3z M352.8,317.9c-0.1-0.6-0.3-0.8-0.8-0.8c-0.5,0-0.7,0.4-0.6,0.9c0,0.4,0.3,0.6,0.8,0.5
			C352.7,318.5,352.9,318.3,352.8,317.9z M353.8,272.5c0-0.4-0.4-0.6-0.9-0.5c-0.6,0.1-0.9,0.3-0.8,0.7c0,0.4,0.4,0.6,0.9,0.5
			C353.6,273.1,353.8,272.9,353.8,272.5z M355,270.1c0-0.4-0.3-0.6-0.8-0.5c-0.5,0-0.7,0.3-0.7,0.7c0,0.4,0.3,0.6,0.8,0.5
			C354.8,270.7,355.1,270.4,355,270.1z M361.1,286.2c0.1,0.6-0.2,0.9-0.8,1c-0.6,0.1-0.9-0.2-1-0.8c0-0.4,0.2-0.6,0.8-0.7
			C360.7,285.6,361,285.8,361.1,286.2z"/>
	</g>
</g>
</svg>
